<svg
   xmlns="http://www.w3.org/2000/svg"
   xml:space="preserve"
   preserveAspectRatio="none"
   viewBox="0 0 554.173228485 538.5826773"
   version="1.1"
   id="Die Cut Templates"
  >
    <g id="crease">
        <path d="M243.77952762 428.03149617 L243.77952762 144.56692917" fill="none" stroke="#00FF00" stroke-width="1" id="Line"/>

        <path d="M314.64566937 144.56692917 L314.64566937 428.03149617" fill="none" stroke="#00FF00" stroke-width="1" id="Line"/>

        <path d="M484.72440957 428.03149617 L484.72440957 144.56692917" fill="none" stroke="#00FF00" stroke-width="1" id="Line"/>

        <path d="M73.70078742 144.56692917 L73.70078742 428.03149617" fill="none" stroke="#00FF00" stroke-width="1" id="Line"/>

        <path d="M484.72440957 428.03149617 L554.173228485 428.03149617" fill="none" stroke="#00FF00" stroke-width="1" id="Line"/>

        <path d="M314.64566937 428.03149617 L245.196850455 428.03149617" fill="none" stroke="#00FF00" stroke-width="1" id="Line"/>

        <path d="M462.04724421 496.06299225 L337.32283473 496.06299225" fill="none" stroke="#00FF00" stroke-width="1" id="Line"/>

        <path d="M314.64566937 429.448819005 L484.72440957 429.448819005" fill="none" stroke="#00FF00" stroke-width="1" id="Line"/>

        <path d="M554.173228485 144.56692917 L486.141732405 144.56692917" fill="none" stroke="#00FF00" stroke-width="1" id="Line"/>

        <path d="M243.77952762 144.56692917 L313.228346535 144.56692917" fill="none" stroke="#00FF00" stroke-width="1" id="Line"/>

        <path d="M96.37795278 76.53543309 L221.10236226 76.53543309" fill="none" stroke="#00FF00" stroke-width="1" id="Line"/>

        <path d="M243.77952762 143.149606335 L73.70078742 143.149606335" fill="none" stroke="#00FF00" stroke-width="1" id="Line"/>

    </g>
    <g id="cut">
        <path d="M554.173228485 428.03149617 L554.173228485 144.56692917" fill="none" stroke="#FF0000" stroke-width="1" id="Line"/>

        <path d="M243.77952762 73.70078742 L243.77952762 144.56692917" fill="none" stroke="#FF0000" stroke-width="1" id="Line"/>

        <path d="M314.64566937 498.89763792 L314.64566937 428.03149617" fill="none" stroke="#FF0000" stroke-width="1" id="Line"/>

        <path d="M484.72440957 428.03149617 L484.72440957 498.89763792" fill="none" stroke="#FF0000" stroke-width="1" id="Line"/>

        <path d="M73.70078742 144.56692917 L73.70078742 73.70078742" fill="none" stroke="#FF0000" stroke-width="1" id="Line"/>

        <path d="M554.173228485 428.03149617 L554.173228485 445.03937019" fill="none" stroke="#FF0000" stroke-width="1" id="Line"/>

        <path d="M73.70078742 428.03149617 L31.18110237 416.6383808983" fill="none" stroke="#FF0000" stroke-width="1" id="Line"/>

        <path d="M31.18110237 416.6383808983 L31.18110237 155.9600444417" fill="none" stroke="#FF0000" stroke-width="1" id="Line"/>

        <path d="M31.18110237 155.9600444417 L73.70078742 144.56692917" fill="none" stroke="#FF0000" stroke-width="1" id="Line"/>

        <path d="M243.77952762 428.03149617 L73.70078742 428.03149617" fill="none" stroke="#FF0000" stroke-width="1" id="Line"/>

        <path d="M243.77952762 428.03149617 L245.196850455 428.03149617" fill="none" stroke="#FF0000" stroke-width="1" id="Line"/>

        <path d="M245.196850455 428.03149617 L245.196850455 445.03937019" fill="none" stroke="#FF0000" stroke-width="1" id="Line"/>

        <path d="M245.196850455 445.03937019 L253.700787465 453.5433072" fill="none" stroke="#FF0000" stroke-width="1" id="Line"/>

        <path d="M253.700787465 453.5433072 L258.2580335737 470.55118122" fill="none" stroke="#FF0000" stroke-width="1" id="Line"/>

        <path d="M314.64566937 428.03149617 L306.14173236 436.53543318" fill="none" stroke="#FF0000" stroke-width="1" id="Line"/>

        <path d="M306.14173236 436.53543318 L300.47244102 470.55118122" fill="none" stroke="#FF0000" stroke-width="1" id="Line"/>

        <path d="M541.1120453663 470.55118122 L498.89763792 470.55118122" fill="none" stroke="#FF0000" stroke-width="1" id="Line"/>

        <path d="M258.2580335737 470.55118122 L300.47244102 470.55118122" fill="none" stroke="#FF0000" stroke-width="1" id="Line"/>

        <path d="M554.173228485 445.03937019 L545.669291475 453.5433072" fill="none" stroke="#FF0000" stroke-width="1" id="Line"/>

        <path d="M545.669291475 453.5433072 L541.1120453663 470.55118122" fill="none" stroke="#FF0000" stroke-width="1" id="Line"/>

        <path d="M484.72440957 428.03149617 L493.22834658 436.53543318" fill="none" stroke="#FF0000" stroke-width="1" id="Line"/>

        <path d="M493.22834658 436.53543318 L498.89763792 470.55118122" fill="none" stroke="#FF0000" stroke-width="1" id="Line"/>

        <path d="M330.236220555 538.5826773 L469.133858385 538.5826773" fill="none" stroke="#FF0000" stroke-width="1" id="Line"/>

        <path d="M316.062992205 498.89763792 L316.062992205 524.40944895" fill="none" stroke="#FF0000" stroke-width="1" id="Line"/>

        <path d="M483.307086735 498.89763792 L483.307086735 524.40944895" fill="none" stroke="#FF0000" stroke-width="1" id="Line"/>

        <path d="M337.32283473 498.89763792 L314.64566937 498.89763792" fill="none" stroke="#FF0000" stroke-width="1" id="Line"/>

        <path d="M484.72440957 498.89763792 L462.04724421 498.89763792" fill="none" stroke="#FF0000" stroke-width="1" id="Line"/>

        <path d="M462.04724421 498.89763792 L462.04724421 496.06299225" fill="none" stroke="#FF0000" stroke-width="1" id="Line"/>

        <path d="M337.32283473 496.06299225 L337.32283473 498.89763792" fill="none" stroke="#FF0000" stroke-width="1" id="Line"/>

        <path d="M314.64566937 144.56692917 L484.72440957 144.56692917" fill="none" stroke="#FF0000" stroke-width="1" id="Line"/>

        <path d="M484.72440957 144.56692917 L486.141732405 144.56692917" fill="none" stroke="#FF0000" stroke-width="1" id="Line"/>

        <path d="M314.64566937 144.56692917 L313.228346535 144.56692917" fill="none" stroke="#FF0000" stroke-width="1" id="Line"/>

        <path d="M313.228346535 144.56692917 L313.228346535 127.55905515" fill="none" stroke="#FF0000" stroke-width="1" id="Line"/>

        <path d="M313.228346535 127.55905515 L304.724409525 119.05511814" fill="none" stroke="#FF0000" stroke-width="1" id="Line"/>

        <path d="M304.724409525 119.05511814 L300.1671634163 102.04724412" fill="none" stroke="#FF0000" stroke-width="1" id="Line"/>

        <path d="M243.77952762 144.56692917 L252.28346463 136.06299216" fill="none" stroke="#FF0000" stroke-width="1" id="Line"/>

        <path d="M252.28346463 136.06299216 L257.95275597 102.04724412" fill="none" stroke="#FF0000" stroke-width="1" id="Line"/>

        <path d="M499.2029155237 102.04724412 L540.000000135 102.04724412" fill="none" stroke="#FF0000" stroke-width="1" id="Line"/>

        <path d="M300.1671634163 102.04724412 L257.95275597 102.04724412" fill="none" stroke="#FF0000" stroke-width="1" id="Line"/>

        <path d="M486.141732405 144.56692917 L486.141732405 127.55905515" fill="none" stroke="#FF0000" stroke-width="1" id="Line"/>

        <path d="M486.141732405 127.55905515 L494.645669415 119.05511814" fill="none" stroke="#FF0000" stroke-width="1" id="Line"/>

        <path d="M494.645669415 119.05511814 L499.2029155237 102.04724412" fill="none" stroke="#FF0000" stroke-width="1" id="Line"/>

        <path d="M554.173228485 144.56692917 L545.669291475 136.06299216" fill="none" stroke="#FF0000" stroke-width="1" id="Line"/>

        <path d="M545.669291475 136.06299216 L540.000000135 102.04724412" fill="none" stroke="#FF0000" stroke-width="1" id="Line"/>

        <path d="M89.291338605 34.01574804 L228.188976435 34.01574804" fill="none" stroke="#FF0000" stroke-width="1" id="Line"/>

        <path d="M75.118110255 73.70078742 L75.118110255 48.18897639" fill="none" stroke="#FF0000" stroke-width="1" id="Line"/>

        <path d="M242.362204785 73.70078742 L242.362204785 48.18897639" fill="none" stroke="#FF0000" stroke-width="1" id="Line"/>

        <path d="M221.10236226 73.70078742 L243.77952762 73.70078742" fill="none" stroke="#FF0000" stroke-width="1" id="Line"/>

        <path d="M73.70078742 73.70078742 L96.37795278 73.70078742" fill="none" stroke="#FF0000" stroke-width="1" id="Line"/>

        <path d="M96.37795278 73.70078742 L96.37795278 76.53543309" fill="none" stroke="#FF0000" stroke-width="1" id="Line"/>

        <path d="M221.10236226 76.53543309 L221.10236226 73.70078742" fill="none" stroke="#FF0000" stroke-width="1" id="Line"/>

        <path d="M 469.133858385 538.5826773 A 14.17322835 14.17322835 0 0 0 483.307086735 524.40944895" fill="none" stroke="#FF0000" stroke-width="1" id="Arc"/>
        <path d="M 316.062992205 524.40944895 A 14.17322835 14.17322835 0 0 0 330.236220555 538.5826773" fill="none" stroke="#FF0000" stroke-width="1" id="Arc"/>
        <path d="M 242.362204785 48.18897639 A 14.17322835 14.17322835 0 0 0 228.188976435 34.01574804" fill="none" stroke="#FF0000" stroke-width="1" id="Arc"/>
        <path d="M 89.291338605 34.01574804 A 14.17322835 14.17322835 0 0 0 75.118110255 48.18897639" fill="none" stroke="#FF0000" stroke-width="1" id="Arc"/>
    </g>
    <g id="dimensions">
            <text
      text-anchor="middle"
      dominant-baseline="central"
      transform="rotate(-90, -0.16535433, 359.778543397)"
      x="-0.16535433"
      y="359.778543397"
      font-size="6px"
      fill="black"
      style="stroke:rgb(0,0,0); stroke-width:0; font-weight: small; font-style: normal; ">
     178.00mm
    </text>

<path d="M0.0 34.01574804 L22.67716536 34.01574804"
    fill="none" stroke="#000000" stroke-width="1" /><path d="M0.0 538.5826773 L22.67716536 538.5826773"
    fill="none" stroke="#000000" stroke-width="1" /><path d="M2.83464567 34.01574804 L4.251968505 39.305268871"
    fill="none" stroke="#000000" stroke-width="1" /><path d="M2.83464567 34.01574804 L1.417322835 39.305268871"
    fill="none" stroke="#000000" stroke-width="1" /><path d="M2.83464567 538.5826773 L1.417322835 533.293156469"
    fill="none" stroke="#000000" stroke-width="1" /><path d="M2.83464567 538.5826773 L4.251968505 533.293156469"
    fill="none" stroke="#000000" stroke-width="1" /><path d="M2.83464567 34.01574804 L2.83464567 538.5826773"
    fill="none" stroke="#000000" stroke-width="1" />

          <text
    x="220.6594488741"
    y="-0.16535433"
    font-size="6px"
    fill="black"
    style="stroke:rgb(0,0,0); stroke-width:0; font-weight: small; font-style: normal; ">
   184.50mm
  </text>

<path d="M31.18110237 0.0 L31.18110237 22.67716536"
    fill="none" stroke="#000000" stroke-width="1" /><path d="M554.173228485 0.0 L554.173228485 22.67716536"
    fill="none" stroke="#000000" stroke-width="1" /><path d="M31.18110237 2.83464567 L36.470623201 1.417322835"
    fill="none" stroke="#000000" stroke-width="1" /><path d="M31.18110237 2.83464567 L36.470623201 4.251968505"
    fill="none" stroke="#000000" stroke-width="1" /><path d="M554.173228485 2.83464567 L548.883707654 4.251968505"
    fill="none" stroke="#000000" stroke-width="1" /><path d="M554.173228485 2.83464567 L548.883707654 1.417322835"
    fill="none" stroke="#000000" stroke-width="1" /><path d="M31.18110237 2.83464567 L554.173228485 2.83464567"
    fill="none" stroke="#000000" stroke-width="1" />

          <text
    x="105.0590551444"
    y="396.68503947"
    font-size="6px"
    fill="black"
    style="stroke:rgb(0,0,0); stroke-width:0; font-weight: small; font-style: normal; ">
   60.00mm
  </text>

<path d="M73.70078742 399.68503947 L78.990308251 398.267716635"
    fill="none" stroke="#000000" stroke-width="1" /><path d="M73.70078742 399.68503947 L78.990308251 401.102362305"
    fill="none" stroke="#000000" stroke-width="1" /><path d="M243.77952762 399.68503947 L238.490006789 401.102362305"
    fill="none" stroke="#000000" stroke-width="1" /><path d="M243.77952762 399.68503947 L238.490006789 398.267716635"
    fill="none" stroke="#000000" stroke-width="1" /><path d="M73.70078742 399.68503947 L243.77952762 399.68503947"
    fill="none" stroke="#000000" stroke-width="1" />

          <text
    x="236.8257874608"
    y="396.68503947"
    font-size="6px"
    fill="black"
    style="stroke:rgb(0,0,0); stroke-width:0; font-weight: small; font-style: normal; ">
   25.00mm
  </text>

<path d="M243.77952762 399.68503947 L249.069048451 398.267716635"
    fill="none" stroke="#000000" stroke-width="1" /><path d="M243.77952762 399.68503947 L249.069048451 401.102362305"
    fill="none" stroke="#000000" stroke-width="1" /><path d="M314.64566937 399.68503947 L309.356148539 401.102362305"
    fill="none" stroke="#000000" stroke-width="1" /><path d="M314.64566937 399.68503947 L309.356148539 398.267716635"
    fill="none" stroke="#000000" stroke-width="1" /><path d="M243.77952762 399.68503947 L314.64566937 399.68503947"
    fill="none" stroke="#000000" stroke-width="1" />

            <text
      text-anchor="middle"
      dominant-baseline="central"
      transform="rotate(-90, 453.37795287, 338.518700872)"
      x="453.37795287"
      y="338.518700872"
      font-size="6px"
      fill="black"
      style="stroke:rgb(0,0,0); stroke-width:0; font-weight: small; font-style: normal; ">
     100.00mm
    </text>

<path d="M459.21259854 428.03149617 L456.37795287 428.03149617"
    fill="none" stroke="#000000" stroke-width="1" /><path d="M459.21259854 144.56692917 L456.37795287 144.56692917"
    fill="none" stroke="#000000" stroke-width="1" /><path d="M456.37795287 428.03149617 L454.960630035 422.741975339"
    fill="none" stroke="#000000" stroke-width="1" /><path d="M456.37795287 428.03149617 L457.795275705 422.741975339"
    fill="none" stroke="#000000" stroke-width="1" /><path d="M456.37795287 144.56692917 L457.795275705 149.856450001"
    fill="none" stroke="#000000" stroke-width="1" /><path d="M456.37795287 144.56692917 L454.960630035 149.856450001"
    fill="none" stroke="#000000" stroke-width="1" /><path d="M456.37795287 428.03149617 L456.37795287 144.56692917"
    fill="none" stroke="#000000" stroke-width="1" />

    </g>

</svg>
