0
SECTION
2
HEADER
9
$ACADVER
1
AC1006
0
ENDSEC
0
SECTION
2
ENTITIES
0
LINE
8
crease
62
3
10
60.0
20
0.0
11
60.0
21
100.0
0
LINE
8
crease
62
3
10
85.0
20
100.0
11
85.0
21
0.0
0
LINE
8
crease
62
3
10
145.0
20
0.0
11
145.0
21
100.0
0
LINE
8
crease
62
3
10
0.0
20
100.0
11
0.0
21
0.0
0
LINE
8
cut
62
1
10
169.5
20
0.0
11
169.5
21
100.0
0
LINE
8
cut
62
1
10
60.0
20
125.0
11
60.0
21
100.0
0
LINE
8
cut
62
1
10
85.0
20
-25.0
11
85.0
21
0.0
0
LINE
8
cut
62
1
10
145.0
20
0.0
11
145.0
21
-25.0
0
LINE
8
cut
62
1
10
0.0
20
100.0
11
0.0
21
125.0
0
LINE
8
cut
62
1
10
169.5
20
0.0
11
169.5
21
-6.0
0
LINE
8
cut
62
1
10
0.0
20
0.0
11
-15.0
21
4.0192378865
0
LINE
8
cut
62
1
10
-15.0
20
4.0192378865
11
-15.0
21
95.9807621135
0
LINE
8
cut
62
1
10
-15.0
20
95.9807621135
11
0.0
21
100.0
0
LINE
8
cut
62
1
10
60.0
20
0.0
11
0.0
21
0.0
0
LINE
8
crease
62
3
10
145.0
20
0.0
11
169.5
21
0.0
0
LINE
8
crease
62
3
10
85.0
20
0.0
11
60.5
21
0.0
0
LINE
8
cut
62
1
10
60.0
20
0.0
11
60.5
21
0.0
0
LINE
8
cut
62
1
10
60.5
20
0.0
11
60.5
21
-6.0
0
LINE
8
cut
62
1
10
60.5
20
-6.0
11
63.5
21
-9.0
0
LINE
8
cut
62
1
10
63.5
20
-9.0
11
65.1076951546
21
-15.0
0
LINE
8
cut
62
1
10
85.0
20
0.0
11
82.0
21
-3.0
0
LINE
8
cut
62
1
10
82.0
20
-3.0
11
80.0
21
-15.0
0
LINE
8
cut
62
1
10
164.8923048454
20
-15.0
11
150.0
21
-15.0
0
LINE
8
cut
62
1
10
65.1076951546
20
-15.0
11
80.0
21
-15.0
0
LINE
8
cut
62
1
10
169.5
20
-6.0
11
166.5
21
-9.0
0
LINE
8
cut
62
1
10
166.5
20
-9.0
11
164.8923048454
21
-15.0
0
LINE
8
cut
62
1
10
145.0
20
0.0
11
148.0
21
-3.0
0
LINE
8
cut
62
1
10
148.0
20
-3.0
11
150.0
21
-15.0
0
LINE
8
crease
62
3
10
137.0
20
-24.0
11
93.0
21
-24.0
0
LINE
8
cut
62
1
10
90.5
20
-39.0
11
139.5
21
-39.0
0
LINE
8
cut
62
1
10
85.5
20
-25.0
11
85.5
21
-34.0
0
LINE
8
cut
62
1
10
144.5
20
-25.0
11
144.5
21
-34.0
0
LINE
8
cut
62
1
10
93.0
20
-25.0
11
85.0
21
-25.0
0
LINE
8
cut
62
1
10
145.0
20
-25.0
11
137.0
21
-25.0
0
LINE
8
cut
62
1
10
137.0
20
-25.0
11
137.0
21
-24.0
0
LINE
8
cut
62
1
10
93.0
20
-24.0
11
93.0
21
-25.0
0
LINE
8
crease
62
3
10
85.0
20
-0.5
11
145.0
21
-0.5
0
LINE
8
cut
62
1
10
85.0
20
100.0
11
145.0
21
100.0
0
LINE
8
crease
62
3
10
169.5
20
100.0
11
145.5
21
100.0
0
LINE
8
cut
62
1
10
145.0
20
100.0
11
145.5
21
100.0
0
LINE
8
crease
62
3
10
60.0
20
100.0
11
84.5
21
100.0
0
LINE
8
cut
62
1
10
85.0
20
100.0
11
84.5
21
100.0
0
LINE
8
cut
62
1
10
84.5
20
100.0
11
84.5
21
106.0
0
LINE
8
cut
62
1
10
84.5
20
106.0
11
81.5
21
109.0
0
LINE
8
cut
62
1
10
81.5
20
109.0
11
79.8923048454
21
115.0
0
LINE
8
cut
62
1
10
60.0
20
100.0
11
63.0
21
103.0
0
LINE
8
cut
62
1
10
63.0
20
103.0
11
65.0
21
115.0
0
LINE
8
cut
62
1
10
150.1076951546
20
115.0
11
164.5
21
115.0
0
LINE
8
cut
62
1
10
79.8923048454
20
115.0
11
65.0
21
115.0
0
LINE
8
cut
62
1
10
145.5
20
100.0
11
145.5
21
106.0
0
LINE
8
cut
62
1
10
145.5
20
106.0
11
148.5
21
109.0
0
LINE
8
cut
62
1
10
148.5
20
109.0
11
150.1076951546
21
115.0
0
LINE
8
cut
62
1
10
169.5
20
100.0
11
166.5
21
103.0
0
LINE
8
cut
62
1
10
166.5
20
103.0
11
164.5
21
115.0
0
LINE
8
crease
62
3
10
8.0
20
124.0
11
52.0
21
124.0
0
LINE
8
cut
62
1
10
5.5
20
139.0
11
54.5
21
139.0
0
LINE
8
cut
62
1
10
0.5
20
125.0
11
0.5
21
134.0
0
LINE
8
cut
62
1
10
59.5
20
125.0
11
59.5
21
134.0
0
LINE
8
cut
62
1
10
52.0
20
125.0
11
60.0
21
125.0
0
LINE
8
cut
62
1
10
0.0
20
125.0
11
8.0
21
125.0
0
LINE
8
cut
62
1
10
8.0
20
125.0
11
8.0
21
124.0
0
LINE
8
cut
62
1
10
52.0
20
124.0
11
52.0
21
125.0
0
LINE
8
crease
62
3
10
60.0
20
100.5
11
0.0
21
100.5
0
ARC
8
cut
62
1
10
139.5
20
-34.0
40
5.0
50
270.0
51
360.0
0
ARC
8
cut
62
1
10
90.5
20
-34.0
40
5.0
50
180.0
51
270.0
0
ARC
8
cut
62
1
10
54.5
20
134.0
40
5.0
50
0.0
51
90.0
0
ARC
8
cut
62
1
10
5.5
20
134.0
40
5.0
50
90.0
51
180.0
0
TEXT
8
dimensions
62
255
10
-29.1071428571
20
37.0390625
11
-29.1071428571
21
62.9609375
40
6
72
0.0
50
90.0
1
178.00mm
0
LINE
8
dimensions
62
255
10
-26.0
20
139.0
11
-18.0
21
139.0
0
LINE
8
dimensions
62
255
10
-26.0
20
-39.0
11
-18.0
21
-39.0
0
LINE
8
dimensions
62
255
10
-25.0
20
139.0
11
-24.5
21
137.1339745962
0
LINE
8
dimensions
62
255
10
-25.0
20
139.0
11
-25.5
21
137.1339745962
0
LINE
8
dimensions
62
255
10
-25.0
20
-39.0
11
-25.5
21
-37.1339745962
0
LINE
8
dimensions
62
255
10
-25.0
20
-39.0
11
-24.5
21
-37.1339745962
0
LINE
8
dimensions
62
255
10
-25.0
20
139.0
11
-25.0
21
-39.0
0
TEXT
8
dimensions
62
255
10
64.546875
20
154.1071428571
11
89.953125
21
154.1071428571
40
6
72
0.0
50
0.0
1
184.50mm
0
LINE
8
dimensions
62
255
10
-15.0
20
151.0
11
-15.0
21
143.0
0
LINE
8
dimensions
62
255
10
169.5
20
151.0
11
169.5
21
143.0
0
LINE
8
dimensions
62
255
10
-15.0
20
150.0
11
-13.1339745962
21
150.5
0
LINE
8
dimensions
62
255
10
-15.0
20
150.0
11
-13.1339745962
21
149.5
0
LINE
8
dimensions
62
255
10
169.5
20
150.0
11
167.6339745962
21
149.5
0
LINE
8
dimensions
62
255
10
169.5
20
150.0
11
167.6339745962
21
150.5
0
LINE
8
dimensions
62
255
10
-15.0
20
150.0
11
169.5
21
150.0
0
TEXT
8
dimensions
62
255
10
20.53125
20
14.1071428572
11
39.46875
21
14.1071428572
40
6
72
0.0
50
0.0
1
60.00mm
0
LINE
8
dimensions
62
255
10
0.0
20
10.0
11
1.8660254038
21
10.5
0
LINE
8
dimensions
62
255
10
0.0
20
10.0
11
1.8660254038
21
9.5
0
LINE
8
dimensions
62
255
10
60.0
20
10.0
11
58.1339745962
21
9.5
0
LINE
8
dimensions
62
255
10
60.0
20
10.0
11
58.1339745962
21
10.5
0
LINE
8
dimensions
62
255
10
0.0
20
10.0
11
60.0
21
10.0
0
TEXT
8
dimensions
62
255
10
65.0234375
20
14.1071428572
11
79.9765625
21
14.1071428572
40
6
72
0.0
50
0.0
1
25.00mm
0
LINE
8
dimensions
62
255
10
60.0
20
10.0
11
61.8660254038
21
10.5
0
LINE
8
dimensions
62
255
10
60.0
20
10.0
11
61.8660254038
21
9.5
0
LINE
8
dimensions
62
255
10
85.0
20
10.0
11
83.1339745962
21
9.5
0
LINE
8
dimensions
62
255
10
85.0
20
10.0
11
83.1339745962
21
10.5
0
LINE
8
dimensions
62
255
10
60.0
20
10.0
11
85.0
21
10.0
0
TEXT
8
dimensions
62
255
10
130.8928571429
20
40.7890625
11
130.8928571429
21
59.2109375
40
6
72
0.0
50
90.0
1
100.00mm
0
LINE
8
dimensions
62
255
10
136.0
20
0.0
11
135.0
21
0.0
0
LINE
8
dimensions
62
255
10
136.0
20
100.0
11
135.0
21
100.0
0
LINE
8
dimensions
62
255
10
135.0
20
0.0
11
134.5
21
1.8660254038
0
LINE
8
dimensions
62
255
10
135.0
20
0.0
11
135.5
21
1.8660254038
0
LINE
8
dimensions
62
255
10
135.0
20
100.0
11
135.5
21
98.1339745962
0
LINE
8
dimensions
62
255
10
135.0
20
100.0
11
134.5
21
98.1339745962
0
LINE
8
dimensions
62
255
10
135.0
20
0.0
11
135.0
21
100.0
0
ENDSEC
0
EOF
