0
SECTION
2
HEADER
9
$ACADVER
1
AC1006
0
ENDSEC
0
SECTION
2
ENTITIES
0
LINE
8
crease
62
3
10
105.0
20
0.0
11
105.0
21
155.0
0
LINE
8
crease
62
3
10
155.0
20
155.0
11
155.0
21
0.0
0
LINE
8
crease
62
3
10
260.0
20
0.0
11
260.0
21
155.0
0
LINE
8
crease
62
3
10
0.0
20
155.0
11
0.0
21
0.0
0
LINE
8
cut
62
1
10
309.5
20
0.0
11
309.5
21
155.0
0
LINE
8
cut
62
1
10
105.0
20
205.0
11
105.0
21
155.0
0
LINE
8
cut
62
1
10
105.0
20
-50.0
11
105.0
21
0.0
0
LINE
8
cut
62
1
10
0.0
20
155.0
11
0.0
21
205.0
0
LINE
8
cut
62
1
10
0.0
20
0.0
11
0.0
21
-50.0
0
LINE
8
cut
62
1
10
0.0
20
0.0
11
-15.0
21
4.0192378865
0
LINE
8
cut
62
1
10
-15.0
20
4.0192378865
11
-15.0
21
150.9807621135
0
LINE
8
cut
62
1
10
-15.0
20
150.9807621135
11
0.0
21
155.0
0
LINE
8
cut
62
1
10
155.0
20
0.0
11
260.0
21
0.0
0
LINE
8
crease
62
3
10
309.5
20
0.0
11
260.5
21
0.0
0
LINE
8
cut
62
1
10
260.0
20
0.0
11
260.5
21
0.0
0
LINE
8
crease
62
3
10
105.0
20
0.0
11
154.5
21
0.0
0
LINE
8
cut
62
1
10
155.0
20
0.0
11
154.5
21
0.0
0
LINE
8
cut
62
1
10
154.5
20
155.0
11
154.5
21
162.0
0
LINE
8
cut
62
1
10
154.5
20
0.0
11
154.5
21
-7.0
0
LINE
8
cut
62
1
10
154.5
20
-7.0
11
151.5
21
-10.0
0
LINE
8
cut
62
1
10
151.5
20
-10.0
11
147.4807621135
21
-25.0
0
LINE
8
cut
62
1
10
105.0
20
0.0
11
108.0
21
-3.0
0
LINE
8
cut
62
1
10
108.0
20
-3.0
11
110.0
21
-25.0
0
LINE
8
cut
62
1
10
267.5192378865
20
-25.0
11
304.5
21
-25.0
0
LINE
8
cut
62
1
10
147.4807621135
20
-25.0
11
110.0
21
-25.0
0
LINE
8
cut
62
1
10
260.5
20
155.0
11
260.5
21
162.0
0
LINE
8
cut
62
1
10
260.5
20
0.0
11
260.5
21
-7.0
0
LINE
8
cut
62
1
10
260.5
20
-7.0
11
263.5
21
-10.0
0
LINE
8
cut
62
1
10
263.5
20
-10.0
11
267.5192378865
21
-25.0
0
LINE
8
cut
62
1
10
309.5
20
0.0
11
306.5
21
-3.0
0
LINE
8
cut
62
1
10
306.5
20
-3.0
11
304.5
21
-25.0
0
LINE
8
crease
62
3
10
9.0
20
-49.0
11
96.0
21
-49.0
0
LINE
8
cut
62
1
10
5.5
20
-64.0
11
99.5
21
-64.0
0
LINE
8
cut
62
1
10
0.5
20
205.0
11
0.5
21
214.0
0
LINE
8
cut
62
1
10
0.5
20
-50.0
11
0.5
21
-59.0
0
LINE
8
cut
62
1
10
104.5
20
205.0
11
104.5
21
214.0
0
LINE
8
cut
62
1
10
104.5
20
-50.0
11
104.5
21
-59.0
0
LINE
8
cut
62
1
10
96.0
20
-50.0
11
105.0
21
-50.0
0
LINE
8
cut
62
1
10
0.0
20
-50.0
11
9.0
21
-50.0
0
LINE
8
cut
62
1
10
9.0
20
205.0
11
9.0
21
204.0
0
LINE
8
cut
62
1
10
9.0
20
-50.0
11
9.0
21
-49.0
0
LINE
8
cut
62
1
10
96.0
20
204.0
11
96.0
21
205.0
0
LINE
8
cut
62
1
10
96.0
20
-49.0
11
96.0
21
-50.0
0
LINE
8
crease
62
3
10
105.0
20
-0.5
11
0.0
21
-0.5
0
LINE
8
cut
62
1
10
155.0
20
155.0
11
260.0
21
155.0
0
LINE
8
crease
62
3
10
309.5
20
155.0
11
260.5
21
155.0
0
LINE
8
cut
62
1
10
260.0
20
155.0
11
260.5
21
155.0
0
LINE
8
crease
62
3
10
105.0
20
155.0
11
154.5
21
155.0
0
LINE
8
cut
62
1
10
155.0
20
155.0
11
154.5
21
155.0
0
LINE
8
cut
62
1
10
154.5
20
162.0
11
151.5
21
165.0
0
LINE
8
cut
62
1
10
151.5
20
165.0
11
147.4807621135
21
180.0
0
LINE
8
cut
62
1
10
105.0
20
155.0
11
108.0
21
158.0
0
LINE
8
cut
62
1
10
108.0
20
158.0
11
110.0
21
180.0
0
LINE
8
cut
62
1
10
267.5192378865
20
180.0
11
304.5
21
180.0
0
LINE
8
cut
62
1
10
147.4807621135
20
180.0
11
110.0
21
180.0
0
LINE
8
cut
62
1
10
260.5
20
162.0
11
263.5
21
165.0
0
LINE
8
cut
62
1
10
263.5
20
165.0
11
267.5192378865
21
180.0
0
LINE
8
cut
62
1
10
309.5
20
155.0
11
306.5
21
158.0
0
LINE
8
cut
62
1
10
306.5
20
158.0
11
304.5
21
180.0
0
LINE
8
crease
62
3
10
9.0
20
204.0
11
96.0
21
204.0
0
LINE
8
cut
62
1
10
5.5
20
219.0
11
99.5
21
219.0
0
LINE
8
cut
62
1
10
96.0
20
205.0
11
105.0
21
205.0
0
LINE
8
cut
62
1
10
0.0
20
205.0
11
9.0
21
205.0
0
LINE
8
crease
62
3
10
105.0
20
155.5
11
0.0
21
155.5
0
ARC
8
cut
62
1
10
99.5
20
-59.0
40
5.0
50
270.0
51
360.0
0
ARC
8
cut
62
1
10
5.5
20
-59.0
40
5.0
50
180.0
51
270.0
0
ARC
8
cut
62
1
10
99.5
20
214.0
40
5.0
50
0.0
51
90.0
0
ARC
8
cut
62
1
10
5.5
20
214.0
40
5.0
50
90.0
51
180.0
0
TEXT
8
dimensions
62
255
10
-29.1071428571
20
64.5390625
11
-29.1071428571
21
90.4609375
40
8
72
0.0
50
90.0
1
283.00mm
0
LINE
8
dimensions
62
255
10
-26.0
20
219.0
11
-18.0
21
219.0
0
LINE
8
dimensions
62
255
10
-26.0
20
-64.0
11
-18.0
21
-64.0
0
LINE
8
dimensions
62
255
10
-25.0
20
219.0
11
-24.5
21
217.1339745962
0
LINE
8
dimensions
62
255
10
-25.0
20
219.0
11
-25.5
21
217.1339745962
0
LINE
8
dimensions
62
255
10
-25.0
20
-64.0
11
-25.5
21
-62.1339745962
0
LINE
8
dimensions
62
255
10
-25.0
20
-64.0
11
-24.5
21
-62.1339745962
0
LINE
8
dimensions
62
255
10
-25.0
20
219.0
11
-25.0
21
-64.0
0
TEXT
8
dimensions
62
255
10
134.546875
20
234.1071428571
11
159.953125
21
234.1071428571
40
8
72
0.0
50
0.0
1
324.50mm
0
LINE
8
dimensions
62
255
10
-15.0
20
231.0
11
-15.0
21
223.0
0
LINE
8
dimensions
62
255
10
309.5
20
231.0
11
309.5
21
223.0
0
LINE
8
dimensions
62
255
10
-15.0
20
230.0
11
-13.1339745962
21
230.5
0
LINE
8
dimensions
62
255
10
-15.0
20
230.0
11
-13.1339745962
21
229.5
0
LINE
8
dimensions
62
255
10
309.5
20
230.0
11
307.6339745962
21
229.5
0
LINE
8
dimensions
62
255
10
309.5
20
230.0
11
307.6339745962
21
230.5
0
LINE
8
dimensions
62
255
10
-15.0
20
230.0
11
309.5
21
230.0
0
TEXT
8
dimensions
62
255
10
43.03125
20
14.1071428572
11
61.96875
21
14.1071428572
40
8
72
0.0
50
0.0
1
105.00mm
0
LINE
8
dimensions
62
255
10
0.0
20
10.0
11
1.8660254038
21
10.5
0
LINE
8
dimensions
62
255
10
0.0
20
10.0
11
1.8660254038
21
9.5
0
LINE
8
dimensions
62
255
10
105.0
20
10.0
11
103.1339745962
21
9.5
0
LINE
8
dimensions
62
255
10
105.0
20
10.0
11
103.1339745962
21
10.5
0
LINE
8
dimensions
62
255
10
0.0
20
10.0
11
105.0
21
10.0
0
TEXT
8
dimensions
62
255
10
122.5234375
20
14.1071428572
11
137.4765625
21
14.1071428572
40
8
72
0.0
50
0.0
1
50.00mm
0
LINE
8
dimensions
62
255
10
105.0
20
10.0
11
106.8660254038
21
10.5
0
LINE
8
dimensions
62
255
10
105.0
20
10.0
11
106.8660254038
21
9.5
0
LINE
8
dimensions
62
255
10
155.0
20
10.0
11
153.1339745962
21
9.5
0
LINE
8
dimensions
62
255
10
155.0
20
10.0
11
153.1339745962
21
10.5
0
LINE
8
dimensions
62
255
10
105.0
20
10.0
11
155.0
21
10.0
0
TEXT
8
dimensions
62
255
10
245.8928571429
20
68.2890625
11
245.8928571429
21
86.7109375
40
8
72
0.0
50
90.0
1
155.00mm
0
LINE
8
dimensions
62
255
10
251.0
20
0.0
11
250.0
21
0.0
0
LINE
8
dimensions
62
255
10
251.0
20
155.0
11
250.0
21
155.0
0
LINE
8
dimensions
62
255
10
250.0
20
0.0
11
249.5
21
1.8660254038
0
LINE
8
dimensions
62
255
10
250.0
20
0.0
11
250.5
21
1.8660254038
0
LINE
8
dimensions
62
255
10
250.0
20
155.0
11
250.5
21
153.1339745962
0
LINE
8
dimensions
62
255
10
250.0
20
155.0
11
249.5
21
153.1339745962
0
LINE
8
dimensions
62
255
10
250.0
20
0.0
11
250.0
21
155.0
0
ENDSEC
0
EOF
