0
SECTION
2
HEADER
9
$ACADVER
1
AC1006
0
ENDSEC
0
SECTION
2
ENTITIES
0
LINE
8
crease
62
3
10
160.0
20
0.0
11
160.0
21
147.0
0
LINE
8
crease
62
3
10
0.0
20
147.0
11
0.0
21
0.0
0
LINE
8
crease
62
3
10
265.0
20
0.0
11
265.0
21
147.0
0
LINE
8
crease
62
3
10
425.0
20
0.0
11
425.0
21
147.0
0
LINE
8
cut
62
1
10
529.5
20
0.0
11
529.5
21
147.0
0
LINE
8
cut
62
1
10
160.0
20
0.0
11
160.0
21
-65.5
0
LINE
8
cut
62
1
10
0.0
20
-65.5
11
0.0
21
0.0
0
LINE
8
cut
62
1
10
265.0
20
0.0
11
265.0
21
-53.0
0
LINE
8
cut
62
1
10
425.0
20
307.0
11
425.0
21
147.0
0
LINE
8
cut
62
1
10
425.0
20
-53.0
11
425.0
21
0.0
0
LINE
8
cut
62
1
10
529.5
20
147.0
11
529.5
21
307.0
0
LINE
8
cut
62
1
10
425.0
20
0.0
11
385.0
21
-52.5
0
LINE
8
cut
62
1
10
42.9833395016
20
-65.5
11
0.0
21
-65.5
0
LINE
8
cut
62
1
10
160.0
20
-65.5
11
117.0166604984
21
-65.5
0
LINE
8
cut
62
1
10
382.0
20
-65.5
11
308.0
21
-65.5
0
LINE
8
cut
62
1
10
305.0
20
-62.5
11
305.0
21
-52.5
0
LINE
8
cut
62
1
10
305.0
20
-52.5
11
265.0
21
0.0
0
LINE
8
crease
62
3
10
425.0
20
0.0
11
529.5
21
0.0
0
LINE
8
crease
62
3
10
0.0
20
0.0
11
160.0
21
0.0
0
LINE
8
crease
62
3
10
160.0
20
0.0
11
265.0
21
0.0
0
LINE
8
crease
62
3
10
265.0
20
0.0
11
425.0
21
0.0
0
LINE
8
cut
62
1
10
480.9833395016
20
-53.0
11
425.0
21
-53.0
0
LINE
8
cut
62
1
10
265.0
20
-53.0
11
209.0166604984
21
-53.0
0
LINE
8
cut
62
1
10
212.5
20
-40.0
11
160.0
21
0.0
0
LINE
8
cut
62
1
10
117.0166604984
20
-65.5
11
120.5
21
-52.5
0
LINE
8
cut
62
1
10
120.5
20
-52.5
11
39.5
21
-52.5
0
LINE
8
cut
62
1
10
39.5
20
-52.5
11
42.9833395016
21
-65.5
0
LINE
8
cut
62
1
10
529.5
20
0.0
11
477.5
21
-40.0
0
LINE
8
cut
62
1
10
477.5
20
-40.0
11
480.9833395016
21
-53.0
0
LINE
8
cut
62
1
10
212.5
20
-40.0
11
209.0166604984
21
-53.0
0
LINE
8
cut
62
1
10
385.0
20
-62.5
11
385.0
21
-52.5
0
LINE
8
cut
62
1
10
0.0
20
0.0
11
-15.0
21
4.0192378865
0
LINE
8
cut
62
1
10
-15.0
20
4.0192378865
11
-15.0
21
142.9807621135
0
LINE
8
cut
62
1
10
-15.0
20
142.9807621135
11
0.0
21
147.0
0
LINE
8
cut
62
1
10
433.0
20
321.0
11
521.5
21
321.0
0
LINE
8
cut
62
1
10
425.5
20
307.0
11
425.5
21
313.5
0
LINE
8
cut
62
1
10
529.0
20
307.0
11
529.0
21
313.5
0
LINE
8
crease
62
3
10
0.0
20
147.0
11
159.5
21
147.0
0
LINE
8
cut
62
1
10
160.0
20
147.0
11
159.5
21
147.0
0
LINE
8
crease
62
3
10
425.0
20
147.0
11
265.5
21
147.0
0
LINE
8
cut
62
1
10
265.0
20
147.0
11
265.5
21
147.0
0
LINE
8
cut
62
1
10
160.0
20
147.0
11
265.0
21
147.0
0
LINE
8
crease
62
3
10
434.0
20
306.0
11
520.5
21
306.0
0
LINE
8
cut
62
1
10
265.5
20
147.0
11
265.5
21
154.0
0
LINE
8
cut
62
1
10
265.5
20
154.0
11
268.5
21
157.0
0
LINE
8
cut
62
1
10
268.5
20
157.0
11
272.5192378865
21
172.0
0
LINE
8
cut
62
1
10
425.0
20
147.0
11
422.0
21
150.0
0
LINE
8
cut
62
1
10
422.0
20
150.0
11
420.0
21
172.0
0
LINE
8
cut
62
1
10
152.4807621135
20
172.0
11
5.0
21
172.0
0
LINE
8
cut
62
1
10
272.5192378865
20
172.0
11
420.0
21
172.0
0
LINE
8
cut
62
1
10
159.5
20
147.0
11
159.5
21
154.0
0
LINE
8
cut
62
1
10
159.5
20
154.0
11
156.5
21
157.0
0
LINE
8
cut
62
1
10
156.5
20
157.0
11
152.4807621135
21
172.0
0
LINE
8
cut
62
1
10
0.0
20
147.0
11
3.0
21
150.0
0
LINE
8
cut
62
1
10
3.0
20
150.0
11
5.0
21
172.0
0
LINE
8
cut
62
1
10
434.0
20
307.0
11
425.0
21
307.0
0
LINE
8
cut
62
1
10
529.5
20
307.0
11
520.5
21
307.0
0
LINE
8
cut
62
1
10
520.5
20
307.0
11
520.5
21
306.0
0
LINE
8
cut
62
1
10
434.0
20
306.0
11
434.0
21
307.0
0
LINE
8
crease
62
3
10
425.0
20
147.5
11
529.5
21
147.5
0
LINE
8
crease
62
3
10
514.75
20
226.75
11
529.5
21
226.75
0
LINE
8
crease
62
3
10
425.0
20
226.75
11
439.75
21
226.75
0
LINE
8
cut
62
1
10
439.75
20
226.75
11
439.75
21
182.75
0
LINE
8
cut
62
1
10
454.75
20
167.75
11
499.75
21
167.75
0
LINE
8
cut
62
1
10
514.75
20
182.75
11
514.75
21
226.75
0
LINE
8
perforation
62
2
10
237.5
20
49.0
11
187.5
21
49.0
0
LINE
8
perforation
62
2
10
177.5
20
147.0
11
177.5
21
59.0
0
LINE
8
perforation
62
2
10
247.5
20
147.0
11
247.5
21
59.0
0
ARC
8
cut
62
1
10
477.5
20
132.0
40
12.5
50
0.0
51
180.0
0
ARC
8
cut
62
1
10
308.0
20
-62.5
40
3.0
50
180.0
51
270.0
0
ARC
8
cut
62
1
10
382.0
20
-62.5
40
3.0
50
270.0
51
360.0
0
ARC
8
cut
62
1
10
521.5
20
313.5
40
7.5
50
0.0
51
90.0
0
ARC
8
cut
62
1
10
433.0
20
313.5
40
7.5
50
90.0
51
180.0
0
ARC
8
cut
62
1
10
454.75
20
182.75
40
15.0
50
180.0
51
270.0
0
ARC
8
cut
62
1
10
499.75
20
182.75
40
15.0
50
270.0
51
360.0
0
ARC
8
perforation
62
2
10
237.5
20
59.0
40
10.0
50
270.0
51
360.0
0
ARC
8
perforation
62
2
10
187.5
20
59.0
40
10.0
50
180.0
51
270.0
0
TEXT
8
dimensions
62
255
10
70.53125
20
14.1071428571
11
89.46875
21
14.1071428571
40
12
72
0.0
50
0.0
1
160.00mm
0
LINE
8
dimensions
62
255
10
0.0
20
10.0
11
1.8660254038
21
10.5
0
LINE
8
dimensions
62
255
10
0.0
20
10.0
11
1.8660254038
21
9.5
0
LINE
8
dimensions
62
255
10
160.0
20
10.0
11
158.1339745962
21
9.5
0
LINE
8
dimensions
62
255
10
160.0
20
10.0
11
158.1339745962
21
10.5
0
LINE
8
dimensions
62
255
10
0.0
20
10.0
11
160.0
21
10.0
0
TEXT
8
dimensions
62
255
10
203.2890625
20
14.1071428571
11
221.7109375
21
14.1071428571
40
12
72
0.0
50
0.0
1
105.00mm
0
LINE
8
dimensions
62
255
10
160.0
20
10.0
11
161.8660254038
21
10.5
0
LINE
8
dimensions
62
255
10
160.0
20
10.0
11
161.8660254038
21
9.5
0
LINE
8
dimensions
62
255
10
265.0
20
10.0
11
263.1339745962
21
9.5
0
LINE
8
dimensions
62
255
10
265.0
20
10.0
11
263.1339745962
21
10.5
0
LINE
8
dimensions
62
255
10
160.0
20
10.0
11
265.0
21
10.0
0
TEXT
8
dimensions
62
255
10
340.8928571428
20
64.2890625
11
340.8928571428
21
82.7109375
40
12
72
0.0
50
90.0
1
147.00mm
0
LINE
8
dimensions
62
255
10
346.0
20
0.0
11
345.0
21
0.0
0
LINE
8
dimensions
62
255
10
346.0
20
147.0
11
345.0
21
147.0
0
LINE
8
dimensions
62
255
10
345.0
20
0.0
11
344.5
21
1.8660254038
0
LINE
8
dimensions
62
255
10
345.0
20
0.0
11
345.5
21
1.8660254038
0
LINE
8
dimensions
62
255
10
345.0
20
147.0
11
345.5
21
145.1339745962
0
LINE
8
dimensions
62
255
10
345.0
20
147.0
11
344.5
21
145.1339745962
0
LINE
8
dimensions
62
255
10
345.0
20
0.0
11
345.0
21
147.0
0
TEXT
8
dimensions
62
255
10
-29.1071428571
20
118.28125
11
-29.1071428571
21
137.21875
40
12
72
0.0
50
90.0
1
386.50mm
0
LINE
8
dimensions
62
255
10
-26.0
20
321.0
11
-18.0
21
321.0
0
LINE
8
dimensions
62
255
10
-26.0
20
-65.5
11
-18.0
21
-65.5
0
LINE
8
dimensions
62
255
10
-25.0
20
321.0
11
-24.5
21
319.1339745962
0
LINE
8
dimensions
62
255
10
-25.0
20
321.0
11
-25.5
21
319.1339745962
0
LINE
8
dimensions
62
255
10
-25.0
20
-65.5
11
-25.5
21
-63.6339745962
0
LINE
8
dimensions
62
255
10
-25.0
20
-65.5
11
-24.5
21
-63.6339745962
0
LINE
8
dimensions
62
255
10
-25.0
20
321.0
11
-25.0
21
-65.5
0
TEXT
8
dimensions
62
255
10
244.546875
20
335.1071428572
11
269.953125
21
335.1071428572
40
12
72
0.0
50
0.0
1
544.50mm
0
LINE
8
dimensions
62
255
10
-15.0
20
332.0
11
-15.0
21
324.0
0
LINE
8
dimensions
62
255
10
529.5
20
332.0
11
529.5
21
324.0
0
LINE
8
dimensions
62
255
10
-15.0
20
331.0
11
-13.1339745962
21
331.5
0
LINE
8
dimensions
62
255
10
-15.0
20
331.0
11
-13.1339745962
21
330.5
0
LINE
8
dimensions
62
255
10
529.5
20
331.0
11
527.6339745962
21
330.5
0
LINE
8
dimensions
62
255
10
529.5
20
331.0
11
527.6339745962
21
331.5
0
LINE
8
dimensions
62
255
10
-15.0
20
331.0
11
529.5
21
331.0
0
ENDSEC
0
EOF
