0
SECTION
2
HEADER
9
$ACADVER
1
AC1006
0
ENDSEC
0
SECTION
2
ENTITIES
0
LINE
8
crease
62
3
10
-20.0
20
0.0
11
838.0
21
0.0
0
LINE
8
crease
62
3
10
300.0
20
-75.0
11
300.0
21
420.0
0
LINE
8
crease
62
3
10
838.0
20
380.0
11
-20.0
21
380.0
0
LINE
8
crease
62
3
10
0.0
20
420.0
11
0.0
21
-75.0
0
LINE
8
crease
62
3
10
360.0
20
-75.0
11
360.0
21
420.0
0
LINE
8
crease
62
3
10
420.0
20
-75.0
11
420.0
21
420.0
0
LINE
8
crease
62
3
10
720.0
20
-75.0
11
720.0
21
420.0
0
LINE
8
crease
62
3
10
780.0
20
-75.0
11
780.0
21
420.0
0
LINE
8
cut
62
1
10
838.0
20
-75.0
11
838.0
21
420.0
0
LINE
8
cut
62
1
10
-20.0
20
420.0
11
-20.0
21
-75.0
0
LINE
8
cut
62
1
10
838.0
20
420.0
11
-20.0
21
420.0
0
LINE
8
crease
62
3
10
-20.0
20
60.0
11
838.0
21
60.0
0
LINE
8
cut
62
1
10
-20.0
20
-75.0
11
838.0
21
-75.0
0
LINE
8
crease
62
3
10
240.0
20
-60.0
11
360.0
21
60.0
0
LINE
8
crease
62
3
10
360.0
20
60.0
11
480.0
21
-60.0
0
LINE
8
crease
62
3
10
660.0
20
-60.0
11
780.0
21
60.0
0
LINE
8
crease
62
3
10
780.0
20
60.0
11
838.0
21
2.0
0
LINE
8
crease
62
3
10
-20.0
20
20.0
11
60.0
21
-60.0
0
LINE
8
cut
62
1
10
60.0
20
-60.0
11
60.0
21
-75.0
0
LINE
8
cut
62
1
10
240.0
20
-60.0
11
240.0
21
-75.0
0
LINE
8
cut
62
1
10
480.0
20
-60.0
11
480.0
21
-75.0
0
LINE
8
cut
62
1
10
660.0
20
-60.0
11
660.0
21
-75.0
0
CIRCLE
8
cut
62
1
10
95.0
20
360.0
40
3.0
0
CIRCLE
8
cut
62
1
10
95.0
20
400.0
40
3.0
0
CIRCLE
8
cut
62
1
10
205.0
20
400.0
40
3.0
0
CIRCLE
8
cut
62
1
10
205.0
20
360.0
40
3.0
0
CIRCLE
8
cut
62
1
10
515.0
20
360.0
40
3.0
0
CIRCLE
8
cut
62
1
10
515.0
20
400.0
40
3.0
0
CIRCLE
8
cut
62
1
10
625.0
20
360.0
40
3.0
0
CIRCLE
8
cut
62
1
10
625.0
20
400.0
40
3.0
0
TEXT
8
dimensions
62
255
10
399.79
20
434.11
11
418.21
21
434.11
40
18
72
0.0
50
0.0
1
858.00mm
0
LINE
8
dimensions
62
255
10
-20.0
20
431.0
11
-20.0
21
423.0
0
LINE
8
dimensions
62
255
10
838.0
20
431.0
11
838.0
21
423.0
0
LINE
8
dimensions
62
255
10
-20.0
20
430.0
11
-18.13
21
430.5
0
LINE
8
dimensions
62
255
10
-20.0
20
430.0
11
-18.13
21
429.5
0
LINE
8
dimensions
62
255
10
838.0
20
430.0
11
836.13
21
429.5
0
LINE
8
dimensions
62
255
10
838.0
20
430.0
11
836.13
21
430.5
0
LINE
8
dimensions
62
255
10
-20.0
20
430.0
11
838.0
21
430.0
0
TEXT
8
dimensions
62
255
10
-34.11
20
163.03
11
-34.11
21
181.97
40
18
72
0.0
50
90.0
1
495.00mm
0
LINE
8
dimensions
62
255
10
-31.0
20
420.0
11
-23.0
21
420.0
0
LINE
8
dimensions
62
255
10
-31.0
20
-75.0
11
-23.0
21
-75.0
0
LINE
8
dimensions
62
255
10
-30.0
20
420.0
11
-29.5
21
418.13
0
LINE
8
dimensions
62
255
10
-30.0
20
420.0
11
-30.5
21
418.13
0
LINE
8
dimensions
62
255
10
-30.0
20
-75.0
11
-30.5
21
-73.13
0
LINE
8
dimensions
62
255
10
-30.0
20
-75.0
11
-29.5
21
-73.13
0
LINE
8
dimensions
62
255
10
-30.0
20
420.0
11
-30.0
21
-75.0
0
TEXT
8
dimensions
62
255
10
140.79
20
74.11
11
159.21
21
74.11
40
18
72
0.0
50
0.0
1
300.00mm
0
LINE
8
dimensions
62
255
10
0.0
20
70.0
11
1.87
21
70.5
0
LINE
8
dimensions
62
255
10
0.0
20
70.0
11
1.87
21
69.5
0
LINE
8
dimensions
62
255
10
300.0
20
70.0
11
298.13
21
69.5
0
LINE
8
dimensions
62
255
10
300.0
20
70.0
11
298.13
21
70.5
0
LINE
8
dimensions
62
255
10
0.0
20
70.0
11
300.0
21
70.0
0
TEXT
8
dimensions
62
255
10
352.52
20
74.11
11
367.48
21
74.11
40
18
72
0.0
50
0.0
1
120.00mm
0
LINE
8
dimensions
62
255
10
300.0
20
70.0
11
301.87
21
70.5
0
LINE
8
dimensions
62
255
10
300.0
20
70.0
11
301.87
21
69.5
0
LINE
8
dimensions
62
255
10
420.0
20
70.0
11
418.13
21
69.5
0
LINE
8
dimensions
62
255
10
420.0
20
70.0
11
418.13
21
70.5
0
LINE
8
dimensions
62
255
10
300.0
20
70.0
11
420.0
21
70.0
0
TEXT
8
dimensions
62
255
10
565.9
20
180.79
11
565.9
21
199.21
40
18
72
0.0
50
90.0
1
380.00mm
0
LINE
8
dimensions
62
255
10
570.0
20
0.0
11
569.5
21
1.87
0
LINE
8
dimensions
62
255
10
570.0
20
0.0
11
570.5
21
1.87
0
LINE
8
dimensions
62
255
10
570.0
20
380.0
11
570.5
21
378.13
0
LINE
8
dimensions
62
255
10
570.0
20
380.0
11
569.5
21
378.13
0
LINE
8
dimensions
62
255
10
570.0
20
0.0
11
570.0
21
380.0
0
TEXT
8
dimensions
62
255
10
145.89
20
392.52
11
145.89
21
407.48
40
18
72
0.0
50
90.0
1
40.00mm
0
LINE
8
dimensions
62
255
10
150.0
20
380.0
11
149.5
21
381.87
0
LINE
8
dimensions
62
255
10
150.0
20
380.0
11
150.5
21
381.87
0
LINE
8
dimensions
62
255
10
150.0
20
420.0
11
150.5
21
418.13
0
LINE
8
dimensions
62
255
10
150.0
20
420.0
11
149.5
21
418.13
0
LINE
8
dimensions
62
255
10
150.0
20
380.0
11
150.0
21
420.0
0
TEXT
8
dimensions
62
255
10
565.9
20
-44.98
11
565.9
21
-30.02
40
18
72
0.0
50
90.0
1
75.00mm
0
LINE
8
dimensions
62
255
10
570.0
20
-75.0
11
569.5
21
-73.13
0
LINE
8
dimensions
62
255
10
570.0
20
-75.0
11
570.5
21
-73.13
0
LINE
8
dimensions
62
255
10
570.0
20
0.0
11
570.5
21
-1.87
0
LINE
8
dimensions
62
255
10
570.0
20
0.0
11
569.5
21
-1.87
0
LINE
8
dimensions
62
255
10
570.0
20
-75.0
11
570.0
21
0.0
0
ENDSEC
0
EOF
