0
SECTION
2
HEADER
9
$ACADVER
1
AC1006
0
ENDSEC
0
SECTION
2
ENTITIES
0
LINE
8
crease
62
3
10
135.0
20
0.0
11
135.0
21
140.0
0
LINE
8
crease
62
3
10
205.0
20
140.0
11
205.0
21
0.0
0
LINE
8
crease
62
3
10
340.0
20
0.0
11
340.0
21
140.0
0
LINE
8
crease
62
3
10
0.0
20
140.0
11
0.0
21
0.0
0
LINE
8
cut
62
1
10
409.5
20
0.0
11
409.5
21
140.0
0
LINE
8
cut
62
1
10
135.0
20
0.0
11
135.0
21
-50.0
0
LINE
8
cut
62
1
10
205.0
20
210.0
11
205.0
21
140.0
0
LINE
8
cut
62
1
10
205.0
20
0.0
11
205.0
21
-48.75
0
LINE
8
cut
62
1
10
340.0
20
140.0
11
340.0
21
210.0
0
LINE
8
cut
62
1
10
340.0
20
-48.75
11
340.0
21
0.0
0
LINE
8
cut
62
1
10
0.0
20
-50.0
11
0.0
21
0.0
0
LINE
8
cut
62
1
10
409.5
20
140.0
11
409.5
21
148.0
0
LINE
8
cut
62
1
10
101.75
20
-35.0
11
33.25
21
-35.0
0
LINE
8
cut
62
1
10
340.0
20
0.0
11
306.25
21
-35.0
0
LINE
8
cut
62
1
10
37.2692378865
20
-50.0
11
0.0
21
-50.0
0
LINE
8
cut
62
1
10
135.0
20
-50.0
11
97.7307621135
21
-50.0
0
LINE
8
cut
62
1
10
303.25
20
-50.0
11
241.75
21
-50.0
0
LINE
8
cut
62
1
10
238.75
20
-47.0
11
238.75
21
-35.0
0
LINE
8
cut
62
1
10
238.75
20
-35.0
11
205.0
21
0.0
0
LINE
8
crease
62
3
10
340.0
20
0.0
11
409.5
21
0.0
0
LINE
8
crease
62
3
10
0.0
20
0.0
11
135.0
21
0.0
0
LINE
8
crease
62
3
10
135.0
20
0.0
11
205.0
21
0.0
0
LINE
8
crease
62
3
10
205.0
20
0.0
11
340.0
21
0.0
0
LINE
8
cut
62
1
10
379.0192378865
20
-48.75
11
340.0
21
-48.75
0
LINE
8
cut
62
1
10
205.0
20
-48.75
11
165.9807621135
21
-48.75
0
LINE
8
cut
62
1
10
170.0
20
-33.75
11
135.0
21
0.0
0
LINE
8
cut
62
1
10
97.7307621135
20
-50.0
11
101.75
21
-35.0
0
LINE
8
cut
62
1
10
33.25
20
-35.0
11
37.2692378865
21
-50.0
0
LINE
8
cut
62
1
10
409.5
20
0.0
11
375.0
21
-33.75
0
LINE
8
cut
62
1
10
375.0
20
-33.75
11
379.0192378865
21
-48.75
0
LINE
8
cut
62
1
10
170.0
20
-33.75
11
165.9807621135
21
-48.75
0
LINE
8
cut
62
1
10
306.25
20
-47.0
11
306.25
21
-35.0
0
LINE
8
cut
62
1
10
0.0
20
0.0
11
-15.0
21
4.0192378865
0
LINE
8
cut
62
1
10
-15.0
20
4.0192378865
11
-15.0
21
135.9807621135
0
LINE
8
cut
62
1
10
-15.0
20
135.9807621135
11
0.0
21
140.0
0
LINE
8
cut
62
1
10
135.0
20
140.0
11
0.0
21
140.0
0
LINE
8
crease
62
3
10
340.0
20
140.0
11
409.5
21
140.0
0
LINE
8
crease
62
3
10
205.0
20
140.0
11
135.5
21
140.0
0
LINE
8
cut
62
1
10
135.0
20
140.0
11
135.5
21
140.0
0
LINE
8
cut
62
1
10
135.5
20
140.0
11
135.5
21
148.0
0
LINE
8
cut
62
1
10
135.5
20
148.0
11
138.5
21
151.0
0
LINE
8
cut
62
1
10
138.5
20
151.0
11
146.2705265805
21
180.0
0
LINE
8
cut
62
1
10
205.0
20
140.0
11
202.0
21
143.0
0
LINE
8
cut
62
1
10
202.0
20
143.0
11
200.0
21
180.0
0
LINE
8
cut
62
1
10
398.7294734195
20
180.0
11
345.0
21
180.0
0
LINE
8
cut
62
1
10
146.2705265805
20
180.0
11
200.0
21
180.0
0
LINE
8
cut
62
1
10
409.5
20
148.0
11
406.5
21
151.0
0
LINE
8
cut
62
1
10
406.5
20
151.0
11
398.7294734195
21
180.0
0
LINE
8
cut
62
1
10
340.0
20
140.0
11
343.0
21
143.0
0
LINE
8
cut
62
1
10
343.0
20
143.0
11
345.0
21
180.0
0
LINE
8
crease
62
3
10
330.0
20
209.0
11
215.0
21
209.0
0
LINE
8
cut
62
1
10
210.5
20
224.0
11
334.5
21
224.0
0
LINE
8
cut
62
1
10
205.5
20
210.0
11
205.5
21
219.0
0
LINE
8
cut
62
1
10
339.5
20
210.0
11
339.5
21
219.0
0
LINE
8
cut
62
1
10
215.0
20
210.0
11
205.0
21
210.0
0
LINE
8
cut
62
1
10
340.0
20
210.0
11
330.0
21
210.0
0
LINE
8
cut
62
1
10
330.0
20
210.0
11
330.0
21
209.0
0
LINE
8
cut
62
1
10
215.0
20
209.0
11
215.0
21
210.0
0
LINE
8
crease
62
3
10
205.0
20
140.5
11
340.0
21
140.5
0
ARC
8
cut
62
1
10
241.75
20
-47.0
40
3.0
50
180.0
51
270.0
0
ARC
8
cut
62
1
10
303.25
20
-47.0
40
3.0
50
270.0
51
360.0
0
ARC
8
cut
62
1
10
334.5
20
219.0
40
5.0
50
0.0
51
90.0
0
ARC
8
cut
62
1
10
210.5
20
219.0
40
5.0
50
90.0
51
180.0
0
TEXT
8
dimensions
62
255
10
-29.1071428571
20
74.0390625
11
-29.1071428571
21
99.9609375
40
10
72
0.0
50
90.0
1
274.00mm
0
LINE
8
dimensions
62
255
10
-26.0
20
224.0
11
-18.0
21
224.0
0
LINE
8
dimensions
62
255
10
-26.0
20
-50.0
11
-18.0
21
-50.0
0
LINE
8
dimensions
62
255
10
-25.0
20
224.0
11
-24.5
21
222.1339745962
0
LINE
8
dimensions
62
255
10
-25.0
20
224.0
11
-25.5
21
222.1339745962
0
LINE
8
dimensions
62
255
10
-25.0
20
-50.0
11
-25.5
21
-48.1339745962
0
LINE
8
dimensions
62
255
10
-25.0
20
-50.0
11
-24.5
21
-48.1339745962
0
LINE
8
dimensions
62
255
10
-25.0
20
224.0
11
-25.0
21
-50.0
0
TEXT
8
dimensions
62
255
10
184.546875
20
239.1071428571
11
209.953125
21
239.1071428571
40
10
72
0.0
50
0.0
1
424.50mm
0
LINE
8
dimensions
62
255
10
-15.0
20
236.0
11
-15.0
21
228.0
0
LINE
8
dimensions
62
255
10
409.5
20
236.0
11
409.5
21
228.0
0
LINE
8
dimensions
62
255
10
-15.0
20
235.0
11
-13.1339745962
21
235.5
0
LINE
8
dimensions
62
255
10
-15.0
20
235.0
11
-13.1339745962
21
234.5
0
LINE
8
dimensions
62
255
10
409.5
20
235.0
11
407.6339745962
21
234.5
0
LINE
8
dimensions
62
255
10
409.5
20
235.0
11
407.6339745962
21
235.5
0
LINE
8
dimensions
62
255
10
-15.0
20
235.0
11
409.5
21
235.0
0
TEXT
8
dimensions
62
255
10
58.03125
20
14.1071428572
11
76.96875
21
14.1071428572
40
10
72
0.0
50
0.0
1
135.00mm
0
LINE
8
dimensions
62
255
10
0.0
20
10.0
11
1.8660254038
21
10.5
0
LINE
8
dimensions
62
255
10
0.0
20
10.0
11
1.8660254038
21
9.5
0
LINE
8
dimensions
62
255
10
135.0
20
10.0
11
133.1339745962
21
9.5
0
LINE
8
dimensions
62
255
10
135.0
20
10.0
11
133.1339745962
21
10.5
0
LINE
8
dimensions
62
255
10
0.0
20
10.0
11
135.0
21
10.0
0
TEXT
8
dimensions
62
255
10
162.5234375
20
14.1071428572
11
177.4765625
21
14.1071428572
40
10
72
0.0
50
0.0
1
70.00mm
0
LINE
8
dimensions
62
255
10
135.0
20
10.0
11
136.8660254038
21
10.5
0
LINE
8
dimensions
62
255
10
135.0
20
10.0
11
136.8660254038
21
9.5
0
LINE
8
dimensions
62
255
10
205.0
20
10.0
11
203.1339745962
21
9.5
0
LINE
8
dimensions
62
255
10
205.0
20
10.0
11
203.1339745962
21
10.5
0
LINE
8
dimensions
62
255
10
135.0
20
10.0
11
205.0
21
10.0
0
TEXT
8
dimensions
62
255
10
325.8928571429
20
60.7890625
11
325.8928571429
21
79.2109375
40
10
72
0.0
50
90.0
1
140.00mm
0
LINE
8
dimensions
62
255
10
331.0
20
0.0
11
330.0
21
0.0
0
LINE
8
dimensions
62
255
10
331.0
20
140.0
11
330.0
21
140.0
0
LINE
8
dimensions
62
255
10
330.0
20
0.0
11
329.5
21
1.8660254038
0
LINE
8
dimensions
62
255
10
330.0
20
0.0
11
330.5
21
1.8660254038
0
LINE
8
dimensions
62
255
10
330.0
20
140.0
11
330.5
21
138.1339745962
0
LINE
8
dimensions
62
255
10
330.0
20
140.0
11
329.5
21
138.1339745962
0
LINE
8
dimensions
62
255
10
330.0
20
0.0
11
330.0
21
140.0
0
ENDSEC
0
EOF
