0
SECTION
2
HEADER
9
$ACADVER
1
AC1006
0
ENDSEC
0
SECTION
2
ENTITIES
0
LINE
8
cut
62
1
10
-20.0
20
20.0
11
-20.0
21
470.0
0
LINE
8
cut
62
1
10
277.0
20
-83.0
11
143.0
21
-83.0
0
LINE
8
cut
62
1
10
3.0
20
-83.0
11
137.0
21
-83.0
0
LINE
8
cut
62
1
10
-20.0
20
20.0
11
0.0
21
0.0
0
LINE
8
cut
62
1
10
137.0
20
-83.0
11
137.0
21
-5.0
0
LINE
8
cut
62
1
10
137.0
20
-5.0
11
140.0
21
0.0
0
LINE
8
cut
62
1
10
143.0
20
-83.0
11
143.0
21
-5.0
0
LINE
8
cut
62
1
10
143.0
20
-5.0
11
140.0
21
0.0
0
LINE
8
cut
62
1
10
3.0
20
-83.0
11
3.0
21
-5.0
0
LINE
8
cut
62
1
10
3.0
20
-5.0
11
0.0
21
0.0
0
LINE
8
cut
62
1
10
-20.0
20
470.0
11
558.0
21
470.0
0
LINE
8
cut
62
1
10
277.0
20
-83.0
11
277.0
21
-5.0
0
LINE
8
cut
62
1
10
277.0
20
-5.0
11
280.0
21
0.0
0
LINE
8
cut
62
1
10
558.0
20
470.0
11
558.0
21
0.0
0
LINE
8
cut
62
1
10
555.0
20
-83.0
11
423.0
21
-83.0
0
LINE
8
cut
62
1
10
283.0
20
-83.0
11
417.0
21
-83.0
0
LINE
8
cut
62
1
10
417.0
20
-83.0
11
417.0
21
-5.0
0
LINE
8
cut
62
1
10
417.0
20
-5.0
11
420.0
21
0.0
0
LINE
8
cut
62
1
10
423.0
20
-83.0
11
423.0
21
-5.0
0
LINE
8
cut
62
1
10
423.0
20
-5.0
11
420.0
21
0.0
0
LINE
8
cut
62
1
10
555.0
20
-83.0
11
555.0
21
-5.0
0
LINE
8
cut
62
1
10
555.0
20
-5.0
11
558.0
21
0.0
0
LINE
8
cut
62
1
10
283.0
20
-83.0
11
283.0
21
-5.0
0
LINE
8
cut
62
1
10
283.0
20
-5.0
11
280.0
21
0.0
0
LINE
8
crease
62
3
10
140.0
20
470.0
11
140.0
21
0.0
0
LINE
8
crease
62
3
10
210.0
20
470.0
11
210.0
21
-83.0
0
LINE
8
crease
62
3
10
0.0
20
470.0
11
0.0
21
0.0
0
LINE
8
crease
62
3
10
-20.0
20
70.0
11
0.0
21
70.0
0
LINE
8
crease
62
3
10
140.0
20
70.0
11
210.0
21
70.0
0
LINE
8
crease
62
3
10
280.0
20
70.0
11
420.0
21
70.0
0
LINE
8
crease
62
3
10
490.0
20
70.0
11
558.0
21
70.0
0
LINE
8
crease
62
3
10
280.0
20
0.0
11
210.0
21
70.0
0
LINE
8
crease
62
3
10
140.0
20
0.0
11
210.0
21
0.0
0
LINE
8
crease
62
3
10
280.0
20
0.0
11
420.0
21
0.0
0
LINE
8
crease
62
3
10
490.0
20
0.0
11
558.0
21
0.0
0
LINE
8
crease
62
3
10
210.0
20
70.0
11
140.0
21
0.0
0
LINE
8
crease
62
3
10
558.0
20
430.0
11
490.0
21
430.0
0
LINE
8
crease
62
3
10
420.0
20
430.0
11
280.0
21
430.0
0
LINE
8
crease
62
3
10
210.0
20
430.0
11
140.0
21
430.0
0
LINE
8
crease
62
3
10
0.0
20
430.0
11
-20.0
21
430.0
0
LINE
8
crease
62
3
10
280.0
20
470.0
11
280.0
21
0.0
0
LINE
8
crease
62
3
10
420.0
20
470.0
11
420.0
21
0.0
0
LINE
8
crease
62
3
10
490.0
20
470.0
11
490.0
21
-83.0
0
LINE
8
crease
62
3
10
490.0
20
70.0
11
558.0
21
2.0
0
LINE
8
crease
62
3
10
490.0
20
70.0
11
420.0
21
0.0
0
LINE
8
crease
62
3
10
420.0
20
430.0
11
490.0
21
430.0
0
LINE
8
crease
62
3
10
420.0
20
70.0
11
490.0
21
70.0
0
LINE
8
crease
62
3
10
420.0
20
0.0
11
490.0
21
0.0
0
LINE
8
crease
62
3
10
0.0
20
430.0
11
140.0
21
430.0
0
LINE
8
crease
62
3
10
0.0
20
70.0
11
140.0
21
70.0
0
LINE
8
crease
62
3
10
0.0
20
0.0
11
140.0
21
0.0
0
LINE
8
crease
62
3
10
210.0
20
430.0
11
280.0
21
430.0
0
LINE
8
crease
62
3
10
210.0
20
70.0
11
280.0
21
70.0
0
LINE
8
crease
62
3
10
210.0
20
0.0
11
280.0
21
0.0
0
CIRCLE
8
cut
62
1
10
35.0
20
450.0
40
3.0
0
CIRCLE
8
cut
62
1
10
105.0
20
450.0
40
3.0
0
CIRCLE
8
cut
62
1
10
35.0
20
410.0
40
3.0
0
CIRCLE
8
cut
62
1
10
105.0
20
410.0
40
3.0
0
CIRCLE
8
cut
62
1
10
385.0
20
450.0
40
3.0
0
CIRCLE
8
cut
62
1
10
315.0
20
450.0
40
3.0
0
CIRCLE
8
cut
62
1
10
385.0
20
410.0
40
3.0
0
CIRCLE
8
cut
62
1
10
315.0
20
410.0
40
3.0
0
TEXT
8
dimensions
62
255
10
263.515625
20
484.1071428571
11
274.484375
21
484.1071428571
40
14
72
0.0
50
0.0
1
578.00mm
0
LINE
8
dimensions
62
255
10
-20.0
20
481.0
11
-20.0
21
473.0
0
LINE
8
dimensions
62
255
10
558.0
20
481.0
11
558.0
21
473.0
0
LINE
8
dimensions
62
255
10
-20.0
20
480.0
11
-18.1339745962
21
480.5
0
LINE
8
dimensions
62
255
10
-20.0
20
480.0
11
-18.1339745962
21
479.5
0
LINE
8
dimensions
62
255
10
558.0
20
480.0
11
556.1339745962
21
479.5
0
LINE
8
dimensions
62
255
10
558.0
20
480.0
11
556.1339745962
21
480.5
0
LINE
8
dimensions
62
255
10
-20.0
20
480.0
11
558.0
21
480.0
0
TEXT
8
dimensions
62
255
10
-34.1071428572
20
188.2734375
11
-34.1071428572
21
198.7265625
40
14
72
0.0
50
90.0
1
553.00mm
0
LINE
8
dimensions
62
255
10
-31.0
20
470.0
11
-23.0
21
470.0
0
LINE
8
dimensions
62
255
10
-31.0
20
-83.0
11
-23.0
21
-83.0
0
LINE
8
dimensions
62
255
10
-30.0
20
470.0
11
-29.5
21
468.1339745962
0
LINE
8
dimensions
62
255
10
-30.0
20
470.0
11
-30.5
21
468.1339745962
0
LINE
8
dimensions
62
255
10
-30.0
20
-83.0
11
-30.5
21
-81.1339745962
0
LINE
8
dimensions
62
255
10
-30.0
20
-83.0
11
-29.5
21
-81.1339745962
0
LINE
8
dimensions
62
255
10
-30.0
20
470.0
11
-30.0
21
-83.0
0
TEXT
8
dimensions
62
255
10
64.7734375
20
84.1071428571
11
75.2265625
21
84.1071428571
40
14
72
0.0
50
0.0
1
140.00mm
0
LINE
8
dimensions
62
255
10
0.0
20
80.0
11
1.8660254038
21
80.5
0
LINE
8
dimensions
62
255
10
0.0
20
80.0
11
1.8660254038
21
79.5
0
LINE
8
dimensions
62
255
10
140.0
20
80.0
11
138.1339745962
21
79.5
0
LINE
8
dimensions
62
255
10
140.0
20
80.0
11
138.1339745962
21
80.5
0
LINE
8
dimensions
62
255
10
0.0
20
80.0
11
140.0
21
80.0
0
TEXT
8
dimensions
62
255
10
204.7734374999
20
84.1071428572
11
215.2265624999
21
84.1071428572
40
14
72
0.0
50
0.0
1
140.00mm
0
LINE
8
dimensions
62
255
10
140.0
20
80.0
11
141.8660254037
21
80.5
0
LINE
8
dimensions
62
255
10
140.0
20
80.0
11
141.8660254037
21
79.5
0
LINE
8
dimensions
62
255
10
280.0
20
80.0
11
278.1339745962
21
79.5
0
LINE
8
dimensions
62
255
10
280.0
20
80.0
11
278.1339745962
21
80.5
0
LINE
8
dimensions
62
255
10
140.0
20
80.0
11
280.0
21
80.0
0
TEXT
8
dimensions
62
255
10
285.8928571428
20
209.7734375
11
285.8928571428
21
220.2265625
40
14
72
0.0
50
90.0
1
430.00mm
0
LINE
8
dimensions
62
255
10
290.0
20
0.0
11
289.5
21
1.8660254038
0
LINE
8
dimensions
62
255
10
290.0
20
0.0
11
290.5
21
1.8660254038
0
LINE
8
dimensions
62
255
10
290.0
20
430.0
11
290.5
21
428.1339745962
0
LINE
8
dimensions
62
255
10
290.0
20
430.0
11
289.5
21
428.1339745962
0
LINE
8
dimensions
62
255
10
290.0
20
0.0
11
290.0
21
430.0
0
ENDSEC
0
EOF
