0
SECTION
2
HEADER
9
$ACADVER
1
AC1006
0
ENDSEC
0
SECTION
2
ENTITIES
0
LINE
8
cut
62
1
10
-106.5
20
99.0
11
-52.0
21
99.0
0
LINE
8
cut
62
1
10
1.5
20
206.5
11
1.5
21
152.0
0
LINE
8
crease
62
3
10
0.5
20
100.0
11
0.5
21
150.0
0
LINE
8
crease
62
3
10
0.0
20
100.0
11
-50.0
21
100.0
0
LINE
8
cut
62
1
10
0.5
20
150.0
11
1.5
21
152.0
0
LINE
8
cut
62
1
10
-52.0
20
99.0
11
-50.0
21
100.0
0
LINE
8
cut
62
1
10
-50.0
20
100.0
11
-49.0
21
102.0
0
LINE
8
cut
62
1
10
-49.0
20
102.0
11
-44.5
21
145.0
0
LINE
8
cut
62
1
10
-44.5
20
145.0
11
-1.5
21
149.0
0
LINE
8
cut
62
1
10
-1.5
20
149.0
11
0.5
21
150.0
0
LINE
8
perforation
62
2
10
-44.5
20
145.0
11
0.5
21
100.0
0
LINE
8
cut
62
1
10
266.5
20
99.0
11
212.0
21
99.0
0
LINE
8
cut
62
1
10
158.5
20
206.5
11
158.5
21
152.0
0
LINE
8
crease
62
3
10
159.5
20
100.0
11
159.5
21
150.0
0
LINE
8
crease
62
3
10
160.0
20
100.0
11
210.0
21
100.0
0
LINE
8
cut
62
1
10
159.5
20
150.0
11
158.5
21
152.0
0
LINE
8
cut
62
1
10
212.0
20
99.0
11
210.0
21
100.0
0
LINE
8
cut
62
1
10
210.0
20
100.0
11
209.0
21
102.0
0
LINE
8
cut
62
1
10
209.0
20
102.0
11
204.5
21
145.0
0
LINE
8
cut
62
1
10
204.5
20
145.0
11
161.5
21
149.0
0
LINE
8
cut
62
1
10
161.5
20
149.0
11
159.5
21
150.0
0
LINE
8
perforation
62
2
10
204.5
20
145.0
11
159.5
21
100.0
0
LINE
8
cut
62
1
10
-106.5
20
1.0
11
-52.0
21
1.0
0
LINE
8
cut
62
1
10
1.5
20
-106.5
11
1.5
21
-52.0
0
LINE
8
crease
62
3
10
0.5
20
0.0
11
0.5
21
-50.0
0
LINE
8
crease
62
3
10
0.0
20
0.0
11
-50.0
21
0.0
0
LINE
8
cut
62
1
10
0.5
20
-50.0
11
1.5
21
-52.0
0
LINE
8
cut
62
1
10
-52.0
20
1.0
11
-50.0
21
0.0
0
LINE
8
cut
62
1
10
-50.0
20
0.0
11
-49.0
21
-2.0
0
LINE
8
cut
62
1
10
-49.0
20
-2.0
11
-44.5
21
-45.0
0
LINE
8
cut
62
1
10
-44.5
20
-45.0
11
-1.5
21
-49.0
0
LINE
8
cut
62
1
10
-1.5
20
-49.0
11
0.5
21
-50.0
0
LINE
8
perforation
62
2
10
-44.5
20
-45.0
11
0.5
21
0.0
0
LINE
8
cut
62
1
10
266.5
20
1.0
11
212.0
21
1.0
0
LINE
8
cut
62
1
10
158.5
20
-106.5
11
158.5
21
-52.0
0
LINE
8
crease
62
3
10
159.5
20
0.0
11
159.5
21
-50.0
0
LINE
8
crease
62
3
10
160.0
20
0.0
11
210.0
21
0.0
0
LINE
8
cut
62
1
10
159.5
20
-50.0
11
158.5
21
-52.0
0
LINE
8
cut
62
1
10
212.0
20
1.0
11
210.0
21
0.0
0
LINE
8
cut
62
1
10
210.0
20
0.0
11
209.0
21
-2.0
0
LINE
8
cut
62
1
10
209.0
20
-2.0
11
204.5
21
-45.0
0
LINE
8
cut
62
1
10
204.5
20
-45.0
11
161.5
21
-49.0
0
LINE
8
cut
62
1
10
161.5
20
-49.0
11
159.5
21
-50.0
0
LINE
8
perforation
62
2
10
204.5
20
-45.0
11
159.5
21
0.0
0
LINE
8
crease
62
3
10
160.0
20
100.0
11
0.0
21
100.0
0
LINE
8
crease
62
3
10
0.0
20
100.0
11
0.0
21
0.0
0
LINE
8
crease
62
3
10
159.5
20
150.0
11
0.5
21
150.0
0
LINE
8
crease
62
3
10
-50.0
20
100.0
11
-50.0
21
0.0
0
LINE
8
perforation
62
2
10
158.5
20
199.5
11
1.5
21
199.5
0
LINE
8
perforation
62
2
10
-99.5
20
99.0
11
-99.5
21
1.0
0
LINE
8
crease
62
3
10
160.0
20
100.0
11
160.0
21
0.0
0
LINE
8
crease
62
3
10
210.0
20
100.0
11
210.0
21
0.0
0
LINE
8
perforation
62
2
10
259.5
20
99.0
11
259.5
21
1.0
0
LINE
8
crease
62
3
10
160.0
20
0.0
11
0.0
21
0.0
0
LINE
8
crease
62
3
10
159.5
20
-50.0
11
0.5
21
-50.0
0
LINE
8
perforation
62
2
10
158.5
20
-99.5
11
1.5
21
-99.5
0
LINE
8
cut
62
1
10
8.5
20
213.5
11
151.5
21
213.5
0
LINE
8
cut
62
1
10
-113.5
20
8.0
11
-113.5
21
92.0
0
LINE
8
cut
62
1
10
273.5
20
8.0
11
273.5
21
92.0
0
LINE
8
cut
62
1
10
8.5
20
-113.5
11
151.5
21
-113.5
0
LINE
8
cut
62
1
10
1.5
20
-106.5
11
8.5
21
-106.5
0
LINE
8
cut
62
1
10
8.5
20
-106.5
11
8.5
21
-113.5
0
LINE
8
cut
62
1
10
-113.5
20
92.0
11
-106.5
21
92.0
0
LINE
8
cut
62
1
10
-106.5
20
92.0
11
-106.5
21
99.0
0
LINE
8
cut
62
1
10
1.5
20
206.5
11
8.5
21
206.5
0
LINE
8
cut
62
1
10
8.5
20
206.5
11
8.5
21
213.5
0
LINE
8
cut
62
1
10
151.5
20
213.5
11
151.5
21
206.5
0
LINE
8
cut
62
1
10
151.5
20
206.5
11
158.5
21
206.5
0
LINE
8
cut
62
1
10
266.5
20
99.0
11
266.5
21
92.0
0
LINE
8
cut
62
1
10
266.5
20
92.0
11
273.5
21
92.0
0
LINE
8
cut
62
1
10
266.5
20
1.0
11
266.5
21
8.0
0
LINE
8
cut
62
1
10
266.5
20
8.0
11
273.5
21
8.0
0
LINE
8
cut
62
1
10
151.5
20
-113.5
11
151.5
21
-106.5
0
LINE
8
cut
62
1
10
151.5
20
-106.5
11
158.5
21
-106.5
0
LINE
8
cut
62
1
10
-113.5
20
8.0
11
-106.5
21
8.0
0
LINE
8
cut
62
1
10
-106.5
20
8.0
11
-106.5
21
1.0
0
LINE
8
cut
62
1
10
-106.5
20
449.5
11
-52.0
21
449.5
0
LINE
8
cut
62
1
10
1.5
20
557.0
11
1.5
21
502.5
0
LINE
8
crease
62
3
10
0.5
20
450.5
11
0.5
21
500.5
0
LINE
8
crease
62
3
10
0.0
20
450.5
11
-50.0
21
450.5
0
LINE
8
cut
62
1
10
0.0
20
500.5
11
1.5
21
502.5
0
LINE
8
cut
62
1
10
-52.0
20
449.5
11
-50.0
21
450.5
0
LINE
8
cut
62
1
10
-50.0
20
450.5
11
-49.0
21
452.5
0
LINE
8
cut
62
1
10
-49.0
20
452.5
11
-44.5
21
495.5
0
LINE
8
cut
62
1
10
-44.5
20
495.5
11
-1.5
21
499.5
0
LINE
8
cut
62
1
10
-1.5
20
499.5
11
0.0
21
500.5
0
LINE
8
perforation
62
2
10
-44.5
20
495.5
11
0.5
21
450.5
0
LINE
8
cut
62
1
10
271.5
20
449.5
11
217.0
21
449.5
0
LINE
8
cut
62
1
10
163.5
20
557.0
11
163.5
21
502.5
0
LINE
8
crease
62
3
10
164.5
20
450.5
11
164.5
21
500.5
0
LINE
8
crease
62
3
10
165.0
20
450.5
11
215.0
21
450.5
0
LINE
8
cut
62
1
10
164.5
20
500.5
11
163.5
21
502.5
0
LINE
8
cut
62
1
10
217.0
20
449.5
11
215.0
21
450.5
0
LINE
8
cut
62
1
10
215.0
20
450.5
11
214.0
21
452.5
0
LINE
8
cut
62
1
10
214.0
20
452.5
11
209.5
21
495.5
0
LINE
8
cut
62
1
10
209.5
20
495.5
11
166.5
21
499.5
0
LINE
8
cut
62
1
10
166.5
20
499.5
11
164.5
21
500.5
0
LINE
8
perforation
62
2
10
209.5
20
495.5
11
164.5
21
450.5
0
LINE
8
cut
62
1
10
-106.5
20
348.0
11
-52.0
21
348.0
0
LINE
8
cut
62
1
10
1.5
20
240.5
11
1.5
21
295.0
0
LINE
8
crease
62
3
10
0.5
20
347.0
11
0.5
21
297.0
0
LINE
8
crease
62
3
10
0.0
20
347.0
11
-50.0
21
347.0
0
LINE
8
cut
62
1
10
0.5
20
297.0
11
1.5
21
295.0
0
LINE
8
cut
62
1
10
-52.0
20
348.0
11
-50.0
21
347.0
0
LINE
8
cut
62
1
10
-50.0
20
347.0
11
-49.0
21
345.0
0
LINE
8
cut
62
1
10
-49.0
20
345.0
11
-44.5
21
302.0
0
LINE
8
cut
62
1
10
-44.5
20
302.0
11
-1.5
21
298.0
0
LINE
8
cut
62
1
10
-1.5
20
298.0
11
0.5
21
297.0
0
LINE
8
perforation
62
2
10
-44.5
20
302.0
11
0.5
21
347.0
0
LINE
8
cut
62
1
10
271.5
20
348.0
11
217.0
21
348.0
0
LINE
8
cut
62
1
10
163.5
20
240.5
11
163.5
21
295.0
0
LINE
8
crease
62
3
10
164.5
20
347.0
11
164.5
21
297.0
0
LINE
8
crease
62
3
10
165.0
20
347.0
11
215.0
21
347.0
0
LINE
8
cut
62
1
10
164.5
20
297.0
11
163.5
21
295.0
0
LINE
8
cut
62
1
10
217.0
20
348.0
11
215.0
21
347.0
0
LINE
8
cut
62
1
10
215.0
20
347.0
11
214.0
21
345.0
0
LINE
8
cut
62
1
10
214.0
20
345.0
11
209.5
21
302.0
0
LINE
8
cut
62
1
10
209.5
20
302.0
11
166.5
21
298.0
0
LINE
8
cut
62
1
10
166.5
20
298.0
11
164.5
21
297.0
0
LINE
8
perforation
62
2
10
209.5
20
302.0
11
164.5
21
347.0
0
LINE
8
crease
62
3
10
165.0
20
450.5
11
0.0
21
450.5
0
LINE
8
crease
62
3
10
0.0
20
450.5
11
0.0
21
347.0
0
LINE
8
crease
62
3
10
164.5
20
500.5
11
0.0
21
500.5
0
LINE
8
crease
62
3
10
-50.0
20
450.5
11
-50.0
21
347.0
0
LINE
8
perforation
62
2
10
163.5
20
550.0
11
1.5
21
550.0
0
LINE
8
perforation
62
2
10
-99.5
20
449.5
11
-99.5
21
348.0
0
LINE
8
crease
62
3
10
165.0
20
450.5
11
165.0
21
347.0
0
LINE
8
crease
62
3
10
215.0
20
450.5
11
215.0
21
347.0
0
LINE
8
perforation
62
2
10
264.5
20
449.5
11
264.5
21
348.0
0
LINE
8
crease
62
3
10
165.0
20
347.0
11
0.0
21
347.0
0
LINE
8
crease
62
3
10
164.5
20
297.0
11
0.5
21
297.0
0
LINE
8
perforation
62
2
10
163.5
20
247.5
11
1.5
21
247.5
0
LINE
8
cut
62
1
10
8.5
20
564.0
11
156.5
21
564.0
0
LINE
8
cut
62
1
10
-113.5
20
355.0
11
-113.5
21
442.5
0
LINE
8
cut
62
1
10
278.5
20
355.0
11
278.5
21
442.5
0
LINE
8
cut
62
1
10
8.5
20
233.5
11
156.5
21
233.5
0
LINE
8
cut
62
1
10
1.5
20
240.5
11
8.5
21
240.5
0
LINE
8
cut
62
1
10
8.5
20
240.5
11
8.5
21
233.5
0
LINE
8
cut
62
1
10
-113.5
20
442.5
11
-106.5
21
442.5
0
LINE
8
cut
62
1
10
-106.5
20
442.5
11
-106.5
21
449.5
0
LINE
8
cut
62
1
10
1.5
20
557.0
11
8.5
21
557.0
0
LINE
8
cut
62
1
10
8.5
20
557.0
11
8.5
21
564.0
0
LINE
8
cut
62
1
10
156.5
20
564.0
11
156.5
21
557.0
0
LINE
8
cut
62
1
10
156.5
20
557.0
11
163.5
21
557.0
0
LINE
8
cut
62
1
10
271.5
20
449.5
11
271.5
21
442.5
0
LINE
8
cut
62
1
10
271.5
20
442.5
11
278.5
21
442.5
0
LINE
8
cut
62
1
10
271.5
20
348.0
11
271.5
21
355.0
0
LINE
8
cut
62
1
10
271.5
20
355.0
11
278.5
21
355.0
0
LINE
8
cut
62
1
10
156.5
20
233.5
11
156.5
21
240.5
0
LINE
8
cut
62
1
10
156.5
20
240.5
11
163.5
21
240.5
0
LINE
8
cut
62
1
10
-113.5
20
355.0
11
-106.5
21
355.0
0
LINE
8
cut
62
1
10
-106.5
20
355.0
11
-106.5
21
348.0
0
TEXT
8
dimensions
62
255
10
71.53125
20
12.7380952381
11
104.6083047945
21
12.7380952381
40
14
72
0.0
50
0.0
1
160.00mm
0
LINE
8
dimensions
62
255
10
0.0
20
10.0
11
1.8660254038
21
10.5
0
LINE
8
dimensions
62
255
10
0.0
20
10.0
11
1.8660254038
21
9.5
0
LINE
8
dimensions
62
255
10
160.0
20
10.0
11
158.1339745962
21
9.5
0
LINE
8
dimensions
62
255
10
160.0
20
10.0
11
158.1339745962
21
10.5
0
LINE
8
dimensions
62
255
10
0.0
20
10.0
11
160.0
21
10.0
0
TEXT
8
dimensions
62
255
10
147.2619047619
20
43.859375
11
147.2619047619
21
70.8491010274
40
14
72
0.0
50
90.0
1
100.00mm
0
LINE
8
dimensions
62
255
10
150.0
20
0.0
11
149.5
21
1.8660254038
0
LINE
8
dimensions
62
255
10
150.0
20
0.0
11
150.5
21
1.8660254038
0
LINE
8
dimensions
62
255
10
150.0
20
100.0
11
150.5
21
98.1339745962
0
LINE
8
dimensions
62
255
10
150.0
20
100.0
11
149.5
21
98.1339745962
0
LINE
8
dimensions
62
255
10
150.0
20
0.0
11
150.0
21
100.0
0
TEXT
8
dimensions
62
255
10
180.015625
20
12.738095238
11
202.6491866438
21
12.738095238
40
14
72
0.0
50
0.0
1
50.00mm
0
LINE
8
dimensions
62
255
10
160.0
20
10.0
11
161.8660254038
21
10.5
0
LINE
8
dimensions
62
255
10
160.0
20
10.0
11
161.8660254038
21
9.5
0
LINE
8
dimensions
62
255
10
210.0
20
10.0
11
208.1339745962
21
9.5
0
LINE
8
dimensions
62
255
10
210.0
20
10.0
11
208.1339745962
21
10.5
0
LINE
8
dimensions
62
255
10
160.0
20
10.0
11
210.0
21
10.0
0
TEXT
8
dimensions
62
255
10
71.359375
20
226.2380952381
11
104.4364297945
21
226.2380952381
40
14
72
0.0
50
0.0
1
387.00mm
0
LINE
8
dimensions
62
255
10
-113.5
20
224.5
11
-113.5
21
216.5
0
LINE
8
dimensions
62
255
10
273.5
20
224.5
11
273.5
21
216.5
0
LINE
8
dimensions
62
255
10
-113.5
20
223.5
11
-111.6339745962
21
224.0
0
LINE
8
dimensions
62
255
10
-113.5
20
223.5
11
-111.6339745962
21
223.0
0
LINE
8
dimensions
62
255
10
273.5
20
223.5
11
271.6339745962
21
223.0
0
LINE
8
dimensions
62
255
10
273.5
20
223.5
11
271.6339745962
21
224.0
0
LINE
8
dimensions
62
255
10
-113.5
20
223.5
11
273.5
21
223.5
0
TEXT
8
dimensions
62
255
10
-126.2380952381
20
43.6875
11
-126.2380952381
21
70.6772260274
40
14
72
0.0
50
90.0
1
327.00mm
0
LINE
8
dimensions
62
255
10
-124.5
20
213.5
11
-116.5
21
213.5
0
LINE
8
dimensions
62
255
10
-124.5
20
-113.5
11
-116.5
21
-113.5
0
LINE
8
dimensions
62
255
10
-123.5
20
213.5
11
-123.0
21
211.6339745962
0
LINE
8
dimensions
62
255
10
-123.5
20
213.5
11
-124.0
21
211.6339745962
0
LINE
8
dimensions
62
255
10
-123.5
20
-113.5
11
-124.0
21
-111.6339745962
0
LINE
8
dimensions
62
255
10
-123.5
20
-113.5
11
-123.0
21
-111.6339745962
0
LINE
8
dimensions
62
255
10
-123.5
20
213.5
11
-123.5
21
-113.5
0
TEXT
8
dimensions
62
255
10
74.03125
20
359.7380952381
11
107.1083047945
21
359.7380952381
40
14
72
0.0
50
0.0
1
165.00mm
0
LINE
8
dimensions
62
255
10
0.0
20
357.0
11
1.8660254038
21
357.5
0
LINE
8
dimensions
62
255
10
0.0
20
357.0
11
1.8660254038
21
356.5
0
LINE
8
dimensions
62
255
10
165.0
20
357.0
11
163.1339745962
21
356.5
0
LINE
8
dimensions
62
255
10
165.0
20
357.0
11
163.1339745962
21
357.5
0
LINE
8
dimensions
62
255
10
0.0
20
357.0
11
165.0
21
357.0
0
TEXT
8
dimensions
62
255
10
152.2619047619
20
392.609375
11
152.2619047619
21
419.5991010274
40
14
72
0.0
50
90.0
1
103.50mm
0
LINE
8
dimensions
62
255
10
155.0
20
347.0
11
154.5
21
348.8660254038
0
LINE
8
dimensions
62
255
10
155.0
20
347.0
11
155.5
21
348.8660254038
0
LINE
8
dimensions
62
255
10
155.0
20
450.5
11
155.5
21
448.6339745962
0
LINE
8
dimensions
62
255
10
155.0
20
450.5
11
154.5
21
448.6339745962
0
LINE
8
dimensions
62
255
10
155.0
20
347.0
11
155.0
21
450.5
0
TEXT
8
dimensions
62
255
10
185.015625
20
359.738095238
11
207.6491866438
21
359.738095238
40
14
72
0.0
50
0.0
1
50.00mm
0
LINE
8
dimensions
62
255
10
165.0
20
357.0
11
166.8660254038
21
357.5
0
LINE
8
dimensions
62
255
10
165.0
20
357.0
11
166.8660254038
21
356.5
0
LINE
8
dimensions
62
255
10
215.0
20
357.0
11
213.1339745962
21
356.5
0
LINE
8
dimensions
62
255
10
215.0
20
357.0
11
213.1339745962
21
357.5
0
LINE
8
dimensions
62
255
10
165.0
20
357.0
11
215.0
21
357.0
0
TEXT
8
dimensions
62
255
10
73.859375
20
576.7380952381
11
106.9364297945
21
576.7380952381
40
14
72
0.0
50
0.0
1
392.00mm
0
LINE
8
dimensions
62
255
10
-113.5
20
575.0
11
-113.5
21
567.0
0
LINE
8
dimensions
62
255
10
278.5
20
575.0
11
278.5
21
567.0
0
LINE
8
dimensions
62
255
10
-113.5
20
574.0
11
-111.6339745962
21
574.5
0
LINE
8
dimensions
62
255
10
-113.5
20
574.0
11
-111.6339745962
21
573.5
0
LINE
8
dimensions
62
255
10
278.5
20
574.0
11
276.6339745962
21
573.5
0
LINE
8
dimensions
62
255
10
278.5
20
574.0
11
276.6339745962
21
574.5
0
LINE
8
dimensions
62
255
10
-113.5
20
574.0
11
278.5
21
574.0
0
TEXT
8
dimensions
62
255
10
-126.2380952381
20
392.4375
11
-126.2380952381
21
419.4272260274
40
14
72
0.0
50
90.0
1
330.50mm
0
LINE
8
dimensions
62
255
10
-124.5
20
564.0
11
-116.5
21
564.0
0
LINE
8
dimensions
62
255
10
-124.5
20
233.5
11
-116.5
21
233.5
0
LINE
8
dimensions
62
255
10
-123.5
20
564.0
11
-123.0
21
562.1339745962
0
LINE
8
dimensions
62
255
10
-123.5
20
564.0
11
-124.0
21
562.1339745962
0
LINE
8
dimensions
62
255
10
-123.5
20
233.5
11
-124.0
21
235.3660254038
0
LINE
8
dimensions
62
255
10
-123.5
20
233.5
11
-123.0
21
235.3660254038
0
LINE
8
dimensions
62
255
10
-123.5
20
564.0
11
-123.5
21
233.5
0
ENDSEC
0
EOF
