0
SECTION
2
HEADER
9
$ACADVER
1
AC1006
0
ENDSEC
0
SECTION
2
ENTITIES
0
LINE
8
crease
62
3
10
110.0
20
0.0
11
110.0
21
170.0
0
LINE
8
crease
62
3
10
188.0
20
170.0
11
188.0
21
0.0
0
LINE
8
crease
62
3
10
298.0
20
0.0
11
298.0
21
170.0
0
LINE
8
crease
62
3
10
0.0
20
170.0
11
0.0
21
0.0
0
LINE
8
cut
62
1
10
375.5
20
0.0
11
375.5
21
170.0
0
LINE
8
cut
62
1
10
110.0
20
248.0
11
110.0
21
170.0
0
LINE
8
cut
62
1
10
0.0
20
170.0
11
0.0
21
248.0
0
LINE
8
cut
62
1
10
0.0
20
0.0
11
-15.0
21
15.0
0
LINE
8
cut
62
1
10
-15.0
20
15.0
11
-15.0
21
165.9807621135
0
LINE
8
cut
62
1
10
-15.0
20
165.9807621135
11
0.0
21
170.0
0
LINE
8
cut
62
1
10
101.8682720164
20
-7.4246212025
11
108.0
21
-13.5563491861
0
LINE
8
cut
62
1
10
108.0
20
-13.5563491861
11
108.0
21
-52.0
0
LINE
8
cut
62
1
10
192.5494105033
20
-52.0
11
235.5
21
-52.0
0
LINE
8
cut
62
1
10
296.0
20
-52.0
11
272.0
21
-52.0
0
LINE
8
cut
62
1
10
4.5494105033
20
-52.0
11
47.5
21
-52.0
0
LINE
8
cut
62
1
10
108.0
20
-52.0
11
84.0
21
-52.0
0
LINE
8
cut
62
1
10
84.0
20
-52.0
11
71.0
21
-39.0
0
LINE
8
crease
62
3
10
71.0
20
-39.0
11
102.2218254069
21
-7.7781745931
0
LINE
8
cut
62
1
10
0.0
20
0.0
11
4.5494105033
21
-52.0
0
LINE
8
cut
62
1
10
47.5
20
-52.0
11
55.5
21
-44.0
0
LINE
8
cut
62
1
10
55.5
20
-44.0
11
55.0
21
-39.0
0
LINE
8
crease
62
3
10
375.5
20
0.0
11
298.0
21
0.0
0
LINE
8
crease
62
3
10
188.0
20
0.0
11
110.0
21
0.0
0
LINE
8
crease
62
3
10
188.0
20
0.0
11
297.2928932188
21
0.0
0
LINE
8
crease
62
3
10
0.0
20
0.0
11
109.2928932188
21
0.0
0
LINE
8
cut
62
1
10
312.1948391364
20
-39.0
11
337.0
21
-39.0
0
LINE
8
cut
62
1
10
124.1948391364
20
-39.0
11
149.0
21
-39.0
0
LINE
8
cut
62
1
10
243.0
20
-39.0
11
259.0
21
-39.0
0
LINE
8
cut
62
1
10
55.0
20
-39.0
11
71.0
21
-39.0
0
LINE
8
cut
62
1
10
289.8682720164
20
-7.4246212025
11
296.0
21
-13.5563491861
0
LINE
8
cut
62
1
10
296.0
20
-13.5563491861
11
296.0
21
-52.0
0
LINE
8
cut
62
1
10
272.0
20
-52.0
11
259.0
21
-39.0
0
LINE
8
crease
62
3
10
259.0
20
-39.0
11
290.2218254069
21
-7.7781745931
0
LINE
8
cut
62
1
10
188.0
20
0.0
11
192.5494105033
21
-52.0
0
LINE
8
cut
62
1
10
235.5
20
-52.0
11
243.5
21
-44.0
0
LINE
8
cut
62
1
10
243.5
20
-44.0
11
243.0
21
-39.0
0
LINE
8
cut
62
1
10
110.0
20
0.0
11
124.1948391364
21
-39.0
0
LINE
8
cut
62
1
10
149.0
20
-39.0
11
188.0
21
0.0
0
LINE
8
cut
62
1
10
298.0
20
0.0
11
312.1948391364
21
-39.0
0
LINE
8
cut
62
1
10
337.0
20
-39.0
11
375.5
21
0.0
0
LINE
8
cut
62
1
10
109.4212082587
20
0.1283150398
11
101.8682720164
21
-7.4246212025
0
LINE
8
cut
62
1
10
297.4212082587
20
0.1283150398
11
289.8682720164
21
-7.4246212025
0
LINE
8
cut
62
1
10
188.0
20
170.0
11
298.0
21
170.0
0
LINE
8
crease
62
3
10
375.5
20
170.0
11
298.5
21
170.0
0
LINE
8
cut
62
1
10
298.0
20
170.0
11
298.5
21
170.0
0
LINE
8
crease
62
3
10
110.0
20
170.0
11
187.5
21
170.0
0
LINE
8
cut
62
1
10
188.0
20
170.0
11
187.5
21
170.0
0
LINE
8
cut
62
1
10
187.5
20
170.0
11
187.5
21
177.0
0
LINE
8
cut
62
1
10
187.5
20
177.0
11
184.5
21
180.0
0
LINE
8
cut
62
1
10
184.5
20
180.0
11
175.1217782649
21
215.0
0
LINE
8
cut
62
1
10
110.0
20
170.0
11
113.0
21
173.0
0
LINE
8
cut
62
1
10
113.0
20
173.0
11
115.0
21
215.0
0
LINE
8
cut
62
1
10
310.8782217351
20
215.0
11
370.5
21
215.0
0
LINE
8
cut
62
1
10
175.1217782649
20
215.0
11
115.0
21
215.0
0
LINE
8
cut
62
1
10
298.5
20
170.0
11
298.5
21
177.0
0
LINE
8
cut
62
1
10
298.5
20
177.0
11
301.5
21
180.0
0
LINE
8
cut
62
1
10
301.5
20
180.0
11
310.8782217351
21
215.0
0
LINE
8
cut
62
1
10
375.5
20
170.0
11
372.5
21
173.0
0
LINE
8
cut
62
1
10
372.5
20
173.0
11
370.5
21
215.0
0
LINE
8
crease
62
3
10
9.0
20
247.0
11
101.0
21
247.0
0
LINE
8
cut
62
1
10
5.5
20
262.0
11
104.5
21
262.0
0
LINE
8
cut
62
1
10
0.5
20
248.0
11
0.5
21
257.0
0
LINE
8
cut
62
1
10
109.5
20
248.0
11
109.5
21
257.0
0
LINE
8
cut
62
1
10
101.0
20
248.0
11
110.0
21
248.0
0
LINE
8
cut
62
1
10
0.0
20
248.0
11
9.0
21
248.0
0
LINE
8
cut
62
1
10
9.0
20
248.0
11
9.0
21
247.0
0
LINE
8
cut
62
1
10
101.0
20
247.0
11
101.0
21
248.0
0
LINE
8
crease
62
3
10
110.0
20
170.5
11
0.0
21
170.5
0
ARC
8
cut
62
1
10
109.6697312814
20
-0.1202079829
40
0.3514646293
50
20.0000000031
51
135.0
0
ARC
8
cut
62
1
10
297.6697312814
20
-0.1202079829
40
0.3514646293
50
20.0000000031
51
135.0
0
ARC
8
cut
62
1
10
104.5
20
257.0
40
5.0
50
0.0
51
90.0
0
ARC
8
cut
62
1
10
5.5
20
257.0
40
5.0
50
90.0
51
180.0
0
TEXT
8
dimensions
62
255
10
-29.1071428571
20
92.0390625
11
-29.1071428571
21
117.9609375
40
10
72
0.0
50
90.0
1
314.00mm
0
LINE
8
dimensions
62
255
10
-26.0
20
262.0
11
-18.0
21
262.0
0
LINE
8
dimensions
62
255
10
-26.0
20
-52.0
11
-18.0
21
-52.0
0
LINE
8
dimensions
62
255
10
-25.0
20
262.0
11
-24.5
21
260.1339745962
0
LINE
8
dimensions
62
255
10
-25.0
20
262.0
11
-25.5
21
260.1339745962
0
LINE
8
dimensions
62
255
10
-25.0
20
-52.0
11
-25.5
21
-50.1339745962
0
LINE
8
dimensions
62
255
10
-25.0
20
-52.0
11
-24.5
21
-50.1339745962
0
LINE
8
dimensions
62
255
10
-25.0
20
262.0
11
-25.0
21
-52.0
0
TEXT
8
dimensions
62
255
10
167.546875
20
277.1071428571
11
192.953125
21
277.1071428571
40
10
72
0.0
50
0.0
1
390.50mm
0
LINE
8
dimensions
62
255
10
-15.0
20
274.0
11
-15.0
21
266.0
0
LINE
8
dimensions
62
255
10
375.5
20
274.0
11
375.5
21
266.0
0
LINE
8
dimensions
62
255
10
-15.0
20
273.0
11
-13.1339745962
21
273.5
0
LINE
8
dimensions
62
255
10
-15.0
20
273.0
11
-13.1339745962
21
272.5
0
LINE
8
dimensions
62
255
10
375.5
20
273.0
11
373.6339745962
21
272.5
0
LINE
8
dimensions
62
255
10
375.5
20
273.0
11
373.6339745962
21
273.5
0
LINE
8
dimensions
62
255
10
-15.0
20
273.0
11
375.5
21
273.0
0
TEXT
8
dimensions
62
255
10
45.53125
20
14.1071428572
11
64.46875
21
14.1071428572
40
10
72
0.0
50
0.0
1
110.00mm
0
LINE
8
dimensions
62
255
10
0.0
20
10.0
11
1.8660254038
21
10.5
0
LINE
8
dimensions
62
255
10
0.0
20
10.0
11
1.8660254038
21
9.5
0
LINE
8
dimensions
62
255
10
110.0
20
10.0
11
108.1339745962
21
9.5
0
LINE
8
dimensions
62
255
10
110.0
20
10.0
11
108.1339745962
21
10.5
0
LINE
8
dimensions
62
255
10
0.0
20
10.0
11
110.0
21
10.0
0
TEXT
8
dimensions
62
255
10
141.5234375
20
14.1071428572
11
156.4765625
21
14.1071428572
40
10
72
0.0
50
0.0
1
78.00mm
0
LINE
8
dimensions
62
255
10
110.0
20
10.0
11
111.8660254038
21
10.5
0
LINE
8
dimensions
62
255
10
110.0
20
10.0
11
111.8660254038
21
9.5
0
LINE
8
dimensions
62
255
10
188.0
20
10.0
11
186.1339745962
21
9.5
0
LINE
8
dimensions
62
255
10
188.0
20
10.0
11
186.1339745962
21
10.5
0
LINE
8
dimensions
62
255
10
110.0
20
10.0
11
188.0
21
10.0
0
TEXT
8
dimensions
62
255
10
283.8928571429
20
75.7890625
11
283.8928571429
21
94.2109375
40
10
72
0.0
50
90.0
1
170.00mm
0
LINE
8
dimensions
62
255
10
289.0
20
0.0
11
288.0
21
0.0
0
LINE
8
dimensions
62
255
10
289.0
20
170.0
11
288.0
21
170.0
0
LINE
8
dimensions
62
255
10
288.0
20
0.0
11
287.5
21
1.8660254038
0
LINE
8
dimensions
62
255
10
288.0
20
0.0
11
288.5
21
1.8660254038
0
LINE
8
dimensions
62
255
10
288.0
20
170.0
11
288.5
21
168.1339745962
0
LINE
8
dimensions
62
255
10
288.0
20
170.0
11
287.5
21
168.1339745962
0
LINE
8
dimensions
62
255
10
288.0
20
0.0
11
288.0
21
170.0
0
ENDSEC
0
EOF
