0
SECTION
2
HEADER
9
$ACADVER
1
AC1006
0
ENDSEC
0
SECTION
2
ENTITIES
0
LINE
8
crease
62
3
10
0.0
20
0.0
11
0.0
21
100.0
0
LINE
8
crease
62
3
10
-0.5
20
170.0
11
-0.5
21
270.0
0
LINE
8
cut
62
1
10
-0.5
20
170.0
11
-70.0
21
170.0
0
LINE
8
cut
62
1
10
-40.5
20
-35.0
11
-40.5
21
0.0
0
LINE
8
cut
62
1
10
-40.5
20
100.0
11
-40.5
21
135.0
0
LINE
8
cut
62
1
10
-70.0
20
170.0
11
-70.0
21
249.354278529
0
LINE
8
cut
62
1
10
-70.0
20
100.0
11
0.0
21
100.0
0
LINE
8
cut
62
1
10
-10.5
20
170.0
11
-20.5
21
135.0
0
LINE
8
cut
62
1
10
-32.0
20
60.0
11
-35.0
21
80.0
0
LINE
8
cut
62
1
10
-35.0
20
20.0
11
-32.0
21
40.0
0
LINE
8
cut
62
1
10
-70.0
20
0.0
11
0.0
21
0.0
0
LINE
8
cut
62
1
10
-10.5
20
-70.0
11
-20.5
21
-35.0
0
LINE
8
cut
62
1
10
0.0
20
282.5
11
0.0
21
270.0
0
LINE
8
crease
62
3
10
-0.5
20
-70.0
11
-0.5
21
0.0
0
LINE
8
crease
62
3
10
-0.5
20
100.0
11
-0.5
21
170.0
0
LINE
8
crease
62
3
10
200.0
20
0.0
11
200.0
21
100.0
0
LINE
8
crease
62
3
10
200.5
20
170.0
11
200.5
21
270.0
0
LINE
8
cut
62
1
10
200.5
20
170.0
11
270.0
21
170.0
0
LINE
8
cut
62
1
10
240.5
20
-35.0
11
240.5
21
0.0
0
LINE
8
cut
62
1
10
240.5
20
100.0
11
240.5
21
135.0
0
LINE
8
cut
62
1
10
270.0
20
100.0
11
200.0
21
100.0
0
LINE
8
cut
62
1
10
210.5
20
170.0
11
220.5
21
135.0
0
LINE
8
cut
62
1
10
232.0
20
60.0
11
235.0
21
80.0
0
LINE
8
cut
62
1
10
235.0
20
20.0
11
232.0
21
40.0
0
LINE
8
cut
62
1
10
270.0
20
0.0
11
200.0
21
0.0
0
LINE
8
cut
62
1
10
210.5
20
-70.0
11
220.5
21
-35.0
0
LINE
8
cut
62
1
10
200.0
20
282.5
11
200.0
21
270.0
0
LINE
8
crease
62
3
10
200.5
20
-70.0
11
200.5
21
0.0
0
LINE
8
crease
62
3
10
200.5
20
100.0
11
200.5
21
170.0
0
LINE
8
cut
62
1
10
210.5
20
-70.0
11
-10.5
21
-70.0
0
LINE
8
cut
62
1
10
195.0
20
287.5
11
5.0
21
287.5
0
LINE
8
crease
62
3
10
0.0
20
270.0
11
200.0
21
270.0
0
LINE
8
crease
62
3
10
200.5
20
170.0
11
-0.5
21
170.0
0
LINE
8
crease
62
3
10
0.0
20
100.0
11
200.0
21
100.0
0
LINE
8
crease
62
3
10
200.0
20
0.0
11
0.0
21
0.0
0
LINE
8
cut
62
1
10
0.0
20
270.0
11
-0.5
21
270.0
0
LINE
8
cut
62
1
10
-0.5
20
270.0
11
-61.7364817767
21
259.2023560591
0
LINE
8
cut
62
1
10
270.0
20
170.0
11
270.0
21
249.354278529
0
LINE
8
cut
62
1
10
200.5
20
270.0
11
261.7364817767
21
259.2023560591
0
LINE
8
cut
62
1
10
-70.0
20
0.0
11
-70.0
21
100.0
0
LINE
8
cut
62
1
10
270.0
20
0.0
11
270.0
21
100.0
0
LINE
8
cut
62
1
10
200.0
20
270.0
11
200.5
21
270.0
0
ARC
8
cut
62
1
10
-30.5
20
-35.0
40
10.0
50
180.0
51
360.0
0
ARC
8
cut
62
1
10
-30.5
20
135.0
40
10.0
50
0.0
51
180.0
0
ARC
8
cut
62
1
10
-60.0
20
249.354278529
40
10.0
50
100.0000000002
51
180.0
0
ARC
8
cut
62
1
10
5.0
20
282.5
40
5.0
50
90.0
51
180.0
0
ARC
8
cut
62
1
10
230.5
20
-35.0
40
10.0
50
180.0
51
360.0
0
ARC
8
cut
62
1
10
230.5
20
135.0
40
10.0
50
0.0
51
180.0
0
ARC
8
cut
62
1
10
195.0
20
282.5
40
5.0
50
0.0
51
90.0
0
ARC
8
cut
62
1
10
260.0
20
249.354278529
40
10.0
50
0.0
51
79.9999999998
0
TEXT
8
dimensions
62
255
10
-84.1
20
99.28
11
-84.1
21
123.5939931741
40
8
72
0.0
50
90.0
1
357.50mm
0
LINE
8
dimensions
62
255
10
-81.0
20
287.5
11
-73.0
21
287.5
0
LINE
8
dimensions
62
255
10
-81.0
20
-70.0
11
-67.0
21
-70.0
0
LINE
8
dimensions
62
255
10
-80.0
20
287.5
11
-79.5
21
285.63
0
LINE
8
dimensions
62
255
10
-80.0
20
287.5
11
-80.5
21
285.63
0
LINE
8
dimensions
62
255
10
-80.0
20
-70.0
11
-80.5
21
-68.13
0
LINE
8
dimensions
62
255
10
-80.0
20
-70.0
11
-79.5
21
-68.13
0
LINE
8
dimensions
62
255
10
-80.0
20
287.5
11
-80.0
21
-70.0
0
TEXT
8
dimensions
62
255
10
90.79
20
301.61
11
115.1039931741
21
301.61
40
8
72
0.0
50
0.0
1
340.00mm
0
LINE
8
dimensions
62
255
10
-70.0
20
298.5
11
-70.0
21
290.5
0
LINE
8
dimensions
62
255
10
270.0
20
298.5
11
270.0
21
290.5
0
LINE
8
dimensions
62
255
10
-70.0
20
297.5
11
-68.13
21
298.0
0
LINE
8
dimensions
62
255
10
-70.0
20
297.5
11
-68.13
21
297.0
0
LINE
8
dimensions
62
255
10
270.0
20
297.5
11
268.13
21
297.0
0
LINE
8
dimensions
62
255
10
270.0
20
297.5
11
268.13
21
298.0
0
LINE
8
dimensions
62
255
10
-70.0
20
297.5
11
270.0
21
297.5
0
TEXT
8
dimensions
62
255
10
90.53
20
14.11
11
114.8439931741
21
14.11
40
8
72
0.0
50
0.0
1
200.00mm
0
LINE
8
dimensions
62
255
10
0.0
20
10.0
11
1.87
21
10.5
0
LINE
8
dimensions
62
255
10
0.0
20
10.0
11
1.87
21
9.5
0
LINE
8
dimensions
62
255
10
200.0
20
10.0
11
198.13
21
9.5
0
LINE
8
dimensions
62
255
10
200.0
20
10.0
11
198.13
21
10.5
0
LINE
8
dimensions
62
255
10
0.0
20
10.0
11
200.0
21
10.0
0
TEXT
8
dimensions
62
255
10
185.89
20
40.79
11
185.89
21
65.1039931741
40
8
72
0.0
50
90.0
1
100.00mm
0
LINE
8
dimensions
62
255
10
190.0
20
0.0
11
189.5
21
1.87
0
LINE
8
dimensions
62
255
10
190.0
20
0.0
11
190.5
21
1.87
0
LINE
8
dimensions
62
255
10
190.0
20
100.0
11
190.5
21
98.13
0
LINE
8
dimensions
62
255
10
190.0
20
100.0
11
189.5
21
98.13
0
LINE
8
dimensions
62
255
10
190.0
20
0.0
11
190.0
21
100.0
0
TEXT
8
dimensions
62
255
10
185.89
20
135.52
11
185.89
21
147.6701706485
40
8
72
0.0
50
90.0
1
70.00mm
0
LINE
8
dimensions
62
255
10
190.0
20
100.0
11
189.5
21
101.87
0
LINE
8
dimensions
62
255
10
190.0
20
100.0
11
190.5
21
101.87
0
LINE
8
dimensions
62
255
10
190.0
20
170.0
11
190.5
21
168.13
0
LINE
8
dimensions
62
255
10
190.0
20
170.0
11
189.5
21
168.13
0
LINE
8
dimensions
62
255
10
190.0
20
100.0
11
190.0
21
170.0
0
ENDSEC
0
EOF
