0
SECTION
2
HEADER
9
$ACADVER
1
AC1006
0
ENDSEC
0
SECTION
2
ENTITIES
0
LINE
8
crease
62
3
10
100.0
20
0.0
11
100.0
21
150.0
0
LINE
8
crease
62
3
10
150.0
20
150.0
11
150.0
21
0.0
0
LINE
8
crease
62
3
10
250.0
20
0.0
11
250.0
21
150.0
0
LINE
8
crease
62
3
10
0.0
20
150.0
11
0.0
21
0.0
0
LINE
8
cut
62
1
10
299.5
20
0.0
11
299.5
21
150.0
0
LINE
8
cut
62
1
10
150.0
20
200.0
11
150.0
21
150.0
0
LINE
8
cut
62
1
10
250.0
20
150.0
11
250.0
21
200.0
0
LINE
8
cut
62
1
10
299.5
20
150.0
11
299.5
21
157.0
0
LINE
8
cut
62
1
10
0.0
20
0.0
11
-13.0
21
13.0
0
LINE
8
cut
62
1
10
-13.0
20
13.0
11
-13.0
21
146.5166604984
0
LINE
8
cut
62
1
10
-13.0
20
146.5166604984
11
0.0
21
150.0
0
LINE
8
cut
62
1
10
94.6966991411
20
-4.5961940777
11
98.0
21
-7.8994949366
0
LINE
8
cut
62
1
10
98.0
20
-7.8994949366
11
98.0
21
-36.0
0
LINE
8
cut
62
1
10
153.1495918869
20
-36.0
11
194.5
21
-36.0
0
LINE
8
cut
62
1
10
248.0
20
-36.0
11
236.0
21
-36.0
0
LINE
8
cut
62
1
10
3.1495918869
20
-36.0
11
44.5
21
-36.0
0
LINE
8
cut
62
1
10
98.0
20
-36.0
11
86.0
21
-36.0
0
LINE
8
cut
62
1
10
86.0
20
-36.0
11
75.0
21
-25.0
0
LINE
8
cut
62
1
10
250.0
20
150.0
11
253.0
21
153.0
0
LINE
8
crease
62
3
10
75.0
20
-25.0
11
95.0502525317
21
-4.9497474683
0
LINE
8
cut
62
1
10
0.0
20
0.0
11
3.1495918869
21
-36.0
0
LINE
8
cut
62
1
10
44.5
20
-36.0
11
50.5
21
-30.0
0
LINE
8
cut
62
1
10
50.5
20
-30.0
11
50.0
21
-25.0
0
LINE
8
crease
62
3
10
299.5
20
0.0
11
250.0
21
0.0
0
LINE
8
crease
62
3
10
150.0
20
0.0
11
100.0
21
0.0
0
LINE
8
crease
62
3
10
150.0
20
0.0
11
249.2928932188
21
0.0
0
LINE
8
crease
62
3
10
0.0
20
0.0
11
99.2928932188
21
0.0
0
LINE
8
cut
62
1
10
259.0992558567
20
-25.0
11
275.0
21
-25.0
0
LINE
8
cut
62
1
10
109.0992558567
20
-25.0
11
125.0
21
-25.0
0
LINE
8
cut
62
1
10
200.0
20
-25.0
11
225.0
21
-25.0
0
LINE
8
cut
62
1
10
50.0
20
-25.0
11
75.0
21
-25.0
0
LINE
8
cut
62
1
10
244.6966991411
20
-4.5961940777
11
248.0
21
-7.8994949366
0
LINE
8
cut
62
1
10
248.0
20
-7.8994949366
11
248.0
21
-36.0
0
LINE
8
cut
62
1
10
236.0
20
-36.0
11
225.0
21
-25.0
0
LINE
8
crease
62
3
10
225.0
20
-25.0
11
245.0502525317
21
-4.9497474683
0
LINE
8
cut
62
1
10
150.0
20
0.0
11
153.1495918869
21
-36.0
0
LINE
8
cut
62
1
10
194.5
20
-36.0
11
200.5
21
-30.0
0
LINE
8
cut
62
1
10
200.5
20
-30.0
11
200.0
21
-25.0
0
LINE
8
cut
62
1
10
100.0
20
0.0
11
109.0992558567
21
-25.0
0
LINE
8
cut
62
1
10
125.0
20
-25.0
11
150.0
21
0.0
0
LINE
8
cut
62
1
10
250.0
20
0.0
11
259.0992558567
21
-25.0
0
LINE
8
cut
62
1
10
275.0
20
-25.0
11
299.5
21
0.0
0
LINE
8
cut
62
1
10
99.4212082587
20
0.1283150398
11
94.6966991411
21
-4.5961940777
0
LINE
8
cut
62
1
10
249.4212082587
20
0.1283150398
11
244.6966991411
21
-4.5961940777
0
LINE
8
cut
62
1
10
100.0
20
150.0
11
0.0
21
150.0
0
LINE
8
crease
62
3
10
250.0
20
150.0
11
299.5
21
150.0
0
LINE
8
crease
62
3
10
150.0
20
150.0
11
100.5
21
150.0
0
LINE
8
cut
62
1
10
100.0
20
150.0
11
100.5
21
150.0
0
LINE
8
cut
62
1
10
100.5
20
150.0
11
100.5
21
157.0
0
LINE
8
cut
62
1
10
100.5
20
157.0
11
103.5
21
160.0
0
LINE
8
cut
62
1
10
103.5
20
160.0
11
109.3948822335
21
182.0
0
LINE
8
cut
62
1
10
150.0
20
150.0
11
147.0
21
153.0
0
LINE
8
cut
62
1
10
147.0
20
153.0
11
145.0
21
182.0
0
LINE
8
cut
62
1
10
290.6051177665
20
182.0
11
255.0
21
182.0
0
LINE
8
cut
62
1
10
109.3948822335
20
182.0
11
145.0
21
182.0
0
LINE
8
cut
62
1
10
299.5
20
157.0
11
296.5
21
160.0
0
LINE
8
cut
62
1
10
296.5
20
160.0
11
290.6051177665
21
182.0
0
LINE
8
cut
62
1
10
253.0
20
153.0
11
255.0
21
182.0
0
LINE
8
crease
62
3
10
241.0
20
199.0
11
159.0
21
199.0
0
LINE
8
cut
62
1
10
155.5
20
214.0
11
244.5
21
214.0
0
LINE
8
cut
62
1
10
150.5
20
200.0
11
150.5
21
209.0
0
LINE
8
cut
62
1
10
249.5
20
200.0
11
249.5
21
209.0
0
LINE
8
cut
62
1
10
159.0
20
200.0
11
150.0
21
200.0
0
LINE
8
cut
62
1
10
250.0
20
200.0
11
241.0
21
200.0
0
LINE
8
cut
62
1
10
241.0
20
200.0
11
241.0
21
199.0
0
LINE
8
cut
62
1
10
159.0
20
199.0
11
159.0
21
200.0
0
LINE
8
crease
62
3
10
150.0
20
150.5
11
250.0
21
150.5
0
ARC
8
cut
62
1
10
99.6697312814
20
-0.1202079829
40
0.3514646293
50
20.0000000031
51
135.0
0
ARC
8
cut
62
1
10
249.6697312814
20
-0.1202079829
40
0.3514646293
50
20.0000000031
51
135.0
0
ARC
8
cut
62
1
10
244.5
20
209.0
40
5.0
50
0.0
51
90.0
0
ARC
8
cut
62
1
10
155.5
20
209.0
40
5.0
50
90.0
51
180.0
0
TEXT
8
dimensions
62
255
10
-27.1071428571
20
76.0390625
11
-27.1071428571
21
101.9609375
40
8
72
0.0
50
90.0
1
250.00mm
0
LINE
8
dimensions
62
255
10
-24.0
20
214.0
11
-16.0
21
214.0
0
LINE
8
dimensions
62
255
10
-24.0
20
-36.0
11
-16.0
21
-36.0
0
LINE
8
dimensions
62
255
10
-23.0
20
214.0
11
-22.5
21
212.1339745962
0
LINE
8
dimensions
62
255
10
-23.0
20
214.0
11
-23.5
21
212.1339745962
0
LINE
8
dimensions
62
255
10
-23.0
20
-36.0
11
-23.5
21
-34.1339745962
0
LINE
8
dimensions
62
255
10
-23.0
20
-36.0
11
-22.5
21
-34.1339745962
0
LINE
8
dimensions
62
255
10
-23.0
20
214.0
11
-23.0
21
-36.0
0
TEXT
8
dimensions
62
255
10
130.546875
20
229.1071428571
11
155.953125
21
229.1071428571
40
8
72
0.0
50
0.0
1
312.50mm
0
LINE
8
dimensions
62
255
10
-13.0
20
226.0
11
-13.0
21
218.0
0
LINE
8
dimensions
62
255
10
299.5
20
226.0
11
299.5
21
218.0
0
LINE
8
dimensions
62
255
10
-13.0
20
225.0
11
-11.1339745962
21
225.5
0
LINE
8
dimensions
62
255
10
-13.0
20
225.0
11
-11.1339745962
21
224.5
0
LINE
8
dimensions
62
255
10
299.5
20
225.0
11
297.6339745962
21
224.5
0
LINE
8
dimensions
62
255
10
299.5
20
225.0
11
297.6339745962
21
225.5
0
LINE
8
dimensions
62
255
10
-13.0
20
225.0
11
299.5
21
225.0
0
TEXT
8
dimensions
62
255
10
40.53125
20
14.1071428572
11
59.46875
21
14.1071428572
40
8
72
0.0
50
0.0
1
100.00mm
0
LINE
8
dimensions
62
255
10
0.0
20
10.0
11
1.8660254038
21
10.5
0
LINE
8
dimensions
62
255
10
0.0
20
10.0
11
1.8660254038
21
9.5
0
LINE
8
dimensions
62
255
10
100.0
20
10.0
11
98.1339745962
21
9.5
0
LINE
8
dimensions
62
255
10
100.0
20
10.0
11
98.1339745962
21
10.5
0
LINE
8
dimensions
62
255
10
0.0
20
10.0
11
100.0
21
10.0
0
TEXT
8
dimensions
62
255
10
117.5234375
20
14.1071428572
11
132.4765625
21
14.1071428572
40
8
72
0.0
50
0.0
1
50.00mm
0
LINE
8
dimensions
62
255
10
100.0
20
10.0
11
101.8660254038
21
10.5
0
LINE
8
dimensions
62
255
10
100.0
20
10.0
11
101.8660254038
21
9.5
0
LINE
8
dimensions
62
255
10
150.0
20
10.0
11
148.1339745962
21
9.5
0
LINE
8
dimensions
62
255
10
150.0
20
10.0
11
148.1339745962
21
10.5
0
LINE
8
dimensions
62
255
10
100.0
20
10.0
11
150.0
21
10.0
0
TEXT
8
dimensions
62
255
10
235.8928571429
20
65.7890625
11
235.8928571429
21
84.2109375
40
8
72
0.0
50
90.0
1
150.00mm
0
LINE
8
dimensions
62
255
10
241.0
20
0.0
11
240.0
21
0.0
0
LINE
8
dimensions
62
255
10
241.0
20
150.0
11
240.0
21
150.0
0
LINE
8
dimensions
62
255
10
240.0
20
0.0
11
239.5
21
1.8660254038
0
LINE
8
dimensions
62
255
10
240.0
20
0.0
11
240.5
21
1.8660254038
0
LINE
8
dimensions
62
255
10
240.0
20
150.0
11
240.5
21
148.1339745962
0
LINE
8
dimensions
62
255
10
240.0
20
150.0
11
239.5
21
148.1339745962
0
LINE
8
dimensions
62
255
10
240.0
20
0.0
11
240.0
21
150.0
0
ENDSEC
0
EOF
