0
SECTION
2
HEADER
9
$ACADVER
1
AC1006
0
ENDSEC
0
SECTION
2
ENTITIES
0
LINE
8
crease
62
3
10
175.0
20
0.0
11
175.0
21
230.0
0
LINE
8
crease
62
3
10
249.0
20
230.0
11
249.0
21
0.0
0
LINE
8
crease
62
3
10
424.0
20
0.0
11
424.0
21
230.0
0
LINE
8
crease
62
3
10
0.0
20
230.0
11
0.0
21
0.0
0
LINE
8
cut
62
1
10
497.5
20
0.0
11
497.5
21
230.0
0
LINE
8
cut
62
1
10
175.0
20
304.0
11
175.0
21
230.0
0
LINE
8
cut
62
1
10
175.0
20
-74.0
11
175.0
21
0.0
0
LINE
8
cut
62
1
10
249.0
20
230.0
11
249.0
21
304.0
0
LINE
8
cut
62
1
10
249.0
20
0.0
11
249.0
21
-74.0
0
LINE
8
cut
62
1
10
424.0
20
304.0
11
424.0
21
230.0
0
LINE
8
cut
62
1
10
424.0
20
-74.0
11
424.0
21
0.0
0
LINE
8
cut
62
1
10
497.5
20
304.0
11
497.5
21
230.0
0
LINE
8
cut
62
1
10
497.5
20
-74.0
11
497.5
21
0.0
0
LINE
8
cut
62
1
10
424.0
20
-74.0
11
497.5
21
-74.0
0
LINE
8
cut
62
1
10
251.0
20
-74.0
11
422.0
21
-74.0
0
LINE
8
cut
62
1
10
175.0
20
-74.0
11
249.0
21
-74.0
0
LINE
8
cut
62
1
10
2.0
20
-74.0
11
173.0
21
-74.0
0
LINE
8
crease
62
3
10
173.0
20
-0.5
11
2.0
21
-0.5
0
LINE
8
cut
62
1
10
0.0
20
0.0
11
2.0
21
0.0
0
LINE
8
cut
62
1
10
173.0
20
0.0
11
175.0
21
0.0
0
LINE
8
cut
62
1
10
249.0
20
0.0
11
251.0
21
0.0
0
LINE
8
cut
62
1
10
422.0
20
0.0
11
424.0
21
0.0
0
LINE
8
crease
62
3
10
497.5
20
0.0
11
424.0
21
0.0
0
LINE
8
crease
62
3
10
249.0
20
0.0
11
175.0
21
0.0
0
LINE
8
crease
62
3
10
422.0
20
-1.0
11
251.0
21
-1.0
0
LINE
8
cut
62
1
10
2.0
20
230.0
11
2.0
21
304.0
0
LINE
8
cut
62
1
10
2.0
20
0.0
11
2.0
21
-74.0
0
LINE
8
cut
62
1
10
173.0
20
304.0
11
173.0
21
230.0
0
LINE
8
cut
62
1
10
173.0
20
-74.0
11
173.0
21
0.0
0
LINE
8
cut
62
1
10
251.0
20
230.0
11
251.0
21
304.0
0
LINE
8
cut
62
1
10
251.0
20
0.0
11
251.0
21
-74.0
0
LINE
8
cut
62
1
10
422.0
20
304.0
11
422.0
21
230.0
0
LINE
8
cut
62
1
10
422.0
20
-74.0
11
422.0
21
0.0
0
LINE
8
cut
62
1
10
424.0
20
304.0
11
497.5
21
304.0
0
LINE
8
cut
62
1
10
251.0
20
304.0
11
422.0
21
304.0
0
LINE
8
cut
62
1
10
175.0
20
304.0
11
249.0
21
304.0
0
LINE
8
cut
62
1
10
2.0
20
304.0
11
173.0
21
304.0
0
LINE
8
crease
62
3
10
173.0
20
230.5
11
2.0
21
230.5
0
LINE
8
cut
62
1
10
0.0
20
230.0
11
2.0
21
230.0
0
LINE
8
cut
62
1
10
173.0
20
230.0
11
175.0
21
230.0
0
LINE
8
cut
62
1
10
249.0
20
230.0
11
251.0
21
230.0
0
LINE
8
cut
62
1
10
422.0
20
230.0
11
424.0
21
230.0
0
LINE
8
crease
62
3
10
497.5
20
230.0
11
424.0
21
230.0
0
LINE
8
crease
62
3
10
249.0
20
230.0
11
175.0
21
230.0
0
LINE
8
crease
62
3
10
422.0
20
231.0
11
251.0
21
231.0
0
LINE
8
cut
62
1
10
0.0
20
0.0
11
-15.0
21
4.0192378865
0
LINE
8
cut
62
1
10
-15.0
20
4.0192378865
11
-15.0
21
225.9807621135
0
LINE
8
cut
62
1
10
-15.0
20
225.9807621135
11
0.0
21
230.0
0
TEXT
8
dimensions
62
255
10
-29.1071428571
20
102.0390625
11
-29.1071428571
21
127.9609375
40
12
72
0.0
50
90.0
1
378.00mm
0
LINE
8
dimensions
62
255
10
-26.0
20
304.0
11
-18.0
21
304.0
0
LINE
8
dimensions
62
255
10
-26.0
20
-74.0
11
-18.0
21
-74.0
0
LINE
8
dimensions
62
255
10
-25.0
20
304.0
11
-24.5
21
302.1339745962
0
LINE
8
dimensions
62
255
10
-25.0
20
304.0
11
-25.5
21
302.1339745962
0
LINE
8
dimensions
62
255
10
-25.0
20
-74.0
11
-25.5
21
-72.1339745962
0
LINE
8
dimensions
62
255
10
-25.0
20
-74.0
11
-24.5
21
-72.1339745962
0
LINE
8
dimensions
62
255
10
-25.0
20
304.0
11
-25.0
21
-74.0
0
TEXT
8
dimensions
62
255
10
228.546875
20
318.1071428571
11
253.953125
21
318.1071428571
40
12
72
0.0
50
0.0
1
512.50mm
0
LINE
8
dimensions
62
255
10
-15.0
20
315.0
11
-15.0
21
307.0
0
LINE
8
dimensions
62
255
10
497.5
20
315.0
11
497.5
21
307.0
0
LINE
8
dimensions
62
255
10
-15.0
20
314.0
11
-13.1339745962
21
314.5
0
LINE
8
dimensions
62
255
10
-15.0
20
314.0
11
-13.1339745962
21
313.5
0
LINE
8
dimensions
62
255
10
497.5
20
314.0
11
495.6339745962
21
313.5
0
LINE
8
dimensions
62
255
10
497.5
20
314.0
11
495.6339745962
21
314.5
0
LINE
8
dimensions
62
255
10
-15.0
20
314.0
11
497.5
21
314.0
0
TEXT
8
dimensions
62
255
10
78.03125
20
14.1071428572
11
96.96875
21
14.1071428572
40
12
72
0.0
50
0.0
1
175.00mm
0
LINE
8
dimensions
62
255
10
0.0
20
10.0
11
1.8660254038
21
10.5
0
LINE
8
dimensions
62
255
10
0.0
20
10.0
11
1.8660254038
21
9.5
0
LINE
8
dimensions
62
255
10
175.0
20
10.0
11
173.1339745962
21
9.5
0
LINE
8
dimensions
62
255
10
175.0
20
10.0
11
173.1339745962
21
10.5
0
LINE
8
dimensions
62
255
10
0.0
20
10.0
11
175.0
21
10.0
0
TEXT
8
dimensions
62
255
10
204.5234375
20
14.1071428572
11
219.4765625
21
14.1071428572
40
12
72
0.0
50
0.0
1
74.00mm
0
LINE
8
dimensions
62
255
10
175.0
20
10.0
11
176.8660254038
21
10.5
0
LINE
8
dimensions
62
255
10
175.0
20
10.0
11
176.8660254038
21
9.5
0
LINE
8
dimensions
62
255
10
249.0
20
10.0
11
247.1339745962
21
9.5
0
LINE
8
dimensions
62
255
10
249.0
20
10.0
11
247.1339745962
21
10.5
0
LINE
8
dimensions
62
255
10
175.0
20
10.0
11
249.0
21
10.0
0
TEXT
8
dimensions
62
255
10
456.8928571429
20
105.7890625
11
456.8928571429
21
124.2109375
40
12
72
0.0
50
90.0
1
230.00mm
0
LINE
8
dimensions
62
255
10
462.0
20
0.0
11
461.0
21
0.0
0
LINE
8
dimensions
62
255
10
462.0
20
230.0
11
461.0
21
230.0
0
LINE
8
dimensions
62
255
10
461.0
20
0.0
11
460.5
21
1.8660254038
0
LINE
8
dimensions
62
255
10
461.0
20
0.0
11
461.5
21
1.8660254038
0
LINE
8
dimensions
62
255
10
461.0
20
230.0
11
461.5
21
228.1339745962
0
LINE
8
dimensions
62
255
10
461.0
20
230.0
11
460.5
21
228.1339745962
0
LINE
8
dimensions
62
255
10
461.0
20
0.0
11
461.0
21
230.0
0
ENDSEC
0
EOF
