0
SECTION
2
HEADER
9
$ACADVER
1
AC1006
0
ENDSEC
0
SECTION
2
ENTITIES
0
LINE
8
crease
62
3
10
-25.0
20
0.0
11
858.0
21
0.0
0
LINE
8
crease
62
3
10
320.0
20
-70.0
11
320.0
21
260.0
0
LINE
8
crease
62
3
10
858.0
20
220.0
11
678.5
21
220.0
0
LINE
8
crease
62
3
10
651.5
20
220.0
11
528.5
21
220.0
0
LINE
8
crease
62
3
10
501.5
20
220.0
11
248.5
21
220.0
0
LINE
8
crease
62
3
10
221.5
20
220.0
11
98.5
21
220.0
0
LINE
8
crease
62
3
10
71.5
20
220.0
11
-25.0
21
220.0
0
LINE
8
crease
62
3
10
0.0
20
260.0
11
0.0
21
-70.0
0
LINE
8
crease
62
3
10
375.0
20
-70.0
11
375.0
21
260.0
0
LINE
8
crease
62
3
10
430.0
20
-70.0
11
430.0
21
260.0
0
LINE
8
crease
62
3
10
750.0
20
-70.0
11
750.0
21
260.0
0
LINE
8
crease
62
3
10
805.0
20
-70.0
11
805.0
21
260.0
0
LINE
8
cut
62
1
10
858.0
20
-70.0
11
858.0
21
260.0
0
LINE
8
cut
62
1
10
-25.0
20
260.0
11
-25.0
21
-70.0
0
LINE
8
cut
62
1
10
858.0
20
260.0
11
-25.0
21
260.0
0
LINE
8
crease
62
3
10
-25.0
20
55.0
11
858.0
21
55.0
0
LINE
8
cut
62
1
10
-25.0
20
-70.0
11
858.0
21
-70.0
0
LINE
8
crease
62
3
10
265.0
20
-55.0
11
375.0
21
55.0
0
LINE
8
crease
62
3
10
375.0
20
55.0
11
485.0
21
-55.0
0
LINE
8
crease
62
3
10
695.0
20
-55.0
11
805.0
21
55.0
0
LINE
8
crease
62
3
10
805.0
20
55.0
11
858.0
21
2.0
0
LINE
8
crease
62
3
10
-25.0
20
25.0
11
55.0
21
-55.0
0
LINE
8
cut
62
1
10
55.0
20
-55.0
11
55.0
21
-70.0
0
LINE
8
cut
62
1
10
265.0
20
-55.0
11
265.0
21
-70.0
0
LINE
8
cut
62
1
10
485.0
20
-55.0
11
485.0
21
-70.0
0
LINE
8
cut
62
1
10
695.0
20
-55.0
11
695.0
21
-70.0
0
LINE
8
cut
62
1
10
72.5
20
219.0
11
97.5
21
219.0
0
LINE
8
cut
62
1
10
70.5
20
221.0
11
72.5
21
219.0
0
LINE
8
cut
62
1
10
99.5
20
221.0
11
97.5
21
219.0
0
LINE
8
cut
62
1
10
247.5
20
219.0
11
222.5
21
219.0
0
LINE
8
cut
62
1
10
249.5
20
221.0
11
247.5
21
219.0
0
LINE
8
cut
62
1
10
220.5
20
221.0
11
222.5
21
219.0
0
LINE
8
cut
62
1
10
677.5
20
219.0
11
652.5
21
219.0
0
LINE
8
cut
62
1
10
679.5
20
221.0
11
677.5
21
219.0
0
LINE
8
cut
62
1
10
650.5
20
221.0
11
652.5
21
219.0
0
LINE
8
cut
62
1
10
502.5
20
219.0
11
527.5
21
219.0
0
LINE
8
cut
62
1
10
500.5
20
221.0
11
502.5
21
219.0
0
LINE
8
cut
62
1
10
529.5
20
221.0
11
527.5
21
219.0
0
TEXT
8
dimensions
62
255
10
407.29
20
274.11
11
425.71
21
274.11
40
18
72
0.0
50
0.0
1
883.00mm
0
LINE
8
dimensions
62
255
10
-25.0
20
271.0
11
-25.0
21
263.0
0
LINE
8
dimensions
62
255
10
858.0
20
271.0
11
858.0
21
263.0
0
LINE
8
dimensions
62
255
10
-25.0
20
270.0
11
-23.13
21
270.5
0
LINE
8
dimensions
62
255
10
-25.0
20
270.0
11
-23.13
21
269.5
0
LINE
8
dimensions
62
255
10
858.0
20
270.0
11
856.13
21
269.5
0
LINE
8
dimensions
62
255
10
858.0
20
270.0
11
856.13
21
270.5
0
LINE
8
dimensions
62
255
10
-25.0
20
270.0
11
858.0
21
270.0
0
TEXT
8
dimensions
62
255
10
-39.11
20
85.53
11
-39.11
21
104.47
40
18
72
0.0
50
90.0
1
330.00mm
0
LINE
8
dimensions
62
255
10
-36.0
20
260.0
11
-28.0
21
260.0
0
LINE
8
dimensions
62
255
10
-36.0
20
-70.0
11
-28.0
21
-70.0
0
LINE
8
dimensions
62
255
10
-35.0
20
260.0
11
-34.5
21
258.13
0
LINE
8
dimensions
62
255
10
-35.0
20
260.0
11
-35.5
21
258.13
0
LINE
8
dimensions
62
255
10
-35.0
20
-70.0
11
-35.5
21
-68.13
0
LINE
8
dimensions
62
255
10
-35.0
20
-70.0
11
-34.5
21
-68.13
0
LINE
8
dimensions
62
255
10
-35.0
20
260.0
11
-35.0
21
-70.0
0
TEXT
8
dimensions
62
255
10
150.79
20
69.11
11
169.21
21
69.11
40
18
72
0.0
50
0.0
1
320.00mm
0
LINE
8
dimensions
62
255
10
0.0
20
65.0
11
1.87
21
65.5
0
LINE
8
dimensions
62
255
10
0.0
20
65.0
11
1.87
21
64.5
0
LINE
8
dimensions
62
255
10
320.0
20
65.0
11
318.13
21
64.5
0
LINE
8
dimensions
62
255
10
320.0
20
65.0
11
318.13
21
65.5
0
LINE
8
dimensions
62
255
10
0.0
20
65.0
11
320.0
21
65.0
0
TEXT
8
dimensions
62
255
10
367.52
20
69.11
11
382.48
21
69.11
40
18
72
0.0
50
0.0
1
110.00mm
0
LINE
8
dimensions
62
255
10
320.0
20
65.0
11
321.87
21
65.5
0
LINE
8
dimensions
62
255
10
320.0
20
65.0
11
321.87
21
64.5
0
LINE
8
dimensions
62
255
10
430.0
20
65.0
11
428.13
21
64.5
0
LINE
8
dimensions
62
255
10
430.0
20
65.0
11
428.13
21
65.5
0
LINE
8
dimensions
62
255
10
320.0
20
65.0
11
430.0
21
65.0
0
TEXT
8
dimensions
62
255
10
585.9
20
100.79
11
585.9
21
119.21
40
18
72
0.0
50
90.0
1
220.00mm
0
LINE
8
dimensions
62
255
10
590.0
20
0.0
11
589.5
21
1.87
0
LINE
8
dimensions
62
255
10
590.0
20
0.0
11
590.5
21
1.87
0
LINE
8
dimensions
62
255
10
590.0
20
220.0
11
590.5
21
218.13
0
LINE
8
dimensions
62
255
10
590.0
20
220.0
11
589.5
21
218.13
0
LINE
8
dimensions
62
255
10
590.0
20
0.0
11
590.0
21
220.0
0
TEXT
8
dimensions
62
255
10
155.89
20
232.52
11
155.89
21
247.48
40
18
72
0.0
50
90.0
1
40.00mm
0
LINE
8
dimensions
62
255
10
160.0
20
220.0
11
159.5
21
221.87
0
LINE
8
dimensions
62
255
10
160.0
20
220.0
11
160.5
21
221.87
0
LINE
8
dimensions
62
255
10
160.0
20
260.0
11
160.5
21
258.13
0
LINE
8
dimensions
62
255
10
160.0
20
260.0
11
159.5
21
258.13
0
LINE
8
dimensions
62
255
10
160.0
20
220.0
11
160.0
21
260.0
0
TEXT
8
dimensions
62
255
10
585.9
20
-42.48
11
585.9
21
-27.52
40
18
72
0.0
50
90.0
1
70.00mm
0
LINE
8
dimensions
62
255
10
590.0
20
-70.0
11
589.5
21
-68.13
0
LINE
8
dimensions
62
255
10
590.0
20
-70.0
11
590.5
21
-68.13
0
LINE
8
dimensions
62
255
10
590.0
20
0.0
11
590.5
21
-1.87
0
LINE
8
dimensions
62
255
10
590.0
20
0.0
11
589.5
21
-1.87
0
LINE
8
dimensions
62
255
10
590.0
20
-70.0
11
590.0
21
0.0
0
ENDSEC
0
EOF
