0
SECTION
2
HEADER
9
$ACADVER
1
AC1006
0
ENDSEC
0
SECTION
2
ENTITIES
0
LINE
8
crease
62
3
10
169.5
20
200.5
11
0.0
21
200.5
0
LINE
8
crease
62
3
10
249.5
20
200.5
11
169.5
21
200.5
0
LINE
8
crease
62
3
10
250.0
20
200.0
11
420.0
21
200.0
0
LINE
8
crease
62
3
10
420.5
20
200.5
11
500.0
21
200.5
0
LINE
8
cut
62
1
10
203.459262274
20
247.040737726
11
170.0
21
230.5
0
LINE
8
cut
62
1
10
420.0
20
280.0
11
250.0
21
280.0
0
LINE
8
cut
62
1
10
473.081475452
20
253.581475452
11
466.540737726
21
247.040737726
0
LINE
8
cut
62
1
10
360.4982473211
20
247.040737726
11
373.959262274
21
247.040737726
0
LINE
8
cut
62
1
10
373.959262274
20
247.040737726
11
391.4864655575
21
222.2214667288
0
LINE
8
cut
62
1
10
466.540737726
20
247.040737726
11
500.0
21
230.5
0
LINE
8
cut
62
1
10
309.5017526789
20
247.040737726
11
296.040737726
21
247.040737726
0
LINE
8
cut
62
1
10
296.040737726
20
247.040737726
11
278.5135344425
21
222.2214667288
0
LINE
8
cut
62
1
10
196.918524548
20
253.581475452
11
203.459262274
21
247.040737726
0
LINE
8
cut
62
1
10
250.0
20
200.0
11
250.0
21
280.0
0
LINE
8
cut
62
1
10
223.081475452
20
227.418524548
11
250.0
21
200.0
0
LINE
8
cut
62
1
10
420.0
20
200.0
11
420.0
21
280.0
0
LINE
8
cut
62
1
10
446.918524548
20
227.418524548
11
420.0
21
200.0
0
LINE
8
cut
62
1
10
0.0
20
200.5
11
-2.0
21
199.0
0
LINE
8
cut
62
1
10
-2.0
20
199.0
11
-10.0
21
199.0
0
LINE
8
cut
62
1
10
169.5
20
200.5
11
170.0
21
202.5
0
LINE
8
cut
62
1
10
170.0
20
202.5
11
170.0
21
230.5
0
LINE
8
crease
62
3
10
169.5
20
-0.5
11
0.0
21
-0.5
0
LINE
8
crease
62
3
10
249.5
20
-0.5
11
169.5
21
-0.5
0
LINE
8
crease
62
3
10
250.0
20
0.0
11
420.0
21
0.0
0
LINE
8
crease
62
3
10
420.5
20
-0.5
11
500.0
21
-0.5
0
LINE
8
cut
62
1
10
203.459262274
20
-47.040737726
11
170.0
21
-30.5
0
LINE
8
cut
62
1
10
420.0
20
-80.0
11
250.0
21
-80.0
0
LINE
8
cut
62
1
10
473.081475452
20
-53.581475452
11
466.540737726
21
-47.040737726
0
LINE
8
cut
62
1
10
360.4982473211
20
-47.040737726
11
373.959262274
21
-47.040737726
0
LINE
8
cut
62
1
10
373.959262274
20
-47.040737726
11
391.4864655575
21
-22.2214667288
0
LINE
8
cut
62
1
10
466.540737726
20
-47.040737726
11
500.0
21
-30.5
0
LINE
8
cut
62
1
10
309.5017526789
20
-47.040737726
11
296.040737726
21
-47.040737726
0
LINE
8
cut
62
1
10
296.040737726
20
-47.040737726
11
278.5135344425
21
-22.2214667288
0
LINE
8
cut
62
1
10
196.918524548
20
-53.581475452
11
203.459262274
21
-47.040737726
0
LINE
8
cut
62
1
10
250.0
20
0.0
11
250.0
21
-80.0
0
LINE
8
cut
62
1
10
223.081475452
20
-27.418524548
11
250.0
21
0.0
0
LINE
8
cut
62
1
10
420.0
20
0.0
11
420.0
21
-80.0
0
LINE
8
cut
62
1
10
446.918524548
20
-27.418524548
11
420.0
21
0.0
0
LINE
8
cut
62
1
10
0.0
20
-0.5
11
-2.0
21
1.0
0
LINE
8
cut
62
1
10
-2.0
20
1.0
11
-10.0
21
1.0
0
LINE
8
cut
62
1
10
169.5
20
-0.5
11
170.0
21
-2.5
0
LINE
8
cut
62
1
10
170.0
20
-2.5
11
170.0
21
-30.5
0
LINE
8
crease
62
3
10
169.5
20
200.5
11
169.5
21
-0.5
0
LINE
8
crease
62
3
10
0.0
20
200.5
11
0.0
21
-0.5
0
LINE
8
crease
62
3
10
250.0
20
0.0
11
250.0
21
200.0
0
LINE
8
crease
62
3
10
420.0
20
200.0
11
420.0
21
0.0
0
LINE
8
cut
62
1
10
-20.0
20
11.0
11
-20.0
21
189.0
0
LINE
8
cut
62
1
10
500.0
20
-30.5
11
500.0
21
230.5
0
ARC
8
cut
62
1
10
210.0
20
240.5
40
18.5
50
315.0
51
495.0
0
ARC
8
cut
62
1
10
84.75
20
250.4263395861
40
26.9927801849
50
4.2337938727
51
175.7662061273
0
ARC
8
cut
62
1
10
335.0
20
148.8888888889
40
82.7777777778
50
69.9840403971
51
110.0159596029
0
ARC
8
cut
62
1
10
460.0
20
240.5
40
18.5
50
45.0
51
225.0
0
ARC
8
cut
62
1
10
84.75
20
164.2674087161
40
92.1702944074
50
106.9812368748
51
156.8521682514
0
ARC
8
cut
62
1
10
84.75
20
164.2674087161
40
92.1702944074
50
23.1478317486
51
73.0187631252
0
ARC
8
cut
62
1
10
-10.0
20
189.0
40
10.0
50
90.0
51
180.0
0
ARC
8
cut
62
1
10
210.0
20
-40.5
40
18.5
50
225.0
51
405.0
0
ARC
8
cut
62
1
10
84.75
20
-50.4263395861
40
26.9927801849
50
184.2337938727
51
355.7662061273
0
ARC
8
cut
62
1
10
335.0
20
51.1111111111
40
82.7777777778
50
249.9840403971
51
290.0159596029
0
ARC
8
cut
62
1
10
460.0
20
-40.5
40
18.5
50
135.0
51
315.0
0
ARC
8
cut
62
1
10
84.75
20
35.7325912839
40
92.1702944074
50
203.1478317486
51
253.0187631252
0
ARC
8
cut
62
1
10
84.75
20
35.7325912839
40
92.1702944074
50
286.9812368748
51
336.8521682514
0
ARC
8
cut
62
1
10
-10.0
20
11.0
40
10.0
50
180.0
51
270.0
0
TEXT
8
dimensions
62
255
10
79.265625
20
14.1071428571
11
90.234375
21
14.1071428571
40
12
72
0.0
50
0.0
1
169.50mm
0
LINE
8
dimensions
62
255
10
0.0
20
10.0
11
1.8660254037
21
10.5
0
LINE
8
dimensions
62
255
10
0.0
20
10.0
11
1.8660254037
21
9.5
0
LINE
8
dimensions
62
255
10
169.5
20
10.0
11
167.6339745962
21
9.5
0
LINE
8
dimensions
62
255
10
169.5
20
10.0
11
167.6339745962
21
10.5
0
LINE
8
dimensions
62
255
10
0.0
20
10.0
11
169.5
21
10.0
0
TEXT
8
dimensions
62
255
10
206.2578124999
20
14.1071428571
11
213.2421874999
21
14.1071428571
40
12
72
0.0
50
0.0
1
80.50mm
0
LINE
8
dimensions
62
255
10
169.5
20
10.0
11
171.3660254038
21
10.5
0
LINE
8
dimensions
62
255
10
169.5
20
10.0
11
171.3660254038
21
9.5
0
LINE
8
dimensions
62
255
10
250.0
20
10.0
11
248.1339745962
21
9.5
0
LINE
8
dimensions
62
255
10
250.0
20
10.0
11
248.1339745962
21
10.5
0
LINE
8
dimensions
62
255
10
169.5
20
10.0
11
250.0
21
10.0
0
TEXT
8
dimensions
62
255
10
406.3928571429
20
94.515625
11
406.3928571429
21
105.484375
40
12
72
0.0
50
90.0
1
200.00mm
0
LINE
8
dimensions
62
255
10
410.5
20
0.0
11
410.0
21
1.8660254038
0
LINE
8
dimensions
62
255
10
410.5
20
0.0
11
411.0
21
1.8660254038
0
LINE
8
dimensions
62
255
10
410.5
20
200.0
11
411.0
21
198.1339745963
0
LINE
8
dimensions
62
255
10
410.5
20
200.0
11
410.0
21
198.1339745963
0
LINE
8
dimensions
62
255
10
410.5
20
0.0
11
410.5
21
200.0
0
TEXT
8
dimensions
62
255
10
-34.1071428572
20
94.515625
11
-34.1071428572
21
105.484375
40
12
72
0.0
50
90.0
1
360.00mm
0
LINE
8
dimensions
62
255
10
-31.0
20
280.0
11
-23.0
21
280.0
0
LINE
8
dimensions
62
255
10
-31.0
20
-80.0
11
-23.0
21
-80.0
0
LINE
8
dimensions
62
255
10
-30.0
20
280.0
11
-29.5
21
278.1339745962
0
LINE
8
dimensions
62
255
10
-30.0
20
280.0
11
-30.5
21
278.1339745962
0
LINE
8
dimensions
62
255
10
-30.0
20
-80.0
11
-30.5
21
-78.1339745963
0
LINE
8
dimensions
62
255
10
-30.0
20
-80.0
11
-29.5
21
-78.1339745963
0
LINE
8
dimensions
62
255
10
-30.0
20
280.0
11
-30.0
21
-80.0
0
TEXT
8
dimensions
62
255
10
234.515625
20
294.1071428572
11
245.484375
21
294.1071428572
40
12
72
0.0
50
0.0
1
520.00mm
0
LINE
8
dimensions
62
255
10
500.0
20
291.0
11
500.0
21
283.0
0
LINE
8
dimensions
62
255
10
-20.0
20
291.0
11
-20.0
21
283.0
0
LINE
8
dimensions
62
255
10
500.0
20
290.0
11
498.1339745962
21
289.5
0
LINE
8
dimensions
62
255
10
500.0
20
290.0
11
498.1339745962
21
290.5
0
LINE
8
dimensions
62
255
10
-20.0
20
290.0
11
-18.1339745962
21
290.5
0
LINE
8
dimensions
62
255
10
-20.0
20
290.0
11
-18.1339745962
21
289.5
0
LINE
8
dimensions
62
255
10
500.0
20
290.0
11
-20.0
21
290.0
0
ENDSEC
0
EOF
