0
SECTION
2
HEADER
9
$ACADVER
1
AC1006
0
ENDSEC
0
SECTION
2
ENTITIES
0
LINE
8
crease
62
3
10
56.0
20
0.0
11
56.0
21
150.0
0
LINE
8
crease
62
3
10
112.0
20
150.0
11
112.0
21
0.0
0
LINE
8
crease
62
3
10
168.0
20
0.0
11
168.0
21
150.0
0
LINE
8
crease
62
3
10
0.0
20
150.0
11
0.0
21
0.0
0
LINE
8
cut
62
1
10
223.5
20
0.0
11
223.5
21
150.0
0
LINE
8
cut
62
1
10
112.0
20
206.0
11
112.0
21
150.0
0
LINE
8
cut
62
1
10
112.0
20
-56.0
11
112.0
21
0.0
0
LINE
8
cut
62
1
10
168.0
20
150.0
11
168.0
21
206.0
0
LINE
8
cut
62
1
10
168.0
20
0.0
11
168.0
21
-56.0
0
LINE
8
cut
62
1
10
223.5
20
150.0
11
223.5
21
155.0
0
LINE
8
cut
62
1
10
223.5
20
0.0
11
223.5
21
-5.0
0
LINE
8
cut
62
1
10
0.0
20
0.0
11
-15.0
21
4.0192378865
0
LINE
8
cut
62
1
10
-15.0
20
4.0192378865
11
-15.0
21
145.9807621135
0
LINE
8
cut
62
1
10
-15.0
20
145.9807621135
11
0.0
21
150.0
0
LINE
8
cut
62
1
10
56.0
20
0.0
11
0.0
21
0.0
0
LINE
8
crease
62
3
10
168.0
20
0.0
11
223.5
21
0.0
0
LINE
8
crease
62
3
10
112.0
20
0.0
11
56.5
21
0.0
0
LINE
8
cut
62
1
10
56.0
20
0.0
11
56.5
21
0.0
0
LINE
8
cut
62
1
10
56.5
20
150.0
11
56.5
21
155.0
0
LINE
8
cut
62
1
10
56.5
20
0.0
11
56.5
21
-5.0
0
LINE
8
cut
62
1
10
56.5
20
-5.0
11
59.5
21
-8.0
0
LINE
8
cut
62
1
10
59.5
20
-8.0
11
65.3948822335
21
-30.0
0
LINE
8
cut
62
1
10
112.0
20
0.0
11
109.0
21
-3.0
0
LINE
8
cut
62
1
10
109.0
20
-3.0
11
107.0
21
-30.0
0
LINE
8
cut
62
1
10
214.6051177665
20
-30.0
11
173.0
21
-30.0
0
LINE
8
cut
62
1
10
65.3948822335
20
-30.0
11
107.0
21
-30.0
0
LINE
8
cut
62
1
10
223.5
20
-5.0
11
220.5
21
-8.0
0
LINE
8
cut
62
1
10
220.5
20
-8.0
11
214.6051177665
21
-30.0
0
LINE
8
cut
62
1
10
168.0
20
0.0
11
171.0
21
-3.0
0
LINE
8
cut
62
1
10
171.0
20
-3.0
11
173.0
21
-30.0
0
LINE
8
crease
62
3
10
161.0
20
-55.0
11
119.0
21
-55.0
0
LINE
8
cut
62
1
10
117.5
20
-70.0
11
162.5
21
-70.0
0
LINE
8
cut
62
1
10
112.5
20
206.0
11
112.5
21
215.0
0
LINE
8
cut
62
1
10
112.5
20
-56.0
11
112.5
21
-65.0
0
LINE
8
cut
62
1
10
167.5
20
206.0
11
167.5
21
215.0
0
LINE
8
cut
62
1
10
167.5
20
-56.0
11
167.5
21
-65.0
0
LINE
8
cut
62
1
10
119.0
20
-56.0
11
112.0
21
-56.0
0
LINE
8
cut
62
1
10
168.0
20
-56.0
11
161.0
21
-56.0
0
LINE
8
cut
62
1
10
161.0
20
206.0
11
161.0
21
205.0
0
LINE
8
cut
62
1
10
161.0
20
-56.0
11
161.0
21
-55.0
0
LINE
8
cut
62
1
10
119.0
20
205.0
11
119.0
21
206.0
0
LINE
8
cut
62
1
10
119.0
20
-55.0
11
119.0
21
-56.0
0
LINE
8
crease
62
3
10
112.0
20
-0.5
11
168.0
21
-0.5
0
LINE
8
cut
62
1
10
56.0
20
150.0
11
0.0
21
150.0
0
LINE
8
crease
62
3
10
168.0
20
150.0
11
223.5
21
150.0
0
LINE
8
crease
62
3
10
112.0
20
150.0
11
56.5
21
150.0
0
LINE
8
cut
62
1
10
56.0
20
150.0
11
56.5
21
150.0
0
LINE
8
cut
62
1
10
56.5
20
155.0
11
59.5
21
158.0
0
LINE
8
cut
62
1
10
59.5
20
158.0
11
65.3948822335
21
180.0
0
LINE
8
cut
62
1
10
112.0
20
150.0
11
109.0
21
153.0
0
LINE
8
cut
62
1
10
109.0
20
153.0
11
107.0
21
180.0
0
LINE
8
cut
62
1
10
214.6051177665
20
180.0
11
173.0
21
180.0
0
LINE
8
cut
62
1
10
65.3948822335
20
180.0
11
107.0
21
180.0
0
LINE
8
cut
62
1
10
223.5
20
155.0
11
220.5
21
158.0
0
LINE
8
cut
62
1
10
220.5
20
158.0
11
214.6051177665
21
180.0
0
LINE
8
cut
62
1
10
168.0
20
150.0
11
171.0
21
153.0
0
LINE
8
cut
62
1
10
171.0
20
153.0
11
173.0
21
180.0
0
LINE
8
crease
62
3
10
161.0
20
205.0
11
119.0
21
205.0
0
LINE
8
cut
62
1
10
117.5
20
220.0
11
162.5
21
220.0
0
LINE
8
cut
62
1
10
119.0
20
206.0
11
112.0
21
206.0
0
LINE
8
cut
62
1
10
168.0
20
206.0
11
161.0
21
206.0
0
LINE
8
crease
62
3
10
112.0
20
150.5
11
168.0
21
150.5
0
ARC
8
cut
62
1
10
162.5
20
-65.0
40
5.0
50
270.0
51
360.0
0
ARC
8
cut
62
1
10
117.5
20
-65.0
40
5.0
50
180.0
51
270.0
0
ARC
8
cut
62
1
10
162.5
20
215.0
40
5.0
50
0.0
51
90.0
0
ARC
8
cut
62
1
10
117.5
20
215.0
40
5.0
50
90.0
51
180.0
0
TEXT
8
dimensions
62
255
10
-29.1071428571
20
62.0390625
11
-29.1071428571
21
87.9609375
40
6
72
0.0
50
90.0
1
290.00mm
0
LINE
8
dimensions
62
255
10
-26.0
20
220.0
11
-18.0
21
220.0
0
LINE
8
dimensions
62
255
10
-26.0
20
-70.0
11
-18.0
21
-70.0
0
LINE
8
dimensions
62
255
10
-25.0
20
220.0
11
-24.5
21
218.1339745962
0
LINE
8
dimensions
62
255
10
-25.0
20
220.0
11
-25.5
21
218.1339745962
0
LINE
8
dimensions
62
255
10
-25.0
20
-70.0
11
-25.5
21
-68.1339745962
0
LINE
8
dimensions
62
255
10
-25.0
20
-70.0
11
-24.5
21
-68.1339745962
0
LINE
8
dimensions
62
255
10
-25.0
20
220.0
11
-25.0
21
-70.0
0
TEXT
8
dimensions
62
255
10
91.546875
20
235.1071428571
11
116.953125
21
235.1071428571
40
6
72
0.0
50
0.0
1
238.50mm
0
LINE
8
dimensions
62
255
10
-15.0
20
232.0
11
-15.0
21
224.0
0
LINE
8
dimensions
62
255
10
223.5
20
232.0
11
223.5
21
224.0
0
LINE
8
dimensions
62
255
10
-15.0
20
231.0
11
-13.1339745962
21
231.5
0
LINE
8
dimensions
62
255
10
-15.0
20
231.0
11
-13.1339745962
21
230.5
0
LINE
8
dimensions
62
255
10
223.5
20
231.0
11
221.6339745962
21
230.5
0
LINE
8
dimensions
62
255
10
223.5
20
231.0
11
221.6339745962
21
231.5
0
LINE
8
dimensions
62
255
10
-15.0
20
231.0
11
223.5
21
231.0
0
TEXT
8
dimensions
62
255
10
18.53125
20
14.1071428572
11
37.46875
21
14.1071428572
40
6
72
0.0
50
0.0
1
56.00mm
0
LINE
8
dimensions
62
255
10
0.0
20
10.0
11
1.8660254038
21
10.5
0
LINE
8
dimensions
62
255
10
0.0
20
10.0
11
1.8660254038
21
9.5
0
LINE
8
dimensions
62
255
10
56.0
20
10.0
11
54.1339745962
21
9.5
0
LINE
8
dimensions
62
255
10
56.0
20
10.0
11
54.1339745962
21
10.5
0
LINE
8
dimensions
62
255
10
0.0
20
10.0
11
56.0
21
10.0
0
TEXT
8
dimensions
62
255
10
76.5234375
20
14.1071428572
11
91.4765625
21
14.1071428572
40
6
72
0.0
50
0.0
1
56.00mm
0
LINE
8
dimensions
62
255
10
56.0
20
10.0
11
57.8660254038
21
10.5
0
LINE
8
dimensions
62
255
10
56.0
20
10.0
11
57.8660254038
21
9.5
0
LINE
8
dimensions
62
255
10
112.0
20
10.0
11
110.1339745962
21
9.5
0
LINE
8
dimensions
62
255
10
112.0
20
10.0
11
110.1339745962
21
10.5
0
LINE
8
dimensions
62
255
10
56.0
20
10.0
11
112.0
21
10.0
0
TEXT
8
dimensions
62
255
10
153.8928571429
20
65.7890625
11
153.8928571429
21
84.2109375
40
6
72
0.0
50
90.0
1
150.00mm
0
LINE
8
dimensions
62
255
10
159.0
20
0.0
11
158.0
21
0.0
0
LINE
8
dimensions
62
255
10
159.0
20
150.0
11
158.0
21
150.0
0
LINE
8
dimensions
62
255
10
158.0
20
0.0
11
157.5
21
1.8660254038
0
LINE
8
dimensions
62
255
10
158.0
20
0.0
11
158.5
21
1.8660254038
0
LINE
8
dimensions
62
255
10
158.0
20
150.0
11
158.5
21
148.1339745962
0
LINE
8
dimensions
62
255
10
158.0
20
150.0
11
157.5
21
148.1339745962
0
LINE
8
dimensions
62
255
10
158.0
20
0.0
11
158.0
21
150.0
0
ENDSEC
0
EOF
