0
SECTION
2
HEADER
9
$ACADVER
1
AC1006
0
ENDSEC
0
SECTION
2
ENTITIES
0
LINE
8
crease
62
3
10
90.0
20
0.0
11
90.0
21
120.0
0
LINE
8
crease
62
3
10
170.0
20
120.0
11
170.0
21
0.0
0
LINE
8
crease
62
3
10
260.0
20
0.0
11
260.0
21
120.0
0
LINE
8
crease
62
3
10
0.0
20
120.0
11
0.0
21
0.0
0
LINE
8
cut
62
1
10
339.5
20
0.0
11
339.5
21
120.0
0
LINE
8
cut
62
1
10
90.0
20
200.0
11
90.0
21
120.0
0
LINE
8
cut
62
1
10
90.0
20
0.0
11
90.0
21
-53.0
0
LINE
8
cut
62
1
10
170.0
20
0.0
11
170.0
21
-35.5
0
LINE
8
cut
62
1
10
260.0
20
-35.5
11
260.0
21
0.0
0
LINE
8
cut
62
1
10
0.0
20
120.0
11
0.0
21
200.0
0
LINE
8
cut
62
1
10
0.0
20
-53.0
11
0.0
21
0.0
0
LINE
8
cut
62
1
10
68.0
20
-40.0
11
22.0
21
-40.0
0
LINE
8
cut
62
1
10
260.0
20
0.0
11
237.5
21
-40.0
0
LINE
8
cut
62
1
10
25.4833395016
20
-53.0
11
0.0
21
-53.0
0
LINE
8
cut
62
1
10
90.0
20
-53.0
11
64.5166604984
21
-53.0
0
LINE
8
cut
62
1
10
234.5
20
-53.0
11
195.5
21
-53.0
0
LINE
8
cut
62
1
10
192.5
20
-50.0
11
192.5
21
-40.0
0
LINE
8
cut
62
1
10
192.5
20
-40.0
11
170.0
21
0.0
0
LINE
8
crease
62
3
10
260.0
20
0.0
11
339.5
21
0.0
0
LINE
8
crease
62
3
10
0.0
20
0.0
11
90.0
21
0.0
0
LINE
8
crease
62
3
10
90.0
20
0.0
11
170.0
21
0.0
0
LINE
8
crease
62
3
10
170.0
20
0.0
11
260.0
21
0.0
0
LINE
8
cut
62
1
10
303.4833395016
20
-35.5
11
260.0
21
-35.5
0
LINE
8
cut
62
1
10
170.0
20
-35.5
11
126.5166604984
21
-35.5
0
LINE
8
cut
62
1
10
130.0
20
-22.5
11
90.0
21
0.0
0
LINE
8
cut
62
1
10
64.5166604984
20
-53.0
11
68.0
21
-40.0
0
LINE
8
cut
62
1
10
22.0
20
-40.0
11
25.4833395016
21
-53.0
0
LINE
8
cut
62
1
10
339.5
20
0.0
11
300.0
21
-22.5
0
LINE
8
cut
62
1
10
300.0
20
-22.5
11
303.4833395016
21
-35.5
0
LINE
8
cut
62
1
10
130.0
20
-22.5
11
126.5166604984
21
-35.5
0
LINE
8
cut
62
1
10
237.5
20
-50.0
11
237.5
21
-40.0
0
LINE
8
cut
62
1
10
0.0
20
0.0
11
-15.0
21
4.0192378865
0
LINE
8
cut
62
1
10
-15.0
20
4.0192378865
11
-15.0
21
115.9807621135
0
LINE
8
cut
62
1
10
-15.0
20
115.9807621135
11
0.0
21
120.0
0
LINE
8
cut
62
1
10
170.0
20
120.0
11
260.0
21
120.0
0
LINE
8
crease
62
3
10
339.5
20
120.0
11
260.5
21
120.0
0
LINE
8
cut
62
1
10
260.0
20
120.0
11
260.5
21
120.0
0
LINE
8
crease
62
3
10
90.0
20
120.0
11
169.5
21
120.0
0
LINE
8
cut
62
1
10
170.0
20
120.0
11
169.5
21
120.0
0
LINE
8
cut
62
1
10
169.5
20
120.0
11
169.5
21
127.0
0
LINE
8
cut
62
1
10
169.5
20
127.0
11
166.5
21
130.0
0
LINE
8
cut
62
1
10
166.5
20
130.0
11
158.4615242271
21
160.0
0
LINE
8
cut
62
1
10
90.0
20
120.0
11
93.0
21
123.0
0
LINE
8
cut
62
1
10
93.0
20
123.0
11
95.0
21
160.0
0
LINE
8
cut
62
1
10
271.5384757729
20
160.0
11
334.5
21
160.0
0
LINE
8
cut
62
1
10
158.4615242271
20
160.0
11
95.0
21
160.0
0
LINE
8
cut
62
1
10
260.5
20
120.0
11
260.5
21
127.0
0
LINE
8
cut
62
1
10
260.5
20
127.0
11
263.5
21
130.0
0
LINE
8
cut
62
1
10
263.5
20
130.0
11
271.5384757729
21
160.0
0
LINE
8
cut
62
1
10
339.5
20
120.0
11
336.5
21
123.0
0
LINE
8
cut
62
1
10
336.5
20
123.0
11
334.5
21
160.0
0
LINE
8
crease
62
3
10
9.0
20
199.0
11
81.0
21
199.0
0
LINE
8
cut
62
1
10
5.5
20
214.0
11
84.5
21
214.0
0
LINE
8
cut
62
1
10
0.5
20
200.0
11
0.5
21
209.0
0
LINE
8
cut
62
1
10
89.5
20
200.0
11
89.5
21
209.0
0
LINE
8
cut
62
1
10
81.0
20
200.0
11
90.0
21
200.0
0
LINE
8
cut
62
1
10
0.0
20
200.0
11
9.0
21
200.0
0
LINE
8
cut
62
1
10
9.0
20
200.0
11
9.0
21
199.0
0
LINE
8
cut
62
1
10
81.0
20
199.0
11
81.0
21
200.0
0
LINE
8
crease
62
3
10
90.0
20
120.5
11
0.0
21
120.5
0
ARC
8
cut
62
1
10
195.5
20
-50.0
40
3.0
50
180.0
51
270.0
0
ARC
8
cut
62
1
10
234.5
20
-50.0
40
3.0
50
270.0
51
360.0
0
ARC
8
cut
62
1
10
84.5
20
209.0
40
5.0
50
0.0
51
90.0
0
ARC
8
cut
62
1
10
5.5
20
209.0
40
5.0
50
90.0
51
180.0
0
TEXT
8
dimensions
62
255
10
-29.1071428571
20
67.5390625
11
-29.1071428571
21
93.4609375
40
8
72
0.0
50
90.0
1
267.00mm
0
LINE
8
dimensions
62
255
10
-26.0
20
214.0
11
-18.0
21
214.0
0
LINE
8
dimensions
62
255
10
-26.0
20
-53.0
11
-18.0
21
-53.0
0
LINE
8
dimensions
62
255
10
-25.0
20
214.0
11
-24.5
21
212.1339745962
0
LINE
8
dimensions
62
255
10
-25.0
20
214.0
11
-25.5
21
212.1339745962
0
LINE
8
dimensions
62
255
10
-25.0
20
-53.0
11
-25.5
21
-51.1339745962
0
LINE
8
dimensions
62
255
10
-25.0
20
-53.0
11
-24.5
21
-51.1339745962
0
LINE
8
dimensions
62
255
10
-25.0
20
214.0
11
-25.0
21
-53.0
0
TEXT
8
dimensions
62
255
10
149.546875
20
229.1071428571
11
174.953125
21
229.1071428571
40
8
72
0.0
50
0.0
1
354.50mm
0
LINE
8
dimensions
62
255
10
-15.0
20
226.0
11
-15.0
21
218.0
0
LINE
8
dimensions
62
255
10
339.5
20
226.0
11
339.5
21
218.0
0
LINE
8
dimensions
62
255
10
-15.0
20
225.0
11
-13.1339745962
21
225.5
0
LINE
8
dimensions
62
255
10
-15.0
20
225.0
11
-13.1339745962
21
224.5
0
LINE
8
dimensions
62
255
10
339.5
20
225.0
11
337.6339745962
21
224.5
0
LINE
8
dimensions
62
255
10
339.5
20
225.0
11
337.6339745962
21
225.5
0
LINE
8
dimensions
62
255
10
-15.0
20
225.0
11
339.5
21
225.0
0
TEXT
8
dimensions
62
255
10
35.53125
20
14.1071428572
11
54.46875
21
14.1071428572
40
8
72
0.0
50
0.0
1
90.00mm
0
LINE
8
dimensions
62
255
10
0.0
20
10.0
11
1.8660254038
21
10.5
0
LINE
8
dimensions
62
255
10
0.0
20
10.0
11
1.8660254038
21
9.5
0
LINE
8
dimensions
62
255
10
90.0
20
10.0
11
88.1339745962
21
9.5
0
LINE
8
dimensions
62
255
10
90.0
20
10.0
11
88.1339745962
21
10.5
0
LINE
8
dimensions
62
255
10
0.0
20
10.0
11
90.0
21
10.0
0
TEXT
8
dimensions
62
255
10
122.5234375
20
14.1071428572
11
137.4765625
21
14.1071428572
40
8
72
0.0
50
0.0
1
80.00mm
0
LINE
8
dimensions
62
255
10
90.0
20
10.0
11
91.8660254038
21
10.5
0
LINE
8
dimensions
62
255
10
90.0
20
10.0
11
91.8660254038
21
9.5
0
LINE
8
dimensions
62
255
10
170.0
20
10.0
11
168.1339745962
21
9.5
0
LINE
8
dimensions
62
255
10
170.0
20
10.0
11
168.1339745962
21
10.5
0
LINE
8
dimensions
62
255
10
90.0
20
10.0
11
170.0
21
10.0
0
TEXT
8
dimensions
62
255
10
245.8928571429
20
50.7890625
11
245.8928571429
21
69.2109375
40
8
72
0.0
50
90.0
1
120.00mm
0
LINE
8
dimensions
62
255
10
251.0
20
0.0
11
250.0
21
0.0
0
LINE
8
dimensions
62
255
10
251.0
20
120.0
11
250.0
21
120.0
0
LINE
8
dimensions
62
255
10
250.0
20
0.0
11
249.5
21
1.8660254038
0
LINE
8
dimensions
62
255
10
250.0
20
0.0
11
250.5
21
1.8660254038
0
LINE
8
dimensions
62
255
10
250.0
20
120.0
11
250.5
21
118.1339745962
0
LINE
8
dimensions
62
255
10
250.0
20
120.0
11
249.5
21
118.1339745962
0
LINE
8
dimensions
62
255
10
250.0
20
0.0
11
250.0
21
120.0
0
ENDSEC
0
EOF
