0
SECTION
2
HEADER
9
$ACADVER
1
AC1006
0
ENDSEC
0
SECTION
2
ENTITIES
0
LINE
8
cut
62
1
10
143.5
20
-34.25
11
-23.5
21
-34.25
0
LINE
8
crease
62
3
10
118.3132834919
20
175.5
11
1.6867165081
21
175.5
0
LINE
8
crease
62
3
10
118.3132834919
20
105.0
11
1.6867165081
21
105.0
0
LINE
8
crease
62
3
10
119.0
20
0.0
11
1.0
21
0.0
0
LINE
8
crease
62
3
10
119.5
20
70.0
11
0.5
21
70.0
0
LINE
8
crease
62
3
10
120.0
20
50.0
11
120.0
21
70.0
0
LINE
8
cut
62
1
10
189.0
20
50.0
11
189.0
21
69.5
0
LINE
8
cut
62
1
10
189.0
20
69.5
11
157.0
21
69.5
0
LINE
8
cut
62
1
10
155.0
20
70.0
11
157.0
21
69.5
0
LINE
8
cut
62
1
10
154.0
20
70.0
11
154.0
21
98.1509804864
0
LINE
8
cut
62
1
10
149.9805806757
20
103.0538838649
11
144.0
21
104.25
0
LINE
8
cut
62
1
10
144.0
20
104.25
11
119.748794424
21
104.25
0
LINE
8
cut
62
1
10
149.4805806757
20
-33.0538838649
11
143.5
21
-34.25
0
LINE
8
cut
62
1
10
153.5
20
0.0
11
153.5
21
-28.1509804864
0
LINE
8
cut
62
1
10
155.0
20
0.0
11
157.0
21
0.5
0
LINE
8
cut
62
1
10
189.0
20
0.5
11
157.0
21
0.5
0
LINE
8
cut
62
1
10
189.0
20
20.0
11
189.0
21
0.5
0
LINE
8
crease
62
3
10
120.0
20
20.0
11
120.0
21
0.0
0
LINE
8
crease
62
3
10
155.0
20
70.0
11
155.0
21
0.0
0
LINE
8
cut
62
1
10
155.0
20
70.0
11
119.5
21
70.0
0
LINE
8
crease
62
3
10
119.5
20
70.0
11
119.5
21
104.2677879907
0
LINE
8
cut
62
1
10
155.0
20
0.0
11
119.0
21
0.0
0
LINE
8
crease
62
3
10
119.0
20
0.0
11
119.0
21
-34.25
0
LINE
8
crease
62
3
10
118.0
20
105.998794424
11
118.0
21
174.501205576
0
LINE
8
cut
62
1
10
152.5
20
125.2786360368
11
152.5
21
155.2213639632
0
LINE
8
cut
62
1
10
146.5748874947
20
116.9971802082
11
119.1842061383
21
107.6539445697
0
LINE
8
crease
62
3
10
119.5
20
210.25
11
119.5
21
176.2322120093
0
LINE
8
cut
62
1
10
143.5
20
176.25
11
119.748794424
21
176.25
0
LINE
8
cut
62
1
10
119.5
20
210.25
11
0.5
21
210.25
0
LINE
8
crease
62
3
10
0.5
20
210.25
11
0.5
21
176.2322120093
0
LINE
8
cut
62
1
10
-26.5748874947
20
163.5028197918
11
0.8157938617
21
172.8460554303
0
LINE
8
cut
62
1
10
-26.5748874947
20
116.9971802082
11
0.8157938617
21
107.6539445697
0
LINE
8
cut
62
1
10
-32.5
20
125.2786360368
11
-32.5
21
155.2213639632
0
LINE
8
crease
62
3
10
2.0
20
105.998794424
11
2.0
21
174.501205576
0
LINE
8
crease
62
3
10
1.0
20
0.0
11
1.0
21
-34.25
0
LINE
8
cut
62
1
10
-35.0
20
0.0
11
1.0
21
0.0
0
LINE
8
crease
62
3
10
0.5
20
70.0
11
0.5
21
104.2677879907
0
LINE
8
cut
62
1
10
-35.0
20
70.0
11
0.5
21
70.0
0
LINE
8
crease
62
3
10
-35.0
20
70.0
11
-35.0
21
0.0
0
LINE
8
crease
62
3
10
0.0
20
20.0
11
0.0
21
0.0
0
LINE
8
cut
62
1
10
-69.0
20
20.0
11
-69.0
21
0.5
0
LINE
8
cut
62
1
10
-69.0
20
0.5
11
-37.0
21
0.5
0
LINE
8
cut
62
1
10
-35.0
20
0.0
11
-37.0
21
0.5
0
LINE
8
cut
62
1
10
-33.5
20
0.0
11
-33.5
21
-28.1509804864
0
LINE
8
cut
62
1
10
-29.4805806757
20
-33.0538838649
11
-23.5
21
-34.25
0
LINE
8
cut
62
1
10
-24.0
20
104.25
11
0.251205576
21
104.25
0
LINE
8
cut
62
1
10
-29.9805806757
20
103.0538838649
11
-24.0
21
104.25
0
LINE
8
cut
62
1
10
-34.0
20
70.0
11
-34.0
21
98.1509804864
0
LINE
8
cut
62
1
10
-35.0
20
70.0
11
-37.0
21
69.5
0
LINE
8
cut
62
1
10
-69.0
20
69.5
11
-37.0
21
69.5
0
LINE
8
cut
62
1
10
-69.0
20
50.0
11
-69.0
21
69.5
0
LINE
8
crease
62
3
10
0.0
20
50.0
11
0.0
21
70.0
0
LINE
8
cut
62
1
10
119.1842061383
20
172.8460554303
11
146.5748874947
21
163.5028197918
0
LINE
8
cut
62
1
10
-23.5
20
176.25
11
0.251205576
21
176.25
0
LINE
8
cut
62
1
10
192.0
20
22.0
11
189.0
21
20.0
0
LINE
8
cut
62
1
10
120.0
20
20.0
11
119.0
21
22.0
0
LINE
8
cut
62
1
10
192.0
20
48.0
11
189.0
21
50.0
0
LINE
8
cut
62
1
10
120.0
20
50.0
11
119.0
21
48.0
0
LINE
8
cut
62
1
10
119.0
20
22.0
11
119.0
21
48.0
0
LINE
8
cut
62
1
10
192.0
20
22.0
11
192.0
21
48.0
0
LINE
8
cut
62
1
10
-72.0
20
22.0
11
-72.0
21
48.0
0
LINE
8
cut
62
1
10
1.0
20
22.0
11
1.0
21
48.0
0
LINE
8
cut
62
1
10
0.0
20
50.0
11
1.0
21
48.0
0
LINE
8
cut
62
1
10
-72.0
20
48.0
11
-69.0
21
50.0
0
LINE
8
cut
62
1
10
0.0
20
20.0
11
1.0
21
22.0
0
LINE
8
cut
62
1
10
-72.0
20
22.0
11
-69.0
21
20.0
0
ARC
8
cut
62
1
10
143.5
20
181.25
40
5.0
50
270.0
51
360.0
0
ARC
8
cut
62
1
10
119.748794424
20
174.501205576
40
1.748794424
50
90.0
51
251.1649772999
0
ARC
8
cut
62
1
10
0.251205576
20
174.501205576
40
1.748794424
50
288.8350227001
51
450.0
0
ARC
8
cut
62
1
10
-29.0
20
98.1509804864
40
5.0
50
101.309932474
51
180.0
0
ARC
8
cut
62
1
10
-28.5
20
-28.1509804864
40
5.0
50
180.0
51
258.690067526
0
ARC
8
cut
62
1
10
0.251205576
20
105.998794424
40
1.748794424
50
270.0
51
431.1649772999
0
ARC
8
cut
62
1
10
-23.75
20
155.2213639632
40
8.75
50
108.8350226966
51
180.0
0
ARC
8
cut
62
1
10
-23.75
20
125.2786360368
40
8.75
50
180.0
51
251.1649773034
0
ARC
8
cut
62
1
10
149.0
20
98.1509804864
40
5.0
50
0.0
51
78.690067526
0
ARC
8
cut
62
1
10
148.5
20
-28.1509804864
40
5.0
50
281.309932474
51
360.0
0
ARC
8
cut
62
1
10
119.748794424
20
105.998794424
40
1.748794424
50
108.8350227001
51
270.0
0
ARC
8
cut
62
1
10
143.75
20
155.2213639632
40
8.75
50
0.0
51
71.1649773034
0
ARC
8
cut
62
1
10
143.75
20
125.2786360368
40
8.75
50
288.8350226966
51
360.0
0
ARC
8
cut
62
1
10
119.5
20
181.25
40
29.0
50
0.0
51
90.0
0
ARC
8
cut
62
1
10
-23.5
20
181.25
40
5.0
50
180.0
51
270.0
0
ARC
8
cut
62
1
10
0.5
20
181.25
40
29.0
50
90.0
51
180.0
0
TEXT
8
dimensions
62
255
10
107.2619047619
20
28.859375
11
107.2619047619
21
47.1409893498
40
6
72
0.0
50
90.0
1
70.00mm
0
LINE
8
dimensions
62
255
10
110.0
20
0.0
11
109.5
21
1.8660254038
0
LINE
8
dimensions
62
255
10
110.0
20
0.0
11
110.5
21
1.8660254038
0
LINE
8
dimensions
62
255
10
110.0
20
70.0
11
110.5
21
68.1339745962
0
LINE
8
dimensions
62
255
10
110.0
20
70.0
11
109.5
21
68.1339745962
0
LINE
8
dimensions
62
255
10
110.0
20
0.0
11
110.0
21
70.0
0
TEXT
8
dimensions
62
255
10
53.6875
20
222.9880952381
11
71.9691143498
21
222.9880952381
40
6
72
0.0
50
0.0
1
264.00mm
0
LINE
8
dimensions
62
255
10
-72.0
20
221.25
11
-72.0
21
213.25
0
LINE
8
dimensions
62
255
10
192.0
20
221.25
11
192.0
21
213.25
0
LINE
8
dimensions
62
255
10
-72.0
20
220.25
11
-70.1339745962
21
220.75
0
LINE
8
dimensions
62
255
10
-72.0
20
220.25
11
-70.1339745962
21
219.75
0
LINE
8
dimensions
62
255
10
192.0
20
220.25
11
190.1339745962
21
219.75
0
LINE
8
dimensions
62
255
10
192.0
20
220.25
11
190.1339745962
21
220.75
0
LINE
8
dimensions
62
255
10
-72.0
20
220.25
11
192.0
21
220.25
0
TEXT
8
dimensions
62
255
10
-84.2380952381
20
78.203125
11
-84.2380952381
21
104.1080577354
40
6
72
0.0
50
90.0
1
244.50mm
0
LINE
8
dimensions
62
255
10
-82.5
20
210.25
11
-74.5
21
210.25
0
LINE
8
dimensions
62
255
10
-82.5
20
-34.25
11
-74.5
21
-34.25
0
LINE
8
dimensions
62
255
10
-81.5
20
210.25
11
-81.0
21
208.3839745962
0
LINE
8
dimensions
62
255
10
-81.5
20
210.25
11
-82.0
21
208.3839745962
0
LINE
8
dimensions
62
255
10
-81.5
20
-34.25
11
-82.0
21
-32.3839745962
0
LINE
8
dimensions
62
255
10
-81.5
20
-34.25
11
-81.0
21
-32.3839745962
0
LINE
8
dimensions
62
255
10
-81.5
20
210.25
11
-81.5
21
-34.25
0
TEXT
8
dimensions
62
255
10
53.6875
20
12.7380952381
11
71.9691143498
21
12.7380952381
40
6
72
0.0
50
0.0
1
120.00mm
0
LINE
8
dimensions
62
255
10
0.0
20
10.0
11
1.8660254038
21
10.5
0
LINE
8
dimensions
62
255
10
0.0
20
10.0
11
1.8660254038
21
9.5
0
LINE
8
dimensions
62
255
10
120.0
20
10.0
11
118.1339745962
21
9.5
0
LINE
8
dimensions
62
255
10
120.0
20
10.0
11
118.1339745962
21
10.5
0
LINE
8
dimensions
62
255
10
0.0
20
10.0
11
120.0
21
10.0
0
TEXT
8
dimensions
62
255
10
107.2619047619
20
82.515625
11
107.2619047619
21
97.7479119955
40
6
72
0.0
50
90.0
1
35.00mm
0
LINE
8
dimensions
62
255
10
110.0
20
70.0
11
109.5
21
71.8660254038
0
LINE
8
dimensions
62
255
10
110.0
20
70.0
11
110.5
21
71.8660254038
0
LINE
8
dimensions
62
255
10
110.0
20
105.0
11
110.5
21
103.1339745962
0
LINE
8
dimensions
62
255
10
110.0
20
105.0
11
109.5
21
103.1339745962
0
LINE
8
dimensions
62
255
10
110.0
20
70.0
11
110.0
21
105.0
0
ENDSEC
0
EOF
