0
SECTION
2
HEADER
9
$ACADVER
1
AC1006
0
ENDSEC
0
SECTION
2
ENTITIES
0
LINE
8
cut
62
1
10
-32.5
20
-33.0
11
-56.3679245283
21
-33.0
0
LINE
8
cut
62
1
10
-32.5
20
-33.0
11
-32.5
21
-56.6603773585
0
LINE
8
combination
62
5
10
-32.5
20
-33.0
11
0.5
21
0.0
0
LINE
8
cut
62
1
10
-32.5
20
-56.6603773585
11
-1.5
21
-59.0
0
LINE
8
cut
62
1
10
-59.0
20
-2.0
11
-56.3679245283
21
-33.0
0
LINE
8
crease
62
3
10
0.5
20
0.0
11
0.5
21
-60.0
0
LINE
8
cut
62
1
10
152.5
20
-33.0
11
176.3679245283
21
-33.0
0
LINE
8
cut
62
1
10
152.5
20
-33.0
11
152.5
21
-56.6603773585
0
LINE
8
combination
62
5
10
152.5
20
-33.0
11
119.5
21
0.0
0
LINE
8
cut
62
1
10
152.5
20
-56.6603773585
11
121.5
21
-59.0
0
LINE
8
cut
62
1
10
179.0
20
-2.0
11
176.3679245283
21
-33.0
0
LINE
8
crease
62
3
10
119.5
20
0.0
11
119.5
21
-60.0
0
LINE
8
cut
62
1
10
152.5
20
103.0
11
176.3679245283
21
103.0
0
LINE
8
cut
62
1
10
152.5
20
103.0
11
152.5
21
126.6603773585
0
LINE
8
combination
62
5
10
152.5
20
103.0
11
119.5
21
70.0
0
LINE
8
cut
62
1
10
152.5
20
126.6603773585
11
121.5
21
129.0
0
LINE
8
cut
62
1
10
179.0
20
72.0
11
176.3679245283
21
103.0
0
LINE
8
crease
62
3
10
119.5
20
70.0
11
119.5
21
130.0
0
LINE
8
cut
62
1
10
-32.5
20
103.0
11
-56.3679245283
21
103.0
0
LINE
8
cut
62
1
10
-32.5
20
103.0
11
-32.5
21
126.6603773585
0
LINE
8
cut
62
1
10
13.5
20
-131.5
11
106.5
21
-131.5
0
LINE
8
cut
62
1
10
251.5
20
13.0
11
251.5
21
57.0
0
LINE
8
cut
62
1
10
-131.5
20
13.0
11
-131.5
21
57.0
0
LINE
8
cut
62
1
10
13.5
20
201.5
11
106.5
21
201.5
0
LINE
8
perforation
62
2
10
118.5
20
-119.5
11
1.5
21
-119.5
0
LINE
8
crease
62
3
10
119.5
20
-60.0
11
0.5
21
-60.0
0
LINE
8
crease
62
3
10
120.0
20
0.0
11
0.0
21
0.0
0
LINE
8
perforation
62
2
10
239.5
20
69.0
11
239.5
21
1.0
0
LINE
8
crease
62
3
10
180.0
20
70.0
11
180.0
21
0.0
0
LINE
8
crease
62
3
10
120.0
20
70.0
11
120.0
21
0.0
0
LINE
8
perforation
62
2
10
-119.5
20
69.0
11
-119.5
21
1.0
0
LINE
8
perforation
62
2
10
118.5
20
189.5
11
1.5
21
189.5
0
LINE
8
crease
62
3
10
-60.0
20
70.0
11
-60.0
21
0.0
0
LINE
8
crease
62
3
10
119.5
20
130.0
11
0.5
21
130.0
0
LINE
8
crease
62
3
10
0.0
20
70.0
11
0.0
21
0.0
0
LINE
8
crease
62
3
10
120.0
20
70.0
11
0.0
21
70.0
0
LINE
8
cut
62
1
10
121.5
20
-59.0
11
119.5
21
-60.0
0
LINE
8
cut
62
1
10
180.0
20
0.0
11
179.0
21
-2.0
0
LINE
8
cut
62
1
10
182.0
20
1.0
11
180.0
21
0.0
0
LINE
8
cut
62
1
10
119.5
20
-60.0
11
118.5
21
-62.0
0
LINE
8
crease
62
3
10
120.0
20
0.0
11
180.0
21
0.0
0
LINE
8
cut
62
1
10
118.5
20
-119.5
11
118.5
21
-62.0
0
LINE
8
cut
62
1
10
106.5
20
-131.5
11
118.5
21
-119.5
0
LINE
8
cut
62
1
10
239.5
20
1.0
11
182.0
21
1.0
0
LINE
8
cut
62
1
10
251.5
20
13.0
11
239.5
21
1.0
0
LINE
8
cut
62
1
10
-1.5
20
-59.0
11
0.5
21
-60.0
0
LINE
8
cut
62
1
10
-60.0
20
0.0
11
-59.0
21
-2.0
0
LINE
8
cut
62
1
10
-62.0
20
1.0
11
-60.0
21
0.0
0
LINE
8
cut
62
1
10
0.5
20
-60.0
11
1.5
21
-62.0
0
LINE
8
crease
62
3
10
0.0
20
0.0
11
-60.0
21
0.0
0
LINE
8
cut
62
1
10
1.5
20
-119.5
11
1.5
21
-62.0
0
LINE
8
cut
62
1
10
13.5
20
-131.5
11
1.5
21
-119.5
0
LINE
8
cut
62
1
10
-119.5
20
1.0
11
-62.0
21
1.0
0
LINE
8
cut
62
1
10
-131.5
20
13.0
11
-119.5
21
1.0
0
LINE
8
cut
62
1
10
121.5
20
129.0
11
119.5
21
130.0
0
LINE
8
cut
62
1
10
180.0
20
70.0
11
179.0
21
72.0
0
LINE
8
cut
62
1
10
182.0
20
69.0
11
180.0
21
70.0
0
LINE
8
cut
62
1
10
119.5
20
130.0
11
118.5
21
132.0
0
LINE
8
crease
62
3
10
120.0
20
70.0
11
180.0
21
70.0
0
LINE
8
cut
62
1
10
118.5
20
189.5
11
118.5
21
132.0
0
LINE
8
cut
62
1
10
106.5
20
201.5
11
118.5
21
189.5
0
LINE
8
cut
62
1
10
239.5
20
69.0
11
182.0
21
69.0
0
LINE
8
cut
62
1
10
251.5
20
57.0
11
239.5
21
69.0
0
LINE
8
combination
62
5
10
-32.5
20
103.0
11
0.5
21
70.0
0
LINE
8
cut
62
1
10
-1.5
20
129.0
11
0.5
21
130.0
0
LINE
8
cut
62
1
10
-32.5
20
126.6603773585
11
-1.5
21
129.0
0
LINE
8
cut
62
1
10
-59.0
20
72.0
11
-56.3679245283
21
103.0
0
LINE
8
cut
62
1
10
-60.0
20
70.0
11
-59.0
21
72.0
0
LINE
8
cut
62
1
10
-62.0
20
69.0
11
-60.0
21
70.0
0
LINE
8
cut
62
1
10
0.5
20
130.0
11
1.5
21
132.0
0
LINE
8
crease
62
3
10
0.0
20
70.0
11
-60.0
21
70.0
0
LINE
8
crease
62
3
10
0.5
20
70.0
11
0.5
21
130.0
0
LINE
8
cut
62
1
10
1.5
20
189.5
11
1.5
21
132.0
0
LINE
8
cut
62
1
10
13.5
20
201.5
11
1.5
21
189.5
0
LINE
8
cut
62
1
10
-119.5
20
69.0
11
-62.0
21
69.0
0
LINE
8
cut
62
1
10
-131.5
20
57.0
11
-119.5
21
69.0
0
LINE
8
cut
62
1
10
-15.0
20
225.5192378865
11
0.0
21
221.5
0
LINE
8
cut
62
1
10
-15.0
20
341.4807621135
11
0.0
21
345.5
0
LINE
8
cut
62
1
10
265.5
20
221.5
11
265.5
21
345.5
0
LINE
8
crease
62
3
10
204.5
20
221.5
11
204.5
21
345.5
0
LINE
8
cut
62
1
10
-15.0
20
341.4807621135
11
-15.0
21
225.5192378865
0
LINE
8
crease
62
3
10
133.0
20
221.5
11
133.0
21
345.5
0
LINE
8
crease
62
3
10
0.0
20
345.5
11
0.0
21
221.5
0
LINE
8
cut
62
1
10
265.5
20
345.5
11
0.0
21
345.5
0
LINE
8
crease
62
3
10
71.5
20
221.5
11
71.5
21
345.5
0
LINE
8
cut
62
1
10
0.0
20
221.5
11
265.5
21
221.5
0
TEXT
8
dimensions
62
255
10
-28.75
20
283.5
11
-28.75
21
293.5
40
10
72
0.0
50
90.0
1
124.00mm
0
LINE
8
dimensions
62
255
10
-25.0
20
221.5
11
-25.0
21
345.5
0
LINE
8
dimensions
62
255
10
-25.0
20
221.5
11
-24.0
21
224.5
0
LINE
8
dimensions
62
255
10
-25.0
20
221.5
11
-26.0
21
224.5
0
LINE
8
dimensions
62
255
10
-25.0
20
345.5
11
-24.0
21
342.5
0
LINE
8
dimensions
62
255
10
-25.0
20
345.5
11
-26.0
21
342.5
0
LINE
8
dimensions
62
255
10
-18.0
20
221.5
11
-25.0
21
221.5
0
LINE
8
dimensions
62
255
10
-18.0
20
345.5
11
-25.0
21
345.5
0
TEXT
8
dimensions
62
255
10
125.25
20
359.25
11
135.25
21
359.25
40
10
72
0.0
50
0.0
1
280.50mm
0
LINE
8
dimensions
62
255
10
265.5
20
355.5
11
-15.0
21
355.5
0
LINE
8
dimensions
62
255
10
265.5
20
355.5
11
262.5
21
356.5
0
LINE
8
dimensions
62
255
10
265.5
20
355.5
11
262.5
21
354.5
0
LINE
8
dimensions
62
255
10
-15.0
20
355.5
11
-12.0
21
356.5
0
LINE
8
dimensions
62
255
10
-15.0
20
355.5
11
-12.0
21
354.5
0
LINE
8
dimensions
62
255
10
265.5
20
348.5
11
265.5
21
355.5
0
LINE
8
dimensions
62
255
10
-15.0
20
348.5
11
-15.0
21
355.5
0
TEXT
8
dimensions
62
255
10
190.75
20
283.5
11
190.75
21
293.5
40
10
72
0.0
50
90.0
1
124.00mm
0
LINE
8
dimensions
62
255
10
194.5
20
345.5
11
194.5
21
221.5
0
LINE
8
dimensions
62
255
10
194.5
20
345.5
11
195.5
21
342.5
0
LINE
8
dimensions
62
255
10
194.5
20
345.5
11
193.5
21
342.5
0
LINE
8
dimensions
62
255
10
194.5
20
221.5
11
195.5
21
224.5
0
LINE
8
dimensions
62
255
10
194.5
20
221.5
11
193.5
21
224.5
0
TEXT
8
dimensions
62
255
10
102.25
20
235.25
11
112.25
21
235.25
40
10
72
0.0
50
0.0
1
61.50mm
0
LINE
8
dimensions
62
255
10
133.0
20
231.5
11
71.5
21
231.5
0
LINE
8
dimensions
62
255
10
133.0
20
231.5
11
130.0
21
232.5
0
LINE
8
dimensions
62
255
10
133.0
20
231.5
11
130.0
21
230.5
0
LINE
8
dimensions
62
255
10
71.5
20
231.5
11
74.5
21
232.5
0
LINE
8
dimensions
62
255
10
71.5
20
231.5
11
74.5
21
230.5
0
TEXT
8
dimensions
62
255
10
35.75
20
235.25
11
45.75
21
235.25
40
10
72
0.0
50
0.0
1
71.50mm
0
LINE
8
dimensions
62
255
10
71.5
20
231.5
11
0.0
21
231.5
0
LINE
8
dimensions
62
255
10
71.5
20
231.5
11
68.5
21
232.5
0
LINE
8
dimensions
62
255
10
71.5
20
231.5
11
68.5
21
230.5
0
LINE
8
dimensions
62
255
10
0.0
20
231.5
11
3.0
21
232.5
0
LINE
8
dimensions
62
255
10
0.0
20
231.5
11
3.0
21
230.5
0
TEXT
8
dimensions
62
255
10
-145.25
20
35.0
11
-145.25
21
45.0
40
10
72
0.0
50
90.0
1
333.00mm
0
LINE
8
dimensions
62
255
10
-141.5
20
-131.5
11
-141.5
21
201.5
0
LINE
8
dimensions
62
255
10
-141.5
20
-131.5
11
-140.5
21
-128.5
0
LINE
8
dimensions
62
255
10
-141.5
20
-131.5
11
-142.5
21
-128.5
0
LINE
8
dimensions
62
255
10
-141.5
20
201.5
11
-140.5
21
198.5
0
LINE
8
dimensions
62
255
10
-141.5
20
201.5
11
-142.5
21
198.5
0
LINE
8
dimensions
62
255
10
-134.5
20
-131.5
11
-141.5
21
-131.5
0
LINE
8
dimensions
62
255
10
-134.5
20
201.5
11
-141.5
21
201.5
0
TEXT
8
dimensions
62
255
10
60.0
20
215.25
11
70.0
21
215.25
40
10
72
0.0
50
0.0
1
383.00mm
0
LINE
8
dimensions
62
255
10
251.5
20
211.5
11
-131.5
21
211.5
0
LINE
8
dimensions
62
255
10
251.5
20
211.5
11
248.5
21
212.5
0
LINE
8
dimensions
62
255
10
251.5
20
211.5
11
248.5
21
210.5
0
LINE
8
dimensions
62
255
10
-131.5
20
211.5
11
-128.5
21
212.5
0
LINE
8
dimensions
62
255
10
-131.5
20
211.5
11
-128.5
21
210.5
0
LINE
8
dimensions
62
255
10
251.5
20
204.5
11
251.5
21
211.5
0
LINE
8
dimensions
62
255
10
-131.5
20
204.5
11
-131.5
21
211.5
0
TEXT
8
dimensions
62
255
10
150.0
20
13.75
11
160.0
21
13.75
40
10
72
0.0
50
0.0
1
60.00mm
0
LINE
8
dimensions
62
255
10
180.0
20
10.0
11
120.0
21
10.0
0
LINE
8
dimensions
62
255
10
180.0
20
10.0
11
177.0
21
11.0
0
LINE
8
dimensions
62
255
10
180.0
20
10.0
11
177.0
21
9.0
0
LINE
8
dimensions
62
255
10
120.0
20
10.0
11
123.0
21
11.0
0
LINE
8
dimensions
62
255
10
120.0
20
10.0
11
123.0
21
9.0
0
TEXT
8
dimensions
62
255
10
106.25
20
35.0
11
106.25
21
45.0
40
10
72
0.0
50
90.0
1
70.00mm
0
LINE
8
dimensions
62
255
10
110.0
20
70.0
11
110.0
21
0.0
0
LINE
8
dimensions
62
255
10
110.0
20
70.0
11
111.0
21
67.0
0
LINE
8
dimensions
62
255
10
110.0
20
70.0
11
109.0
21
67.0
0
LINE
8
dimensions
62
255
10
110.0
20
0.0
11
111.0
21
3.0
0
LINE
8
dimensions
62
255
10
110.0
20
0.0
11
109.0
21
3.0
0
TEXT
8
dimensions
62
255
10
60.0
20
13.75
11
70.0
21
13.75
40
10
72
0.0
50
0.0
1
120.00mm
0
LINE
8
dimensions
62
255
10
120.0
20
10.0
11
0.0
21
10.0
0
LINE
8
dimensions
62
255
10
120.0
20
10.0
11
117.0
21
11.0
0
LINE
8
dimensions
62
255
10
120.0
20
10.0
11
117.0
21
9.0
0
LINE
8
dimensions
62
255
10
0.0
20
10.0
11
3.0
21
11.0
0
LINE
8
dimensions
62
255
10
0.0
20
10.0
11
3.0
21
9.0
0
ENDSEC
0
EOF
